<?xml version="1.0" encoding="utf-8"?>
<svg xmlns="http://www.w3.org/2000/svg" xmlns:xlink="http://www.w3.org/1999/xlink" width="600" height="400" viewBox="0 0 2400 1600">
<defs>
  <clipPath id="clip450">
    <rect x="0" y="0" width="2400" height="1600"/>
  </clipPath>
</defs>
<path clip-path="url(#clip450)" d="
M0 1600 L2400 1600 L2400 0 L0 0  Z
  " fill="#ffffff" fill-rule="evenodd" fill-opacity="1"/>
<defs>
  <clipPath id="clip451">
    <rect x="480" y="0" width="1681" height="1600"/>
  </clipPath>
</defs>
<path clip-path="url(#clip450)" d="
M86.9921 1521.01 L2352.76 1521.01 L2352.76 47.2441 L86.9921 47.2441  Z
  " fill="#ffffff" fill-rule="evenodd" fill-opacity="1"/>
<defs>
  <clipPath id="clip452">
    <rect x="86" y="47" width="2267" height="1475"/>
  </clipPath>
</defs>
<polyline clip-path="url(#clip452)" style="stroke:#000000; stroke-width:2; stroke-opacity:0.1; fill:none" points="
  124.06,1521.01 124.06,47.2441 
  "/>
<polyline clip-path="url(#clip452)" style="stroke:#000000; stroke-width:2; stroke-opacity:0.1; fill:none" points="
  665.203,1521.01 665.203,47.2441 
  "/>
<polyline clip-path="url(#clip452)" style="stroke:#000000; stroke-width:2; stroke-opacity:0.1; fill:none" points="
  1206.35,1521.01 1206.35,47.2441 
  "/>
<polyline clip-path="url(#clip452)" style="stroke:#000000; stroke-width:2; stroke-opacity:0.1; fill:none" points="
  1747.49,1521.01 1747.49,47.2441 
  "/>
<polyline clip-path="url(#clip452)" style="stroke:#000000; stroke-width:2; stroke-opacity:0.1; fill:none" points="
  2288.63,1521.01 2288.63,47.2441 
  "/>
<polyline clip-path="url(#clip452)" style="stroke:#000000; stroke-width:2; stroke-opacity:0.1; fill:none" points="
  86.9921,1180.85 2352.76,1180.85 
  "/>
<polyline clip-path="url(#clip452)" style="stroke:#000000; stroke-width:2; stroke-opacity:0.1; fill:none" points="
  86.9921,816.883 2352.76,816.883 
  "/>
<polyline clip-path="url(#clip452)" style="stroke:#000000; stroke-width:2; stroke-opacity:0.1; fill:none" points="
  86.9921,452.919 2352.76,452.919 
  "/>
<polyline clip-path="url(#clip452)" style="stroke:#000000; stroke-width:2; stroke-opacity:0.1; fill:none" points="
  86.9921,88.9544 2352.76,88.9544 
  "/>
<polyline clip-path="url(#clip450)" style="stroke:#000000; stroke-width:4; stroke-opacity:1; fill:none" points="
  86.9921,1521.01 2352.76,1521.01 
  "/>
<polyline clip-path="url(#clip450)" style="stroke:#000000; stroke-width:4; stroke-opacity:1; fill:none" points="
  86.9921,1521.01 86.9921,47.2441 
  "/>
<polyline clip-path="url(#clip450)" style="stroke:#000000; stroke-width:4; stroke-opacity:1; fill:none" points="
  124.06,1521.01 124.06,1503.32 
  "/>
<polyline clip-path="url(#clip450)" style="stroke:#000000; stroke-width:4; stroke-opacity:1; fill:none" points="
  665.203,1521.01 665.203,1503.32 
  "/>
<polyline clip-path="url(#clip450)" style="stroke:#000000; stroke-width:4; stroke-opacity:1; fill:none" points="
  1206.35,1521.01 1206.35,1503.32 
  "/>
<polyline clip-path="url(#clip450)" style="stroke:#000000; stroke-width:4; stroke-opacity:1; fill:none" points="
  1747.49,1521.01 1747.49,1503.32 
  "/>
<polyline clip-path="url(#clip450)" style="stroke:#000000; stroke-width:4; stroke-opacity:1; fill:none" points="
  2288.63,1521.01 2288.63,1503.32 
  "/>
<polyline clip-path="url(#clip450)" style="stroke:#000000; stroke-width:4; stroke-opacity:1; fill:none" points="
  86.9921,1180.85 114.181,1180.85 
  "/>
<polyline clip-path="url(#clip450)" style="stroke:#000000; stroke-width:4; stroke-opacity:1; fill:none" points="
  86.9921,816.883 114.181,816.883 
  "/>
<polyline clip-path="url(#clip450)" style="stroke:#000000; stroke-width:4; stroke-opacity:1; fill:none" points="
  86.9921,452.919 114.181,452.919 
  "/>
<polyline clip-path="url(#clip450)" style="stroke:#000000; stroke-width:4; stroke-opacity:1; fill:none" points="
  86.9921,88.9544 114.181,88.9544 
  "/>
<path clip-path="url(#clip450)" d="M 0 0 M124.06 1543 Q120.449 1543 118.621 1546.56 Q116.815 1550.11 116.815 1557.23 Q116.815 1564.34 118.621 1567.91 Q120.449 1571.45 124.06 1571.45 Q127.695 1571.45 129.5 1567.91 Q131.329 1564.34 131.329 1557.23 Q131.329 1550.11 129.5 1546.56 Q127.695 1543 124.06 1543 M124.06 1539.29 Q129.871 1539.29 132.926 1543.9 Q136.005 1548.48 136.005 1557.23 Q136.005 1565.96 132.926 1570.57 Q129.871 1575.15 124.06 1575.15 Q118.25 1575.15 115.172 1570.57 Q112.116 1565.96 112.116 1557.23 Q112.116 1548.48 115.172 1543.9 Q118.25 1539.29 124.06 1539.29 Z" fill="#000000" fill-rule="evenodd" fill-opacity="1" /><path clip-path="url(#clip450)" d="M 0 0 M646.349 1570.54 L662.668 1570.54 L662.668 1574.48 L640.724 1574.48 L640.724 1570.54 Q643.386 1567.79 647.969 1563.16 Q652.576 1558.51 653.756 1557.17 Q656.002 1554.64 656.881 1552.91 Q657.784 1551.15 657.784 1549.46 Q657.784 1546.7 655.84 1544.97 Q653.918 1543.23 650.816 1543.23 Q648.617 1543.23 646.164 1543.99 Q643.733 1544.76 640.955 1546.31 L640.955 1541.59 Q643.779 1540.45 646.233 1539.87 Q648.687 1539.29 650.724 1539.29 Q656.094 1539.29 659.289 1541.98 Q662.483 1544.67 662.483 1549.16 Q662.483 1551.29 661.673 1553.21 Q660.886 1555.1 658.779 1557.7 Q658.201 1558.37 655.099 1561.59 Q651.997 1564.78 646.349 1570.54 Z" fill="#000000" fill-rule="evenodd" fill-opacity="1" /><path clip-path="url(#clip450)" d="M 0 0 M677.738 1543 Q674.126 1543 672.298 1546.56 Q670.492 1550.11 670.492 1557.23 Q670.492 1564.34 672.298 1567.91 Q674.126 1571.45 677.738 1571.45 Q681.372 1571.45 683.177 1567.91 Q685.006 1564.34 685.006 1557.23 Q685.006 1550.11 683.177 1546.56 Q681.372 1543 677.738 1543 M677.738 1539.29 Q683.548 1539.29 686.603 1543.9 Q689.682 1548.48 689.682 1557.23 Q689.682 1565.96 686.603 1570.57 Q683.548 1575.15 677.738 1575.15 Q671.927 1575.15 668.849 1570.57 Q665.793 1565.96 665.793 1557.23 Q665.793 1548.48 668.849 1543.9 Q671.927 1539.29 677.738 1539.29 Z" fill="#000000" fill-rule="evenodd" fill-opacity="1" /><path clip-path="url(#clip450)" d="M 0 0 M1195.85 1543.99 L1184.04 1562.44 L1195.85 1562.44 L1195.85 1543.99 M1194.62 1539.92 L1200.5 1539.92 L1200.5 1562.44 L1205.43 1562.44 L1205.43 1566.33 L1200.5 1566.33 L1200.5 1574.48 L1195.85 1574.48 L1195.85 1566.33 L1180.25 1566.33 L1180.25 1561.82 L1194.62 1539.92 Z" fill="#000000" fill-rule="evenodd" fill-opacity="1" /><path clip-path="url(#clip450)" d="M 0 0 M1220.5 1543 Q1216.89 1543 1215.06 1546.56 Q1213.26 1550.11 1213.26 1557.23 Q1213.26 1564.34 1215.06 1567.91 Q1216.89 1571.45 1220.5 1571.45 Q1224.13 1571.45 1225.94 1567.91 Q1227.77 1564.34 1227.77 1557.23 Q1227.77 1550.11 1225.94 1546.56 Q1224.13 1543 1220.5 1543 M1220.5 1539.29 Q1226.31 1539.29 1229.37 1543.9 Q1232.44 1548.48 1232.44 1557.23 Q1232.44 1565.96 1229.37 1570.57 Q1226.31 1575.15 1220.5 1575.15 Q1214.69 1575.15 1211.61 1570.57 Q1208.56 1565.96 1208.56 1557.23 Q1208.56 1548.48 1211.61 1543.9 Q1214.69 1539.29 1220.5 1539.29 Z" fill="#000000" fill-rule="evenodd" fill-opacity="1" /><path clip-path="url(#clip450)" d="M 0 0 M1734.39 1555.34 Q1731.24 1555.34 1729.39 1557.49 Q1727.56 1559.64 1727.56 1563.39 Q1727.56 1567.12 1729.39 1569.29 Q1731.24 1571.45 1734.39 1571.45 Q1737.53 1571.45 1739.36 1569.29 Q1741.21 1567.12 1741.21 1563.39 Q1741.21 1559.64 1739.36 1557.49 Q1737.53 1555.34 1734.39 1555.34 M1743.67 1540.68 L1743.67 1544.94 Q1741.91 1544.11 1740.1 1543.67 Q1738.32 1543.23 1736.56 1543.23 Q1731.93 1543.23 1729.48 1546.36 Q1727.05 1549.48 1726.7 1555.8 Q1728.07 1553.79 1730.13 1552.72 Q1732.19 1551.63 1734.66 1551.63 Q1739.87 1551.63 1742.88 1554.8 Q1745.91 1557.95 1745.91 1563.39 Q1745.91 1568.72 1742.77 1571.93 Q1739.62 1575.15 1734.39 1575.15 Q1728.39 1575.15 1725.22 1570.57 Q1722.05 1565.96 1722.05 1557.23 Q1722.05 1549.04 1725.94 1544.18 Q1729.83 1539.29 1736.38 1539.29 Q1738.14 1539.29 1739.92 1539.64 Q1741.72 1539.99 1743.67 1540.68 Z" fill="#000000" fill-rule="evenodd" fill-opacity="1" /><path clip-path="url(#clip450)" d="M 0 0 M1760.98 1543 Q1757.37 1543 1755.54 1546.56 Q1753.74 1550.11 1753.74 1557.23 Q1753.74 1564.34 1755.54 1567.91 Q1757.37 1571.45 1760.98 1571.45 Q1764.62 1571.45 1766.42 1567.91 Q1768.25 1564.34 1768.25 1557.23 Q1768.25 1550.11 1766.42 1546.56 Q1764.62 1543 1760.98 1543 M1760.98 1539.29 Q1766.79 1539.29 1769.85 1543.9 Q1772.93 1548.48 1772.93 1557.23 Q1772.93 1565.96 1769.85 1570.57 Q1766.79 1575.15 1760.98 1575.15 Q1755.17 1575.15 1752.09 1570.57 Q1749.04 1565.96 1749.04 1557.23 Q1749.04 1548.48 1752.09 1543.9 Q1755.17 1539.29 1760.98 1539.29 Z" fill="#000000" fill-rule="evenodd" fill-opacity="1" /><path clip-path="url(#clip450)" d="M 0 0 M2275.12 1558.07 Q2271.79 1558.07 2269.87 1559.85 Q2267.97 1561.63 2267.97 1564.76 Q2267.97 1567.88 2269.87 1569.67 Q2271.79 1571.45 2275.12 1571.45 Q2278.46 1571.45 2280.38 1569.67 Q2282.3 1567.86 2282.3 1564.76 Q2282.3 1561.63 2280.38 1559.85 Q2278.48 1558.07 2275.12 1558.07 M2270.45 1556.08 Q2267.44 1555.34 2265.75 1553.28 Q2264.08 1551.22 2264.08 1548.25 Q2264.08 1544.11 2267.02 1541.7 Q2269.98 1539.29 2275.12 1539.29 Q2280.29 1539.29 2283.23 1541.7 Q2286.17 1544.11 2286.17 1548.25 Q2286.17 1551.22 2284.48 1553.28 Q2282.81 1555.34 2279.82 1556.08 Q2283.2 1556.86 2285.08 1559.16 Q2286.98 1561.45 2286.98 1564.76 Q2286.98 1569.78 2283.9 1572.47 Q2280.84 1575.15 2275.12 1575.15 Q2269.41 1575.15 2266.33 1572.47 Q2263.27 1569.78 2263.27 1564.76 Q2263.27 1561.45 2265.17 1559.16 Q2267.07 1556.86 2270.45 1556.08 M2268.73 1548.69 Q2268.73 1551.38 2270.4 1552.88 Q2272.09 1554.39 2275.12 1554.39 Q2278.13 1554.39 2279.82 1552.88 Q2281.54 1551.38 2281.54 1548.69 Q2281.54 1546.01 2279.82 1544.5 Q2278.13 1543 2275.12 1543 Q2272.09 1543 2270.4 1544.5 Q2268.73 1546.01 2268.73 1548.69 Z" fill="#000000" fill-rule="evenodd" fill-opacity="1" /><path clip-path="url(#clip450)" d="M 0 0 M2302.04 1543 Q2298.43 1543 2296.61 1546.56 Q2294.8 1550.11 2294.8 1557.23 Q2294.8 1564.34 2296.61 1567.91 Q2298.43 1571.45 2302.04 1571.45 Q2305.68 1571.45 2307.48 1567.91 Q2309.31 1564.34 2309.31 1557.23 Q2309.31 1550.11 2307.48 1546.56 Q2305.68 1543 2302.04 1543 M2302.04 1539.29 Q2307.85 1539.29 2310.91 1543.9 Q2313.99 1548.48 2313.99 1557.23 Q2313.99 1565.96 2310.91 1570.57 Q2307.85 1575.15 2302.04 1575.15 Q2296.23 1575.15 2293.16 1570.57 Q2290.1 1565.96 2290.1 1557.23 Q2290.1 1548.48 2293.16 1543.9 Q2296.23 1539.29 2302.04 1539.29 Z" fill="#000000" fill-rule="evenodd" fill-opacity="1" /><path clip-path="url(#clip450)" d="M 0 0 M15.0757 1163.57 L33.4321 1163.57 L33.4321 1167.5 L19.3581 1167.5 L19.3581 1175.97 Q20.3766 1175.63 21.3951 1175.47 Q22.4136 1175.28 23.4322 1175.28 Q29.2192 1175.28 32.5988 1178.45 Q35.9784 1181.62 35.9784 1187.04 Q35.9784 1192.62 32.5062 1195.72 Q29.034 1198.8 22.7146 1198.8 Q20.5386 1198.8 18.2701 1198.43 Q16.0248 1198.06 13.6174 1197.32 L13.6174 1192.62 Q15.7007 1193.75 17.9229 1194.31 Q20.1451 1194.86 22.622 1194.86 Q26.6266 1194.86 28.9645 1192.76 Q31.3025 1190.65 31.3025 1187.04 Q31.3025 1183.43 28.9645 1181.32 Q26.6266 1179.22 22.622 1179.22 Q20.747 1179.22 18.872 1179.63 Q17.0202 1180.05 15.0757 1180.93 L15.0757 1163.57 Z" fill="#000000" fill-rule="evenodd" fill-opacity="1" /><path clip-path="url(#clip450)" d="M 0 0 M51.0477 1166.65 Q47.4367 1166.65 45.608 1170.21 Q43.8024 1173.75 43.8024 1180.88 Q43.8024 1187.99 45.608 1191.55 Q47.4367 1195.09 51.0477 1195.09 Q54.682 1195.09 56.4875 1191.55 Q58.3162 1187.99 58.3162 1180.88 Q58.3162 1173.75 56.4875 1170.21 Q54.682 1166.65 51.0477 1166.65 M51.0477 1162.94 Q56.8579 1162.94 59.9134 1167.55 Q62.9921 1172.13 62.9921 1180.88 Q62.9921 1189.61 59.9134 1194.21 Q56.8579 1198.8 51.0477 1198.8 Q45.2376 1198.8 42.1589 1194.21 Q39.1034 1189.61 39.1034 1180.88 Q39.1034 1172.13 42.1589 1167.55 Q45.2376 1162.94 51.0477 1162.94 Z" fill="#000000" fill-rule="evenodd" fill-opacity="1" /><path clip-path="url(#clip450)" d="M 0 0 M-10.9427 830.228 L-3.30382 830.228 L-3.30382 803.862 L-11.614 805.529 L-11.614 801.269 L-3.35011 799.603 L1.32579 799.603 L1.32579 830.228 L8.96464 830.228 L8.96464 834.163 L-10.9427 834.163 L-10.9427 830.228 Z" fill="#000000" fill-rule="evenodd" fill-opacity="1" /><path clip-path="url(#clip450)" d="M 0 0 M24.034 802.681 Q20.4229 802.681 18.5942 806.246 Q16.7887 809.788 16.7887 816.917 Q16.7887 824.024 18.5942 827.589 Q20.4229 831.13 24.034 831.13 Q27.6682 831.13 29.4738 827.589 Q31.3025 824.024 31.3025 816.917 Q31.3025 809.788 29.4738 806.246 Q27.6682 802.681 24.034 802.681 M24.034 798.978 Q29.8442 798.978 32.8997 803.584 Q35.9784 808.168 35.9784 816.917 Q35.9784 825.644 32.8997 830.251 Q29.8442 834.834 24.034 834.834 Q18.2238 834.834 15.1452 830.251 Q12.0896 825.644 12.0896 816.917 Q12.0896 808.168 15.1452 803.584 Q18.2238 798.978 24.034 798.978 Z" fill="#000000" fill-rule="evenodd" fill-opacity="1" /><path clip-path="url(#clip450)" d="M 0 0 M51.0477 802.681 Q47.4367 802.681 45.608 806.246 Q43.8024 809.788 43.8024 816.917 Q43.8024 824.024 45.608 827.589 Q47.4367 831.13 51.0477 831.13 Q54.682 831.13 56.4875 827.589 Q58.3162 824.024 58.3162 816.917 Q58.3162 809.788 56.4875 806.246 Q54.682 802.681 51.0477 802.681 M51.0477 798.978 Q56.8579 798.978 59.9134 803.584 Q62.9921 808.168 62.9921 816.917 Q62.9921 825.644 59.9134 830.251 Q56.8579 834.834 51.0477 834.834 Q45.2376 834.834 42.1589 830.251 Q39.1034 825.644 39.1034 816.917 Q39.1034 808.168 42.1589 803.584 Q45.2376 798.978 51.0477 798.978 Z" fill="#000000" fill-rule="evenodd" fill-opacity="1" /><path clip-path="url(#clip450)" d="M 0 0 M-9.9473 466.263 L-2.30845 466.263 L-2.30845 439.898 L-10.6186 441.564 L-10.6186 437.305 L-2.35475 435.639 L2.32115 435.639 L2.32115 466.263 L9.96 466.263 L9.96 470.199 L-9.9473 470.199 L-9.9473 466.263 Z" fill="#000000" fill-rule="evenodd" fill-opacity="1" /><path clip-path="url(#clip450)" d="M 0 0 M15.0757 435.639 L33.4321 435.639 L33.4321 439.574 L19.3581 439.574 L19.3581 448.046 Q20.3766 447.699 21.3951 447.537 Q22.4136 447.351 23.4322 447.351 Q29.2192 447.351 32.5988 450.523 Q35.9784 453.694 35.9784 459.111 Q35.9784 464.689 32.5062 467.791 Q29.034 470.87 22.7146 470.87 Q20.5386 470.87 18.2701 470.499 Q16.0248 470.129 13.6174 469.388 L13.6174 464.689 Q15.7007 465.824 17.9229 466.379 Q20.1451 466.935 22.622 466.935 Q26.6266 466.935 28.9645 464.828 Q31.3025 462.722 31.3025 459.111 Q31.3025 455.5 28.9645 453.393 Q26.6266 451.287 22.622 451.287 Q20.747 451.287 18.872 451.703 Q17.0202 452.12 15.0757 453 L15.0757 435.639 Z" fill="#000000" fill-rule="evenodd" fill-opacity="1" /><path clip-path="url(#clip450)" d="M 0 0 M51.0477 438.717 Q47.4367 438.717 45.608 442.282 Q43.8024 445.824 43.8024 452.953 Q43.8024 460.06 45.608 463.625 Q47.4367 467.166 51.0477 467.166 Q54.682 467.166 56.4875 463.625 Q58.3162 460.06 58.3162 452.953 Q58.3162 445.824 56.4875 442.282 Q54.682 438.717 51.0477 438.717 M51.0477 435.014 Q56.8579 435.014 59.9134 439.62 Q62.9921 444.203 62.9921 452.953 Q62.9921 461.68 59.9134 466.287 Q56.8579 470.87 51.0477 470.87 Q45.2376 470.87 42.1589 466.287 Q39.1034 461.68 39.1034 452.953 Q39.1034 444.203 42.1589 439.62 Q45.2376 435.014 51.0477 435.014 Z" fill="#000000" fill-rule="evenodd" fill-opacity="1" /><path clip-path="url(#clip450)" d="M 0 0 M-7.35472 102.299 L8.96464 102.299 L8.96464 106.234 L-12.9797 106.234 L-12.9797 102.299 Q-10.3177 99.5446 -5.73436 94.915 Q-1.1279 90.2623 0.0526484 88.9197 Q2.29801 86.3965 3.17763 84.6604 Q4.0804 82.9012 4.0804 81.2114 Q4.0804 78.4568 2.13597 76.7207 Q0.214685 74.9846 -2.88715 74.9846 Q-5.08621 74.9846 -7.5399 75.7484 Q-9.97045 76.5123 -12.7482 78.0632 L-12.7482 73.341 Q-9.92415 72.2068 -7.47046 71.6281 Q-5.01677 71.0494 -2.97974 71.0494 Q2.3906 71.0494 5.58503 73.7346 Q8.77945 76.4197 8.77945 80.9105 Q8.77945 83.0401 7.96927 84.9614 Q7.18224 86.8595 5.07577 89.4521 Q4.49707 90.1234 1.39523 93.3409 Q-1.7066 96.5354 -7.35472 102.299 Z" fill="#000000" fill-rule="evenodd" fill-opacity="1" /><path clip-path="url(#clip450)" d="M 0 0 M24.034 74.7531 Q20.4229 74.7531 18.5942 78.3179 Q16.7887 81.8595 16.7887 88.9891 Q16.7887 96.0956 18.5942 99.6604 Q20.4229 103.202 24.034 103.202 Q27.6682 103.202 29.4738 99.6604 Q31.3025 96.0956 31.3025 88.9891 Q31.3025 81.8595 29.4738 78.3179 Q27.6682 74.7531 24.034 74.7531 M24.034 71.0494 Q29.8442 71.0494 32.8997 75.6559 Q35.9784 80.2392 35.9784 88.9891 Q35.9784 97.7159 32.8997 102.322 Q29.8442 106.906 24.034 106.906 Q18.2238 106.906 15.1452 102.322 Q12.0896 97.7159 12.0896 88.9891 Q12.0896 80.2392 15.1452 75.6559 Q18.2238 71.0494 24.034 71.0494 Z" fill="#000000" fill-rule="evenodd" fill-opacity="1" /><path clip-path="url(#clip450)" d="M 0 0 M51.0477 74.7531 Q47.4367 74.7531 45.608 78.3179 Q43.8024 81.8595 43.8024 88.9891 Q43.8024 96.0956 45.608 99.6604 Q47.4367 103.202 51.0477 103.202 Q54.682 103.202 56.4875 99.6604 Q58.3162 96.0956 58.3162 88.9891 Q58.3162 81.8595 56.4875 78.3179 Q54.682 74.7531 51.0477 74.7531 M51.0477 71.0494 Q56.8579 71.0494 59.9134 75.6559 Q62.9921 80.2392 62.9921 88.9891 Q62.9921 97.7159 59.9134 102.322 Q56.8579 106.906 51.0477 106.906 Q45.2376 106.906 42.1589 102.322 Q39.1034 97.7159 39.1034 88.9891 Q39.1034 80.2392 42.1589 75.6559 Q45.2376 71.0494 51.0477 71.0494 Z" fill="#000000" fill-rule="evenodd" fill-opacity="1" /><polyline clip-path="url(#clip452)" style="stroke:#009af9; stroke-width:4; stroke-opacity:1; fill:none" points="
  151.118,1450.18 178.175,1479.3 205.232,1413.78 232.289,1260.92 259.346,1464.74 286.403,1472.02 313.46,1217.24 340.517,1362.83 367.575,1479.3 394.632,1326.43 
  421.689,1297.32 448.746,1362.83 475.803,1304.59 502.86,1464.74 529.917,1290.04 556.974,1340.99 584.032,1260.92 611.089,1413.78 638.146,1311.87 665.203,1457.46 
  692.26,1282.76 719.317,1326.43 746.374,1239.08 773.431,1399.23 800.489,1013.42 827.546,1239.08 854.603,1464.74 881.66,1100.77 908.717,649.459 935.774,838.721 
  962.831,1151.73 989.888,991.586 1016.95,511.153 1044,838.721 1071.06,969.748 1098.12,896.955 1125.17,423.801 1152.23,547.549 1179.29,882.396 1206.35,307.333 
  1233.4,634.901 1260.46,198.144 1287.52,358.288 1314.57,714.973 1341.63,169.027 1368.69,88.9544 1395.75,88.9544 1422.8,918.793 1449.86,88.9544 1476.92,88.9544 
  1503.97,88.9544 1531.03,88.9544 1558.09,88.9544 1585.15,88.9544 1612.2,88.9544 1639.26,88.9544 1666.32,88.9544 1693.37,88.9544 1720.43,88.9544 1747.49,88.9544 
  1774.55,88.9544 1801.6,88.9544 1828.66,88.9544 1855.72,88.9544 1882.77,88.9544 1909.83,88.9544 1936.89,88.9544 1963.94,88.9544 1991,88.9544 2018.06,88.9544 
  2045.12,88.9544 2072.17,88.9544 2099.23,88.9544 2126.29,88.9544 2153.34,88.9544 2180.4,88.9544 2207.46,88.9544 2234.52,88.9544 2261.57,88.9544 2288.63,88.9544 
  
  "/>
<path clip-path="url(#clip450)" d="
M1989.74 251.724 L2280.76 251.724 L2280.76 130.764 L1989.74 130.764  Z
  " fill="#ffffff" fill-rule="evenodd" fill-opacity="1"/>
<polyline clip-path="url(#clip450)" style="stroke:#000000; stroke-width:4; stroke-opacity:1; fill:none" points="
  1989.74,251.724 2280.76,251.724 2280.76,130.764 1989.74,130.764 1989.74,251.724 
  "/>
<polyline clip-path="url(#clip450)" style="stroke:#009af9; stroke-width:4; stroke-opacity:1; fill:none" points="
  2013.74,191.244 2157.74,191.244 
  "/>
<path clip-path="url(#clip450)" d="M 0 0 M2195.58 210.931 Q2193.77 215.561 2192.06 216.973 Q2190.35 218.385 2187.48 218.385 L2184.08 218.385 L2184.08 214.82 L2186.58 214.82 Q2188.33 214.82 2189.31 213.987 Q2190.28 213.154 2191.46 210.052 L2192.22 208.107 L2181.74 182.598 L2186.25 182.598 L2194.35 202.876 L2202.46 182.598 L2206.97 182.598 L2195.58 210.931 Z" fill="#000000" fill-rule="evenodd" fill-opacity="1" /><path clip-path="url(#clip450)" d="M 0 0 M2212.85 204.589 L2220.49 204.589 L2220.49 178.223 L2212.18 179.89 L2212.18 175.631 L2220.44 173.964 L2225.12 173.964 L2225.12 204.589 L2232.76 204.589 L2232.76 208.524 L2212.85 208.524 L2212.85 204.589 Z" fill="#000000" fill-rule="evenodd" fill-opacity="1" /></svg>
