<?xml version="1.0" encoding="utf-8"?>
<svg xmlns="http://www.w3.org/2000/svg" xmlns:xlink="http://www.w3.org/1999/xlink" width="600" height="400" viewBox="0 0 2400 1600">
<defs>
  <clipPath id="clip870">
    <rect x="0" y="0" width="2400" height="1600"/>
  </clipPath>
</defs>
<path clip-path="url(#clip870)" d="
M0 1600 L2400 1600 L2400 0 L0 0  Z
  " fill="#ffffff" fill-rule="evenodd" fill-opacity="1"/>
<defs>
  <clipPath id="clip871">
    <rect x="480" y="0" width="1681" height="1600"/>
  </clipPath>
</defs>
<path clip-path="url(#clip870)" d="
M86.9921 1521.01 L2352.76 1521.01 L2352.76 47.2441 L86.9921 47.2441  Z
  " fill="#ffffff" fill-rule="evenodd" fill-opacity="1"/>
<defs>
  <clipPath id="clip872">
    <rect x="86" y="47" width="2267" height="1475"/>
  </clipPath>
</defs>
<polyline clip-path="url(#clip872)" style="stroke:#000000; stroke-width:2; stroke-opacity:0.1; fill:none" points="
  124.06,1521.01 124.06,47.2441 
  "/>
<polyline clip-path="url(#clip872)" style="stroke:#000000; stroke-width:2; stroke-opacity:0.1; fill:none" points="
  665.203,1521.01 665.203,47.2441 
  "/>
<polyline clip-path="url(#clip872)" style="stroke:#000000; stroke-width:2; stroke-opacity:0.1; fill:none" points="
  1206.35,1521.01 1206.35,47.2441 
  "/>
<polyline clip-path="url(#clip872)" style="stroke:#000000; stroke-width:2; stroke-opacity:0.1; fill:none" points="
  1747.49,1521.01 1747.49,47.2441 
  "/>
<polyline clip-path="url(#clip872)" style="stroke:#000000; stroke-width:2; stroke-opacity:0.1; fill:none" points="
  2288.63,1521.01 2288.63,47.2441 
  "/>
<polyline clip-path="url(#clip870)" style="stroke:#000000; stroke-width:4; stroke-opacity:1; fill:none" points="
  86.9921,1521.01 2352.76,1521.01 
  "/>
<polyline clip-path="url(#clip870)" style="stroke:#000000; stroke-width:4; stroke-opacity:1; fill:none" points="
  124.06,1521.01 124.06,1503.32 
  "/>
<polyline clip-path="url(#clip870)" style="stroke:#000000; stroke-width:4; stroke-opacity:1; fill:none" points="
  665.203,1521.01 665.203,1503.32 
  "/>
<polyline clip-path="url(#clip870)" style="stroke:#000000; stroke-width:4; stroke-opacity:1; fill:none" points="
  1206.35,1521.01 1206.35,1503.32 
  "/>
<polyline clip-path="url(#clip870)" style="stroke:#000000; stroke-width:4; stroke-opacity:1; fill:none" points="
  1747.49,1521.01 1747.49,1503.32 
  "/>
<polyline clip-path="url(#clip870)" style="stroke:#000000; stroke-width:4; stroke-opacity:1; fill:none" points="
  2288.63,1521.01 2288.63,1503.32 
  "/>
<path clip-path="url(#clip870)" d="M 0 0 M124.06 1550.2 Q120.449 1550.2 118.621 1553.76 Q116.815 1557.31 116.815 1564.43 Q116.815 1571.54 118.621 1575.11 Q120.449 1578.65 124.06 1578.65 Q127.695 1578.65 129.5 1575.11 Q131.329 1571.54 131.329 1564.43 Q131.329 1557.31 129.5 1553.76 Q127.695 1550.2 124.06 1550.2 M124.06 1546.49 Q129.871 1546.49 132.926 1551.1 Q136.005 1555.68 136.005 1564.43 Q136.005 1573.16 132.926 1577.77 Q129.871 1582.35 124.06 1582.35 Q118.25 1582.35 115.172 1577.77 Q112.116 1573.16 112.116 1564.43 Q112.116 1555.68 115.172 1551.1 Q118.25 1546.49 124.06 1546.49 Z" fill="#000000" fill-rule="evenodd" fill-opacity="1" /><path clip-path="url(#clip870)" d="M 0 0 M646.349 1577.74 L662.668 1577.74 L662.668 1581.68 L640.724 1581.68 L640.724 1577.74 Q643.386 1574.99 647.969 1570.36 Q652.576 1565.71 653.756 1564.37 Q656.002 1561.84 656.881 1560.11 Q657.784 1558.35 657.784 1556.66 Q657.784 1553.9 655.84 1552.17 Q653.918 1550.43 650.816 1550.43 Q648.617 1550.43 646.164 1551.19 Q643.733 1551.96 640.955 1553.51 L640.955 1548.79 Q643.779 1547.65 646.233 1547.07 Q648.687 1546.49 650.724 1546.49 Q656.094 1546.49 659.289 1549.18 Q662.483 1551.87 662.483 1556.36 Q662.483 1558.49 661.673 1560.41 Q660.886 1562.3 658.779 1564.9 Q658.201 1565.57 655.099 1568.79 Q651.997 1571.98 646.349 1577.74 Z" fill="#000000" fill-rule="evenodd" fill-opacity="1" /><path clip-path="url(#clip870)" d="M 0 0 M677.738 1550.2 Q674.126 1550.2 672.298 1553.76 Q670.492 1557.31 670.492 1564.43 Q670.492 1571.54 672.298 1575.11 Q674.126 1578.65 677.738 1578.65 Q681.372 1578.65 683.177 1575.11 Q685.006 1571.54 685.006 1564.43 Q685.006 1557.31 683.177 1553.76 Q681.372 1550.2 677.738 1550.2 M677.738 1546.49 Q683.548 1546.49 686.603 1551.1 Q689.682 1555.68 689.682 1564.43 Q689.682 1573.16 686.603 1577.77 Q683.548 1582.35 677.738 1582.35 Q671.927 1582.35 668.849 1577.77 Q665.793 1573.16 665.793 1564.43 Q665.793 1555.68 668.849 1551.1 Q671.927 1546.49 677.738 1546.49 Z" fill="#000000" fill-rule="evenodd" fill-opacity="1" /><path clip-path="url(#clip870)" d="M 0 0 M1195.85 1551.19 L1184.04 1569.64 L1195.85 1569.64 L1195.85 1551.19 M1194.62 1547.12 L1200.5 1547.12 L1200.5 1569.64 L1205.43 1569.64 L1205.43 1573.53 L1200.5 1573.53 L1200.5 1581.68 L1195.85 1581.68 L1195.85 1573.53 L1180.25 1573.53 L1180.25 1569.02 L1194.62 1547.12 Z" fill="#000000" fill-rule="evenodd" fill-opacity="1" /><path clip-path="url(#clip870)" d="M 0 0 M1220.5 1550.2 Q1216.89 1550.2 1215.06 1553.76 Q1213.26 1557.31 1213.26 1564.43 Q1213.26 1571.54 1215.06 1575.11 Q1216.89 1578.65 1220.5 1578.65 Q1224.13 1578.65 1225.94 1575.11 Q1227.77 1571.54 1227.77 1564.43 Q1227.77 1557.31 1225.94 1553.76 Q1224.13 1550.2 1220.5 1550.2 M1220.5 1546.49 Q1226.31 1546.49 1229.37 1551.1 Q1232.44 1555.68 1232.44 1564.43 Q1232.44 1573.16 1229.37 1577.77 Q1226.31 1582.35 1220.5 1582.35 Q1214.69 1582.35 1211.61 1577.77 Q1208.56 1573.16 1208.56 1564.43 Q1208.56 1555.68 1211.61 1551.1 Q1214.69 1546.49 1220.5 1546.49 Z" fill="#000000" fill-rule="evenodd" fill-opacity="1" /><path clip-path="url(#clip870)" d="M 0 0 M1734.39 1562.54 Q1731.24 1562.54 1729.39 1564.69 Q1727.56 1566.84 1727.56 1570.59 Q1727.56 1574.32 1729.39 1576.49 Q1731.24 1578.65 1734.39 1578.65 Q1737.53 1578.65 1739.36 1576.49 Q1741.21 1574.32 1741.21 1570.59 Q1741.21 1566.84 1739.36 1564.69 Q1737.53 1562.54 1734.39 1562.54 M1743.67 1547.88 L1743.67 1552.14 Q1741.91 1551.31 1740.1 1550.87 Q1738.32 1550.43 1736.56 1550.43 Q1731.93 1550.43 1729.48 1553.56 Q1727.05 1556.68 1726.7 1563 Q1728.07 1560.99 1730.13 1559.92 Q1732.19 1558.83 1734.66 1558.83 Q1739.87 1558.83 1742.88 1562 Q1745.91 1565.15 1745.91 1570.59 Q1745.91 1575.92 1742.77 1579.13 Q1739.62 1582.35 1734.39 1582.35 Q1728.39 1582.35 1725.22 1577.77 Q1722.05 1573.16 1722.05 1564.43 Q1722.05 1556.24 1725.94 1551.38 Q1729.83 1546.49 1736.38 1546.49 Q1738.14 1546.49 1739.92 1546.84 Q1741.72 1547.19 1743.67 1547.88 Z" fill="#000000" fill-rule="evenodd" fill-opacity="1" /><path clip-path="url(#clip870)" d="M 0 0 M1760.98 1550.2 Q1757.37 1550.2 1755.54 1553.76 Q1753.74 1557.31 1753.74 1564.43 Q1753.74 1571.54 1755.54 1575.11 Q1757.37 1578.65 1760.98 1578.65 Q1764.62 1578.65 1766.42 1575.11 Q1768.25 1571.54 1768.25 1564.43 Q1768.25 1557.31 1766.42 1553.76 Q1764.62 1550.2 1760.98 1550.2 M1760.98 1546.49 Q1766.79 1546.49 1769.85 1551.1 Q1772.93 1555.68 1772.93 1564.43 Q1772.93 1573.16 1769.85 1577.77 Q1766.79 1582.35 1760.98 1582.35 Q1755.17 1582.35 1752.09 1577.77 Q1749.04 1573.16 1749.04 1564.43 Q1749.04 1555.68 1752.09 1551.1 Q1755.17 1546.49 1760.98 1546.49 Z" fill="#000000" fill-rule="evenodd" fill-opacity="1" /><path clip-path="url(#clip870)" d="M 0 0 M2275.12 1565.27 Q2271.79 1565.27 2269.87 1567.05 Q2267.97 1568.83 2267.97 1571.96 Q2267.97 1575.08 2269.87 1576.87 Q2271.79 1578.65 2275.12 1578.65 Q2278.46 1578.65 2280.38 1576.87 Q2282.3 1575.06 2282.3 1571.96 Q2282.3 1568.83 2280.38 1567.05 Q2278.48 1565.27 2275.12 1565.27 M2270.45 1563.28 Q2267.44 1562.54 2265.75 1560.48 Q2264.08 1558.42 2264.08 1555.45 Q2264.08 1551.31 2267.02 1548.9 Q2269.98 1546.49 2275.12 1546.49 Q2280.29 1546.49 2283.23 1548.9 Q2286.17 1551.31 2286.17 1555.45 Q2286.17 1558.42 2284.48 1560.48 Q2282.81 1562.54 2279.82 1563.28 Q2283.2 1564.06 2285.08 1566.36 Q2286.98 1568.65 2286.98 1571.96 Q2286.98 1576.98 2283.9 1579.67 Q2280.84 1582.35 2275.12 1582.35 Q2269.41 1582.35 2266.33 1579.67 Q2263.27 1576.98 2263.27 1571.96 Q2263.27 1568.65 2265.17 1566.36 Q2267.07 1564.06 2270.45 1563.28 M2268.73 1555.89 Q2268.73 1558.58 2270.4 1560.08 Q2272.09 1561.59 2275.12 1561.59 Q2278.13 1561.59 2279.82 1560.08 Q2281.54 1558.58 2281.54 1555.89 Q2281.54 1553.21 2279.82 1551.7 Q2278.13 1550.2 2275.12 1550.2 Q2272.09 1550.2 2270.4 1551.7 Q2268.73 1553.21 2268.73 1555.89 Z" fill="#000000" fill-rule="evenodd" fill-opacity="1" /><path clip-path="url(#clip870)" d="M 0 0 M2302.04 1550.2 Q2298.43 1550.2 2296.61 1553.76 Q2294.8 1557.31 2294.8 1564.43 Q2294.8 1571.54 2296.61 1575.11 Q2298.43 1578.65 2302.04 1578.65 Q2305.68 1578.65 2307.48 1575.11 Q2309.31 1571.54 2309.31 1564.43 Q2309.31 1557.31 2307.48 1553.76 Q2305.68 1550.2 2302.04 1550.2 M2302.04 1546.49 Q2307.85 1546.49 2310.91 1551.1 Q2313.99 1555.68 2313.99 1564.43 Q2313.99 1573.16 2310.91 1577.77 Q2307.85 1582.35 2302.04 1582.35 Q2296.23 1582.35 2293.16 1577.77 Q2290.1 1573.16 2290.1 1564.43 Q2290.1 1555.68 2293.16 1551.1 Q2296.23 1546.49 2302.04 1546.49 Z" fill="#000000" fill-rule="evenodd" fill-opacity="1" /><polyline clip-path="url(#clip872)" style="stroke:#000000; stroke-width:2; stroke-opacity:0.1; fill:none" points="
  86.9921,1180.85 2352.76,1180.85 
  "/>
<polyline clip-path="url(#clip872)" style="stroke:#000000; stroke-width:2; stroke-opacity:0.1; fill:none" points="
  86.9921,816.883 2352.76,816.883 
  "/>
<polyline clip-path="url(#clip872)" style="stroke:#000000; stroke-width:2; stroke-opacity:0.1; fill:none" points="
  86.9921,452.919 2352.76,452.919 
  "/>
<polyline clip-path="url(#clip872)" style="stroke:#000000; stroke-width:2; stroke-opacity:0.1; fill:none" points="
  86.9921,88.9544 2352.76,88.9544 
  "/>
<polyline clip-path="url(#clip870)" style="stroke:#000000; stroke-width:4; stroke-opacity:1; fill:none" points="
  86.9921,1521.01 86.9921,47.2441 
  "/>
<polyline clip-path="url(#clip870)" style="stroke:#000000; stroke-width:4; stroke-opacity:1; fill:none" points="
  86.9921,1180.85 114.181,1180.85 
  "/>
<polyline clip-path="url(#clip870)" style="stroke:#000000; stroke-width:4; stroke-opacity:1; fill:none" points="
  86.9921,816.883 114.181,816.883 
  "/>
<polyline clip-path="url(#clip870)" style="stroke:#000000; stroke-width:4; stroke-opacity:1; fill:none" points="
  86.9921,452.919 114.181,452.919 
  "/>
<polyline clip-path="url(#clip870)" style="stroke:#000000; stroke-width:4; stroke-opacity:1; fill:none" points="
  86.9921,88.9544 114.181,88.9544 
  "/>
<path clip-path="url(#clip870)" d="M 0 0 M3.07572 1163.57 L21.4321 1163.57 L21.4321 1167.5 L7.3581 1167.5 L7.3581 1175.97 Q8.37661 1175.63 9.39513 1175.47 Q10.4136 1175.28 11.4322 1175.28 Q17.2192 1175.28 20.5988 1178.45 Q23.9784 1181.62 23.9784 1187.04 Q23.9784 1192.62 20.5062 1195.72 Q17.034 1198.8 10.7146 1198.8 Q8.53865 1198.8 6.27014 1198.43 Q4.02479 1198.06 1.61739 1197.32 L1.61739 1192.62 Q3.70071 1193.75 5.92292 1194.31 Q8.14513 1194.86 10.622 1194.86 Q14.6266 1194.86 16.9645 1192.76 Q19.3025 1190.65 19.3025 1187.04 Q19.3025 1183.43 16.9645 1181.32 Q14.6266 1179.22 10.622 1179.22 Q8.74698 1179.22 6.87199 1179.63 Q5.02015 1180.05 3.07572 1180.93 L3.07572 1163.57 Z" fill="#000000" fill-rule="evenodd" fill-opacity="1" /><path clip-path="url(#clip870)" d="M 0 0 M39.0477 1166.65 Q35.4367 1166.65 33.608 1170.21 Q31.8024 1173.75 31.8024 1180.88 Q31.8024 1187.99 33.608 1191.55 Q35.4367 1195.09 39.0477 1195.09 Q42.682 1195.09 44.4875 1191.55 Q46.3162 1187.99 46.3162 1180.88 Q46.3162 1173.75 44.4875 1170.21 Q42.682 1166.65 39.0477 1166.65 M39.0477 1162.94 Q44.8579 1162.94 47.9134 1167.55 Q50.9921 1172.13 50.9921 1180.88 Q50.9921 1189.61 47.9134 1194.21 Q44.8579 1198.8 39.0477 1198.8 Q33.2376 1198.8 30.1589 1194.21 Q27.1034 1189.61 27.1034 1180.88 Q27.1034 1172.13 30.1589 1167.55 Q33.2376 1162.94 39.0477 1162.94 Z" fill="#000000" fill-rule="evenodd" fill-opacity="1" /><path clip-path="url(#clip870)" d="M 0 0 M-22.9427 830.228 L-15.3038 830.228 L-15.3038 803.862 L-23.614 805.529 L-23.614 801.269 L-15.3501 799.603 L-10.6742 799.603 L-10.6742 830.228 L-3.03536 830.228 L-3.03536 834.163 L-22.9427 834.163 L-22.9427 830.228 Z" fill="#000000" fill-rule="evenodd" fill-opacity="1" /><path clip-path="url(#clip870)" d="M 0 0 M12.034 802.681 Q8.42291 802.681 6.59422 806.246 Q4.78867 809.788 4.78867 816.917 Q4.78867 824.024 6.59422 827.589 Q8.42291 831.13 12.034 831.13 Q15.6682 831.13 17.4738 827.589 Q19.3025 824.024 19.3025 816.917 Q19.3025 809.788 17.4738 806.246 Q15.6682 802.681 12.034 802.681 M12.034 798.978 Q17.8442 798.978 20.8997 803.584 Q23.9784 808.168 23.9784 816.917 Q23.9784 825.644 20.8997 830.251 Q17.8442 834.834 12.034 834.834 Q6.22385 834.834 3.14516 830.251 Q0.089621 825.644 0.089621 816.917 Q0.089621 808.168 3.14516 803.584 Q6.22385 798.978 12.034 798.978 Z" fill="#000000" fill-rule="evenodd" fill-opacity="1" /><path clip-path="url(#clip870)" d="M 0 0 M39.0477 802.681 Q35.4367 802.681 33.608 806.246 Q31.8024 809.788 31.8024 816.917 Q31.8024 824.024 33.608 827.589 Q35.4367 831.13 39.0477 831.13 Q42.682 831.13 44.4875 827.589 Q46.3162 824.024 46.3162 816.917 Q46.3162 809.788 44.4875 806.246 Q42.682 802.681 39.0477 802.681 M39.0477 798.978 Q44.8579 798.978 47.9134 803.584 Q50.9921 808.168 50.9921 816.917 Q50.9921 825.644 47.9134 830.251 Q44.8579 834.834 39.0477 834.834 Q33.2376 834.834 30.1589 830.251 Q27.1034 825.644 27.1034 816.917 Q27.1034 808.168 30.1589 803.584 Q33.2376 798.978 39.0477 798.978 Z" fill="#000000" fill-rule="evenodd" fill-opacity="1" /><path clip-path="url(#clip870)" d="M 0 0 M-21.9473 466.263 L-14.3085 466.263 L-14.3085 439.898 L-22.6186 441.564 L-22.6186 437.305 L-14.3547 435.639 L-9.67885 435.639 L-9.67885 466.263 L-2.04 466.263 L-2.04 470.199 L-21.9473 470.199 L-21.9473 466.263 Z" fill="#000000" fill-rule="evenodd" fill-opacity="1" /><path clip-path="url(#clip870)" d="M 0 0 M3.07572 435.639 L21.4321 435.639 L21.4321 439.574 L7.3581 439.574 L7.3581 448.046 Q8.37661 447.699 9.39513 447.537 Q10.4136 447.351 11.4322 447.351 Q17.2192 447.351 20.5988 450.523 Q23.9784 453.694 23.9784 459.111 Q23.9784 464.689 20.5062 467.791 Q17.034 470.87 10.7146 470.87 Q8.53865 470.87 6.27014 470.499 Q4.02479 470.129 1.61739 469.388 L1.61739 464.689 Q3.70071 465.824 5.92292 466.379 Q8.14513 466.935 10.622 466.935 Q14.6266 466.935 16.9645 464.828 Q19.3025 462.722 19.3025 459.111 Q19.3025 455.5 16.9645 453.393 Q14.6266 451.287 10.622 451.287 Q8.74698 451.287 6.87199 451.703 Q5.02015 452.12 3.07572 453 L3.07572 435.639 Z" fill="#000000" fill-rule="evenodd" fill-opacity="1" /><path clip-path="url(#clip870)" d="M 0 0 M39.0477 438.717 Q35.4367 438.717 33.608 442.282 Q31.8024 445.824 31.8024 452.953 Q31.8024 460.06 33.608 463.625 Q35.4367 467.166 39.0477 467.166 Q42.682 467.166 44.4875 463.625 Q46.3162 460.06 46.3162 452.953 Q46.3162 445.824 44.4875 442.282 Q42.682 438.717 39.0477 438.717 M39.0477 435.014 Q44.8579 435.014 47.9134 439.62 Q50.9921 444.203 50.9921 452.953 Q50.9921 461.68 47.9134 466.287 Q44.8579 470.87 39.0477 470.87 Q33.2376 470.87 30.1589 466.287 Q27.1034 461.68 27.1034 452.953 Q27.1034 444.203 30.1589 439.62 Q33.2376 435.014 39.0477 435.014 Z" fill="#000000" fill-rule="evenodd" fill-opacity="1" /><path clip-path="url(#clip870)" d="M 0 0 M-19.3547 102.299 L-3.03536 102.299 L-3.03536 106.234 L-24.9797 106.234 L-24.9797 102.299 Q-22.3177 99.5446 -17.7344 94.915 Q-13.1279 90.2623 -11.9474 88.9197 Q-9.70199 86.3965 -8.82237 84.6604 Q-7.9196 82.9012 -7.9196 81.2114 Q-7.9196 78.4568 -9.86403 76.7207 Q-11.7853 74.9846 -14.8872 74.9846 Q-17.0862 74.9846 -19.5399 75.7484 Q-21.9704 76.5123 -24.7482 78.0632 L-24.7482 73.341 Q-21.9241 72.2068 -19.4705 71.6281 Q-17.0168 71.0494 -14.9797 71.0494 Q-9.6094 71.0494 -6.41497 73.7346 Q-3.22055 76.4197 -3.22055 80.9105 Q-3.22055 83.0401 -4.03073 84.9614 Q-4.81776 86.8595 -6.92423 89.4521 Q-7.50293 90.1234 -10.6048 93.3409 Q-13.7066 96.5354 -19.3547 102.299 Z" fill="#000000" fill-rule="evenodd" fill-opacity="1" /><path clip-path="url(#clip870)" d="M 0 0 M12.034 74.7531 Q8.42291 74.7531 6.59422 78.3179 Q4.78867 81.8595 4.78867 88.9891 Q4.78867 96.0956 6.59422 99.6604 Q8.42291 103.202 12.034 103.202 Q15.6682 103.202 17.4738 99.6604 Q19.3025 96.0956 19.3025 88.9891 Q19.3025 81.8595 17.4738 78.3179 Q15.6682 74.7531 12.034 74.7531 M12.034 71.0494 Q17.8442 71.0494 20.8997 75.6559 Q23.9784 80.2392 23.9784 88.9891 Q23.9784 97.7159 20.8997 102.322 Q17.8442 106.906 12.034 106.906 Q6.22385 106.906 3.14516 102.322 Q0.089621 97.7159 0.089621 88.9891 Q0.089621 80.2392 3.14516 75.6559 Q6.22385 71.0494 12.034 71.0494 Z" fill="#000000" fill-rule="evenodd" fill-opacity="1" /><path clip-path="url(#clip870)" d="M 0 0 M39.0477 74.7531 Q35.4367 74.7531 33.608 78.3179 Q31.8024 81.8595 31.8024 88.9891 Q31.8024 96.0956 33.608 99.6604 Q35.4367 103.202 39.0477 103.202 Q42.682 103.202 44.4875 99.6604 Q46.3162 96.0956 46.3162 88.9891 Q46.3162 81.8595 44.4875 78.3179 Q42.682 74.7531 39.0477 74.7531 M39.0477 71.0494 Q44.8579 71.0494 47.9134 75.6559 Q50.9921 80.2392 50.9921 88.9891 Q50.9921 97.7159 47.9134 102.322 Q44.8579 106.906 39.0477 106.906 Q33.2376 106.906 30.1589 102.322 Q27.1034 97.7159 27.1034 88.9891 Q27.1034 80.2392 30.1589 75.6559 Q33.2376 71.0494 39.0477 71.0494 Z" fill="#000000" fill-rule="evenodd" fill-opacity="1" /><polyline clip-path="url(#clip872)" style="stroke:#009af9; stroke-width:4; stroke-opacity:1; fill:none" points="
  151.118,1406.5 178.175,1224.52 205.232,1333.71 232.289,1457.46 259.346,1144.45 286.403,1479.3 313.46,1282.76 340.517,1166.29 367.575,1362.83 394.632,1472.02 
  421.689,1333.71 448.746,1442.9 475.803,1464.74 502.86,1253.64 529.917,1457.46 556.974,1391.95 584.032,1108.05 611.089,1297.32 638.146,1057.1 665.203,1348.27 
  692.26,1078.94 719.317,1326.43 746.374,1421.06 773.431,1209.96 800.489,1384.67 827.546,1195.41 854.603,1333.71 881.66,1049.82 908.717,1340.99 935.774,1304.59 
  962.831,1442.9 989.888,642.18 1016.95,642.18 1044,1370.11 1071.06,1057.1 1098.12,853.279 1125.17,940.631 1152.23,88.9544 1179.29,88.9544 1206.35,409.243 
  1233.4,503.874 1260.46,88.9544 1287.52,88.9544 1314.57,88.9544 1341.63,88.9544 1368.69,88.9544 1395.75,88.9544 1422.8,88.9544 1449.86,88.9544 1476.92,88.9544 
  1503.97,88.9544 1531.03,88.9544 1558.09,88.9544 1585.15,88.9544 1612.2,1115.33 1639.26,88.9544 1666.32,88.9544 1693.37,88.9544 1720.43,88.9544 1747.49,88.9544 
  1774.55,88.9544 1801.6,88.9544 1828.66,88.9544 1855.72,88.9544 1882.77,88.9544 1909.83,88.9544 1936.89,88.9544 1963.94,88.9544 1991,88.9544 2018.06,88.9544 
  2045.12,88.9544 2072.17,88.9544 2099.23,88.9544 2126.29,88.9544 2153.34,88.9544 2180.4,88.9544 2207.46,88.9544 2234.52,88.9544 2261.57,88.9544 2288.63,88.9544 
  
  "/>
<path clip-path="url(#clip870)" d="
M1974.46 217.33 L2277.23 217.33 L2277.23 96.3696 L1974.46 96.3696  Z
  " fill="#ffffff" fill-rule="evenodd" fill-opacity="1"/>
<polyline clip-path="url(#clip870)" style="stroke:#000000; stroke-width:4; stroke-opacity:1; fill:none" points="
  1974.46,217.33 2277.23,217.33 2277.23,96.3696 1974.46,96.3696 1974.46,217.33 
  "/>
<polyline clip-path="url(#clip870)" style="stroke:#009af9; stroke-width:4; stroke-opacity:1; fill:none" points="
  1999.64,156.85 2150.69,156.85 
  "/>
<path clip-path="url(#clip870)" d="M 0 0 M2189.7 176.537 Q2187.9 181.167 2186.19 182.579 Q2184.47 183.991 2181.6 183.991 L2178.2 183.991 L2178.2 180.426 L2180.7 180.426 Q2182.46 180.426 2183.43 179.592 Q2184.4 178.759 2185.58 175.657 L2186.35 173.713 L2175.86 148.204 L2180.38 148.204 L2188.48 168.481 L2196.58 148.204 L2201.09 148.204 L2189.7 176.537 Z" fill="#000000" fill-rule="evenodd" fill-opacity="1" /><path clip-path="url(#clip870)" d="M 0 0 M2206.97 170.194 L2214.61 170.194 L2214.61 143.829 L2206.3 145.495 L2206.3 141.236 L2214.57 139.57 L2219.24 139.57 L2219.24 170.194 L2226.88 170.194 L2226.88 174.13 L2206.97 174.13 L2206.97 170.194 Z" fill="#000000" fill-rule="evenodd" fill-opacity="1" /></svg>
