<?xml version="1.0" encoding="utf-8"?>
<svg xmlns="http://www.w3.org/2000/svg" xmlns:xlink="http://www.w3.org/1999/xlink" width="600" height="400" viewBox="0 0 2400 1600">
<defs>
  <clipPath id="clip420">
    <rect x="0" y="0" width="2400" height="1600"/>
  </clipPath>
</defs>
<path clip-path="url(#clip420)" d="
M0 1600 L2400 1600 L2400 0 L0 0  Z
  " fill="#ffffff" fill-rule="evenodd" fill-opacity="1"/>
<defs>
  <clipPath id="clip421">
    <rect x="480" y="0" width="1681" height="1600"/>
  </clipPath>
</defs>
<path clip-path="url(#clip420)" d="
M86.9921 1521.01 L2352.76 1521.01 L2352.76 47.2441 L86.9921 47.2441  Z
  " fill="#ffffff" fill-rule="evenodd" fill-opacity="1"/>
<defs>
  <clipPath id="clip422">
    <rect x="86" y="47" width="2267" height="1475"/>
  </clipPath>
</defs>
<polyline clip-path="url(#clip422)" style="stroke:#000000; stroke-width:2; stroke-opacity:0.1; fill:none" points="
  128.852,1521.01 128.852,47.2441 
  "/>
<polyline clip-path="url(#clip422)" style="stroke:#000000; stroke-width:2; stroke-opacity:0.1; fill:none" points="
  574.167,1521.01 574.167,47.2441 
  "/>
<polyline clip-path="url(#clip422)" style="stroke:#000000; stroke-width:2; stroke-opacity:0.1; fill:none" points="
  1019.48,1521.01 1019.48,47.2441 
  "/>
<polyline clip-path="url(#clip422)" style="stroke:#000000; stroke-width:2; stroke-opacity:0.1; fill:none" points="
  1464.8,1521.01 1464.8,47.2441 
  "/>
<polyline clip-path="url(#clip422)" style="stroke:#000000; stroke-width:2; stroke-opacity:0.1; fill:none" points="
  1910.11,1521.01 1910.11,47.2441 
  "/>
<polyline clip-path="url(#clip420)" style="stroke:#000000; stroke-width:4; stroke-opacity:1; fill:none" points="
  86.9921,1521.01 2352.76,1521.01 
  "/>
<polyline clip-path="url(#clip420)" style="stroke:#000000; stroke-width:4; stroke-opacity:1; fill:none" points="
  128.852,1521.01 128.852,1503.32 
  "/>
<polyline clip-path="url(#clip420)" style="stroke:#000000; stroke-width:4; stroke-opacity:1; fill:none" points="
  574.167,1521.01 574.167,1503.32 
  "/>
<polyline clip-path="url(#clip420)" style="stroke:#000000; stroke-width:4; stroke-opacity:1; fill:none" points="
  1019.48,1521.01 1019.48,1503.32 
  "/>
<polyline clip-path="url(#clip420)" style="stroke:#000000; stroke-width:4; stroke-opacity:1; fill:none" points="
  1464.8,1521.01 1464.8,1503.32 
  "/>
<polyline clip-path="url(#clip420)" style="stroke:#000000; stroke-width:4; stroke-opacity:1; fill:none" points="
  1910.11,1521.01 1910.11,1503.32 
  "/>
<path clip-path="url(#clip420)" d="M 0 0 M128.852 1550.2 Q125.241 1550.2 123.412 1553.76 Q121.606 1557.31 121.606 1564.43 Q121.606 1571.54 123.412 1575.11 Q125.241 1578.65 128.852 1578.65 Q132.486 1578.65 134.292 1575.11 Q136.12 1571.54 136.12 1564.43 Q136.12 1557.31 134.292 1553.76 Q132.486 1550.2 128.852 1550.2 M128.852 1546.49 Q134.662 1546.49 137.717 1551.1 Q140.796 1555.68 140.796 1564.43 Q140.796 1573.16 137.717 1577.77 Q134.662 1582.35 128.852 1582.35 Q123.042 1582.35 119.963 1577.77 Q116.907 1573.16 116.907 1564.43 Q116.907 1555.68 119.963 1551.1 Q123.042 1546.49 128.852 1546.49 Z" fill="#000000" fill-rule="evenodd" fill-opacity="1" /><path clip-path="url(#clip420)" d="M 0 0 M555.313 1577.74 L571.632 1577.74 L571.632 1581.68 L549.688 1581.68 L549.688 1577.74 Q552.35 1574.99 556.933 1570.36 Q561.54 1565.71 562.72 1564.37 Q564.966 1561.84 565.845 1560.11 Q566.748 1558.35 566.748 1556.66 Q566.748 1553.9 564.804 1552.17 Q562.882 1550.43 559.78 1550.43 Q557.581 1550.43 555.128 1551.19 Q552.697 1551.96 549.919 1553.51 L549.919 1548.79 Q552.743 1547.65 555.197 1547.07 Q557.651 1546.49 559.688 1546.49 Q565.058 1546.49 568.253 1549.18 Q571.447 1551.87 571.447 1556.36 Q571.447 1558.49 570.637 1560.41 Q569.85 1562.3 567.743 1564.9 Q567.165 1565.57 564.063 1568.79 Q560.961 1571.98 555.313 1577.74 Z" fill="#000000" fill-rule="evenodd" fill-opacity="1" /><path clip-path="url(#clip420)" d="M 0 0 M586.702 1550.2 Q583.091 1550.2 581.262 1553.76 Q579.456 1557.31 579.456 1564.43 Q579.456 1571.54 581.262 1575.11 Q583.091 1578.65 586.702 1578.65 Q590.336 1578.65 592.141 1575.11 Q593.97 1571.54 593.97 1564.43 Q593.97 1557.31 592.141 1553.76 Q590.336 1550.2 586.702 1550.2 M586.702 1546.49 Q592.512 1546.49 595.567 1551.1 Q598.646 1555.68 598.646 1564.43 Q598.646 1573.16 595.567 1577.77 Q592.512 1582.35 586.702 1582.35 Q580.891 1582.35 577.813 1577.77 Q574.757 1573.16 574.757 1564.43 Q574.757 1555.68 577.813 1551.1 Q580.891 1546.49 586.702 1546.49 Z" fill="#000000" fill-rule="evenodd" fill-opacity="1" /><path clip-path="url(#clip420)" d="M 0 0 M1008.98 1551.19 L997.179 1569.64 L1008.98 1569.64 L1008.98 1551.19 M1007.76 1547.12 L1013.64 1547.12 L1013.64 1569.64 L1018.57 1569.64 L1018.57 1573.53 L1013.64 1573.53 L1013.64 1581.68 L1008.98 1581.68 L1008.98 1573.53 L993.383 1573.53 L993.383 1569.02 L1007.76 1547.12 Z" fill="#000000" fill-rule="evenodd" fill-opacity="1" /><path clip-path="url(#clip420)" d="M 0 0 M1033.64 1550.2 Q1030.03 1550.2 1028.2 1553.76 Q1026.39 1557.31 1026.39 1564.43 Q1026.39 1571.54 1028.2 1575.11 Q1030.03 1578.65 1033.64 1578.65 Q1037.27 1578.65 1039.08 1575.11 Q1040.91 1571.54 1040.91 1564.43 Q1040.91 1557.31 1039.08 1553.76 Q1037.27 1550.2 1033.64 1550.2 M1033.64 1546.49 Q1039.45 1546.49 1042.5 1551.1 Q1045.58 1555.68 1045.58 1564.43 Q1045.58 1573.16 1042.5 1577.77 Q1039.45 1582.35 1033.64 1582.35 Q1027.83 1582.35 1024.75 1577.77 Q1021.69 1573.16 1021.69 1564.43 Q1021.69 1555.68 1024.75 1551.1 Q1027.83 1546.49 1033.64 1546.49 Z" fill="#000000" fill-rule="evenodd" fill-opacity="1" /><path clip-path="url(#clip420)" d="M 0 0 M1451.7 1562.54 Q1448.55 1562.54 1446.7 1564.69 Q1444.87 1566.84 1444.87 1570.59 Q1444.87 1574.32 1446.7 1576.49 Q1448.55 1578.65 1451.7 1578.65 Q1454.84 1578.65 1456.67 1576.49 Q1458.52 1574.32 1458.52 1570.59 Q1458.52 1566.84 1456.67 1564.69 Q1454.84 1562.54 1451.7 1562.54 M1460.98 1547.88 L1460.98 1552.14 Q1459.22 1551.31 1457.41 1550.87 Q1455.63 1550.43 1453.87 1550.43 Q1449.24 1550.43 1446.79 1553.56 Q1444.36 1556.68 1444.01 1563 Q1445.38 1560.99 1447.44 1559.92 Q1449.5 1558.83 1451.97 1558.83 Q1457.18 1558.83 1460.19 1562 Q1463.22 1565.15 1463.22 1570.59 Q1463.22 1575.92 1460.08 1579.13 Q1456.93 1582.35 1451.7 1582.35 Q1445.7 1582.35 1442.53 1577.77 Q1439.36 1573.16 1439.36 1564.43 Q1439.36 1556.24 1443.25 1551.38 Q1447.14 1546.49 1453.69 1546.49 Q1455.45 1546.49 1457.23 1546.84 Q1459.03 1547.19 1460.98 1547.88 Z" fill="#000000" fill-rule="evenodd" fill-opacity="1" /><path clip-path="url(#clip420)" d="M 0 0 M1478.29 1550.2 Q1474.68 1550.2 1472.85 1553.76 Q1471.05 1557.31 1471.05 1564.43 Q1471.05 1571.54 1472.85 1575.11 Q1474.68 1578.65 1478.29 1578.65 Q1481.93 1578.65 1483.73 1575.11 Q1485.56 1571.54 1485.56 1564.43 Q1485.56 1557.31 1483.73 1553.76 Q1481.93 1550.2 1478.29 1550.2 M1478.29 1546.49 Q1484.1 1546.49 1487.16 1551.1 Q1490.24 1555.68 1490.24 1564.43 Q1490.24 1573.16 1487.16 1577.77 Q1484.1 1582.35 1478.29 1582.35 Q1472.48 1582.35 1469.4 1577.77 Q1466.35 1573.16 1466.35 1564.43 Q1466.35 1555.68 1469.4 1551.1 Q1472.48 1546.49 1478.29 1546.49 Z" fill="#000000" fill-rule="evenodd" fill-opacity="1" /><path clip-path="url(#clip420)" d="M 0 0 M1896.61 1565.27 Q1893.27 1565.27 1891.35 1567.05 Q1889.45 1568.83 1889.45 1571.96 Q1889.45 1575.08 1891.35 1576.87 Q1893.27 1578.65 1896.61 1578.65 Q1899.94 1578.65 1901.86 1576.87 Q1903.78 1575.06 1903.78 1571.96 Q1903.78 1568.83 1901.86 1567.05 Q1899.96 1565.27 1896.61 1565.27 M1891.93 1563.28 Q1888.92 1562.54 1887.23 1560.48 Q1885.56 1558.42 1885.56 1555.45 Q1885.56 1551.31 1888.5 1548.9 Q1891.47 1546.49 1896.61 1546.49 Q1901.77 1546.49 1904.71 1548.9 Q1907.65 1551.31 1907.65 1555.45 Q1907.65 1558.42 1905.96 1560.48 Q1904.29 1562.54 1901.3 1563.28 Q1904.68 1564.06 1906.56 1566.36 Q1908.46 1568.65 1908.46 1571.96 Q1908.46 1576.98 1905.38 1579.67 Q1902.32 1582.35 1896.61 1582.35 Q1890.89 1582.35 1887.81 1579.67 Q1884.75 1576.98 1884.75 1571.96 Q1884.75 1568.65 1886.65 1566.36 Q1888.55 1564.06 1891.93 1563.28 M1890.22 1555.89 Q1890.22 1558.58 1891.88 1560.08 Q1893.57 1561.59 1896.61 1561.59 Q1899.61 1561.59 1901.3 1560.08 Q1903.02 1558.58 1903.02 1555.89 Q1903.02 1553.21 1901.3 1551.7 Q1899.61 1550.2 1896.61 1550.2 Q1893.57 1550.2 1891.88 1551.7 Q1890.22 1553.21 1890.22 1555.89 Z" fill="#000000" fill-rule="evenodd" fill-opacity="1" /><path clip-path="url(#clip420)" d="M 0 0 M1923.53 1550.2 Q1919.92 1550.2 1918.09 1553.76 Q1916.28 1557.31 1916.28 1564.43 Q1916.28 1571.54 1918.09 1575.11 Q1919.92 1578.65 1923.53 1578.65 Q1927.16 1578.65 1928.97 1575.11 Q1930.8 1571.54 1930.8 1564.43 Q1930.8 1557.31 1928.97 1553.76 Q1927.16 1550.2 1923.53 1550.2 M1923.53 1546.49 Q1929.34 1546.49 1932.39 1551.1 Q1935.47 1555.68 1935.47 1564.43 Q1935.47 1573.16 1932.39 1577.77 Q1929.34 1582.35 1923.53 1582.35 Q1917.72 1582.35 1914.64 1577.77 Q1911.58 1573.16 1911.58 1564.43 Q1911.58 1555.68 1914.64 1551.1 Q1917.72 1546.49 1923.53 1546.49 Z" fill="#000000" fill-rule="evenodd" fill-opacity="1" /><polyline clip-path="url(#clip422)" style="stroke:#000000; stroke-width:2; stroke-opacity:0.1; fill:none" points="
  86.9921,1175.16 2352.76,1175.16 
  "/>
<polyline clip-path="url(#clip422)" style="stroke:#000000; stroke-width:2; stroke-opacity:0.1; fill:none" points="
  86.9921,813.091 2352.76,813.091 
  "/>
<polyline clip-path="url(#clip422)" style="stroke:#000000; stroke-width:2; stroke-opacity:0.1; fill:none" points="
  86.9921,451.023 2352.76,451.023 
  "/>
<polyline clip-path="url(#clip422)" style="stroke:#000000; stroke-width:2; stroke-opacity:0.1; fill:none" points="
  86.9921,88.9544 2352.76,88.9544 
  "/>
<polyline clip-path="url(#clip420)" style="stroke:#000000; stroke-width:4; stroke-opacity:1; fill:none" points="
  86.9921,1521.01 86.9921,47.2441 
  "/>
<polyline clip-path="url(#clip420)" style="stroke:#000000; stroke-width:4; stroke-opacity:1; fill:none" points="
  86.9921,1175.16 114.181,1175.16 
  "/>
<polyline clip-path="url(#clip420)" style="stroke:#000000; stroke-width:4; stroke-opacity:1; fill:none" points="
  86.9921,813.091 114.181,813.091 
  "/>
<polyline clip-path="url(#clip420)" style="stroke:#000000; stroke-width:4; stroke-opacity:1; fill:none" points="
  86.9921,451.023 114.181,451.023 
  "/>
<polyline clip-path="url(#clip420)" style="stroke:#000000; stroke-width:4; stroke-opacity:1; fill:none" points="
  86.9921,88.9544 114.181,88.9544 
  "/>
<path clip-path="url(#clip420)" d="M 0 0 M3.07572 1157.88 L21.4321 1157.88 L21.4321 1161.82 L7.3581 1161.82 L7.3581 1170.29 Q8.37661 1169.94 9.39513 1169.78 Q10.4136 1169.59 11.4322 1169.59 Q17.2192 1169.59 20.5988 1172.76 Q23.9784 1175.94 23.9784 1181.35 Q23.9784 1186.93 20.5062 1190.03 Q17.034 1193.11 10.7146 1193.11 Q8.53865 1193.11 6.27014 1192.74 Q4.02479 1192.37 1.61739 1191.63 L1.61739 1186.93 Q3.70071 1188.07 5.92292 1188.62 Q8.14513 1189.18 10.622 1189.18 Q14.6266 1189.18 16.9645 1187.07 Q19.3025 1184.96 19.3025 1181.35 Q19.3025 1177.74 16.9645 1175.63 Q14.6266 1173.53 10.622 1173.53 Q8.74698 1173.53 6.87199 1173.94 Q5.02015 1174.36 3.07572 1175.24 L3.07572 1157.88 Z" fill="#000000" fill-rule="evenodd" fill-opacity="1" /><path clip-path="url(#clip420)" d="M 0 0 M39.0477 1160.96 Q35.4367 1160.96 33.608 1164.52 Q31.8024 1168.07 31.8024 1175.19 Q31.8024 1182.3 33.608 1185.87 Q35.4367 1189.41 39.0477 1189.41 Q42.682 1189.41 44.4875 1185.87 Q46.3162 1182.3 46.3162 1175.19 Q46.3162 1168.07 44.4875 1164.52 Q42.682 1160.96 39.0477 1160.96 M39.0477 1157.26 Q44.8579 1157.26 47.9134 1161.86 Q50.9921 1166.44 50.9921 1175.19 Q50.9921 1183.92 47.9134 1188.53 Q44.8579 1193.11 39.0477 1193.11 Q33.2376 1193.11 30.1589 1188.53 Q27.1034 1183.92 27.1034 1175.19 Q27.1034 1166.44 30.1589 1161.86 Q33.2376 1157.26 39.0477 1157.26 Z" fill="#000000" fill-rule="evenodd" fill-opacity="1" /><path clip-path="url(#clip420)" d="M 0 0 M-22.9427 826.436 L-15.3038 826.436 L-15.3038 800.071 L-23.614 801.737 L-23.614 797.478 L-15.3501 795.811 L-10.6742 795.811 L-10.6742 826.436 L-3.03536 826.436 L-3.03536 830.371 L-22.9427 830.371 L-22.9427 826.436 Z" fill="#000000" fill-rule="evenodd" fill-opacity="1" /><path clip-path="url(#clip420)" d="M 0 0 M12.034 798.89 Q8.42291 798.89 6.59422 802.455 Q4.78867 805.997 4.78867 813.126 Q4.78867 820.233 6.59422 823.797 Q8.42291 827.339 12.034 827.339 Q15.6682 827.339 17.4738 823.797 Q19.3025 820.233 19.3025 813.126 Q19.3025 805.997 17.4738 802.455 Q15.6682 798.89 12.034 798.89 M12.034 795.186 Q17.8442 795.186 20.8997 799.793 Q23.9784 804.376 23.9784 813.126 Q23.9784 821.853 20.8997 826.459 Q17.8442 831.043 12.034 831.043 Q6.22385 831.043 3.14516 826.459 Q0.089621 821.853 0.089621 813.126 Q0.089621 804.376 3.14516 799.793 Q6.22385 795.186 12.034 795.186 Z" fill="#000000" fill-rule="evenodd" fill-opacity="1" /><path clip-path="url(#clip420)" d="M 0 0 M39.0477 798.89 Q35.4367 798.89 33.608 802.455 Q31.8024 805.997 31.8024 813.126 Q31.8024 820.233 33.608 823.797 Q35.4367 827.339 39.0477 827.339 Q42.682 827.339 44.4875 823.797 Q46.3162 820.233 46.3162 813.126 Q46.3162 805.997 44.4875 802.455 Q42.682 798.89 39.0477 798.89 M39.0477 795.186 Q44.8579 795.186 47.9134 799.793 Q50.9921 804.376 50.9921 813.126 Q50.9921 821.853 47.9134 826.459 Q44.8579 831.043 39.0477 831.043 Q33.2376 831.043 30.1589 826.459 Q27.1034 821.853 27.1034 813.126 Q27.1034 804.376 30.1589 799.793 Q33.2376 795.186 39.0477 795.186 Z" fill="#000000" fill-rule="evenodd" fill-opacity="1" /><path clip-path="url(#clip420)" d="M 0 0 M-21.9473 464.368 L-14.3085 464.368 L-14.3085 438.002 L-22.6186 439.669 L-22.6186 435.41 L-14.3547 433.743 L-9.67885 433.743 L-9.67885 464.368 L-2.04 464.368 L-2.04 468.303 L-21.9473 468.303 L-21.9473 464.368 Z" fill="#000000" fill-rule="evenodd" fill-opacity="1" /><path clip-path="url(#clip420)" d="M 0 0 M3.07572 433.743 L21.4321 433.743 L21.4321 437.678 L7.3581 437.678 L7.3581 446.15 Q8.37661 445.803 9.39513 445.641 Q10.4136 445.456 11.4322 445.456 Q17.2192 445.456 20.5988 448.627 Q23.9784 451.798 23.9784 457.215 Q23.9784 462.794 20.5062 465.896 Q17.034 468.974 10.7146 468.974 Q8.53865 468.974 6.27014 468.604 Q4.02479 468.233 1.61739 467.493 L1.61739 462.794 Q3.70071 463.928 5.92292 464.484 Q8.14513 465.039 10.622 465.039 Q14.6266 465.039 16.9645 462.933 Q19.3025 460.826 19.3025 457.215 Q19.3025 453.604 16.9645 451.497 Q14.6266 449.391 10.622 449.391 Q8.74698 449.391 6.87199 449.808 Q5.02015 450.224 3.07572 451.104 L3.07572 433.743 Z" fill="#000000" fill-rule="evenodd" fill-opacity="1" /><path clip-path="url(#clip420)" d="M 0 0 M39.0477 436.822 Q35.4367 436.822 33.608 440.386 Q31.8024 443.928 31.8024 451.058 Q31.8024 458.164 33.608 461.729 Q35.4367 465.271 39.0477 465.271 Q42.682 465.271 44.4875 461.729 Q46.3162 458.164 46.3162 451.058 Q46.3162 443.928 44.4875 440.386 Q42.682 436.822 39.0477 436.822 M39.0477 433.118 Q44.8579 433.118 47.9134 437.724 Q50.9921 442.308 50.9921 451.058 Q50.9921 459.784 47.9134 464.391 Q44.8579 468.974 39.0477 468.974 Q33.2376 468.974 30.1589 464.391 Q27.1034 459.784 27.1034 451.058 Q27.1034 442.308 30.1589 437.724 Q33.2376 433.118 39.0477 433.118 Z" fill="#000000" fill-rule="evenodd" fill-opacity="1" /><path clip-path="url(#clip420)" d="M 0 0 M-19.3547 102.299 L-3.03536 102.299 L-3.03536 106.234 L-24.9797 106.234 L-24.9797 102.299 Q-22.3177 99.5446 -17.7344 94.915 Q-13.1279 90.2623 -11.9474 88.9197 Q-9.70199 86.3965 -8.82237 84.6604 Q-7.9196 82.9012 -7.9196 81.2114 Q-7.9196 78.4568 -9.86403 76.7207 Q-11.7853 74.9846 -14.8872 74.9846 Q-17.0862 74.9846 -19.5399 75.7484 Q-21.9704 76.5123 -24.7482 78.0632 L-24.7482 73.341 Q-21.9241 72.2068 -19.4705 71.6281 Q-17.0168 71.0494 -14.9797 71.0494 Q-9.6094 71.0494 -6.41497 73.7346 Q-3.22055 76.4197 -3.22055 80.9105 Q-3.22055 83.0401 -4.03073 84.9614 Q-4.81776 86.8595 -6.92423 89.4521 Q-7.50293 90.1234 -10.6048 93.3409 Q-13.7066 96.5354 -19.3547 102.299 Z" fill="#000000" fill-rule="evenodd" fill-opacity="1" /><path clip-path="url(#clip420)" d="M 0 0 M12.034 74.7531 Q8.42291 74.7531 6.59422 78.3179 Q4.78867 81.8595 4.78867 88.9891 Q4.78867 96.0956 6.59422 99.6604 Q8.42291 103.202 12.034 103.202 Q15.6682 103.202 17.4738 99.6604 Q19.3025 96.0956 19.3025 88.9891 Q19.3025 81.8595 17.4738 78.3179 Q15.6682 74.7531 12.034 74.7531 M12.034 71.0494 Q17.8442 71.0494 20.8997 75.6559 Q23.9784 80.2392 23.9784 88.9891 Q23.9784 97.7159 20.8997 102.322 Q17.8442 106.906 12.034 106.906 Q6.22385 106.906 3.14516 102.322 Q0.089621 97.7159 0.089621 88.9891 Q0.089621 80.2392 3.14516 75.6559 Q6.22385 71.0494 12.034 71.0494 Z" fill="#000000" fill-rule="evenodd" fill-opacity="1" /><path clip-path="url(#clip420)" d="M 0 0 M39.0477 74.7531 Q35.4367 74.7531 33.608 78.3179 Q31.8024 81.8595 31.8024 88.9891 Q31.8024 96.0956 33.608 99.6604 Q35.4367 103.202 39.0477 103.202 Q42.682 103.202 44.4875 99.6604 Q46.3162 96.0956 46.3162 88.9891 Q46.3162 81.8595 44.4875 78.3179 Q42.682 74.7531 39.0477 74.7531 M39.0477 71.0494 Q44.8579 71.0494 47.9134 75.6559 Q50.9921 80.2392 50.9921 88.9891 Q50.9921 97.7159 47.9134 102.322 Q44.8579 106.906 39.0477 106.906 Q33.2376 106.906 30.1589 102.322 Q27.1034 97.7159 27.1034 88.9891 Q27.1034 80.2392 30.1589 75.6559 Q33.2376 71.0494 39.0477 71.0494 Z" fill="#000000" fill-rule="evenodd" fill-opacity="1" /><polyline clip-path="url(#clip422)" style="stroke:#009af9; stroke-width:4; stroke-opacity:1; fill:none" points="
  151.118,1399.64 173.383,1334.47 195.649,1457.57 217.915,1406.88 240.181,1081.02 262.446,1348.95 284.712,1428.61 306.978,1414.13 329.244,1435.85 351.509,1457.57 
  373.775,1450.33 396.041,1348.95 418.307,1341.71 440.572,1341.71 462.838,1421.37 485.104,1370.68 507.37,1450.33 529.635,1428.61 551.901,1254.82 574.167,1479.3 
  596.433,1356.19 618.698,1472.06 640.964,1399.64 663.23,1319.99 685.496,1377.92 707.762,1399.64 730.027,1435.85 752.293,1283.78 774.559,1392.4 796.825,1450.33 
  819.09,1406.88 841.356,1377.92 863.622,1327.23 885.888,1435.85 908.153,1348.95 930.419,1421.37 952.685,1189.64 974.951,1421.37 997.216,1377.92 1019.48,1327.23 
  1041.75,1334.47 1064.01,1385.16 1086.28,1269.3 1108.55,1356.19 1130.81,1334.47 1153.08,762.402 1175.34,371.368 1197.61,1030.33 1219.87,1081.02 1242.14,689.988 
  1264.41,1276.54 1286.67,632.057 1308.94,718.954 1331.2,675.505 1353.47,871.022 1375.73,878.264 1398,856.54 1420.27,88.9544 1442.53,704.471 1464.8,487.23 
  1487.06,523.437 1509.33,385.851 1531.59,378.609 1553.86,248.265 1576.13,313.437 1598.39,88.9544 1620.66,88.9544 1642.92,190.334 1665.19,88.9544 1687.45,88.9544 
  1709.72,88.9544 1731.99,88.9544 1754.25,88.9544 1776.52,88.9544 1798.78,88.9544 1821.05,88.9544 1843.32,88.9544 1865.58,88.9544 1887.85,88.9544 1910.11,88.9544 
  1932.38,88.9544 1954.64,88.9544 1976.91,88.9544 1999.18,88.9544 2021.44,88.9544 2043.71,88.9544 2065.97,88.9544 2088.24,88.9544 2110.5,88.9544 2132.77,88.9544 
  2155.04,88.9544 2177.3,88.9544 2199.57,88.9544 2221.83,88.9544 2244.1,88.9544 2266.36,88.9544 2288.63,88.9544 
  "/>
<path clip-path="url(#clip420)" d="
M1974.46 217.33 L2277.23 217.33 L2277.23 96.3696 L1974.46 96.3696  Z
  " fill="#ffffff" fill-rule="evenodd" fill-opacity="1"/>
<polyline clip-path="url(#clip420)" style="stroke:#000000; stroke-width:4; stroke-opacity:1; fill:none" points="
  1974.46,217.33 2277.23,217.33 2277.23,96.3696 1974.46,96.3696 1974.46,217.33 
  "/>
<polyline clip-path="url(#clip420)" style="stroke:#009af9; stroke-width:4; stroke-opacity:1; fill:none" points="
  1999.64,156.85 2150.69,156.85 
  "/>
<path clip-path="url(#clip420)" d="M 0 0 M2189.7 176.537 Q2187.9 181.167 2186.19 182.579 Q2184.47 183.991 2181.6 183.991 L2178.2 183.991 L2178.2 180.426 L2180.7 180.426 Q2182.46 180.426 2183.43 179.592 Q2184.4 178.759 2185.58 175.657 L2186.35 173.713 L2175.86 148.204 L2180.38 148.204 L2188.48 168.481 L2196.58 148.204 L2201.09 148.204 L2189.7 176.537 Z" fill="#000000" fill-rule="evenodd" fill-opacity="1" /><path clip-path="url(#clip420)" d="M 0 0 M2206.97 170.194 L2214.61 170.194 L2214.61 143.829 L2206.3 145.495 L2206.3 141.236 L2214.57 139.57 L2219.24 139.57 L2219.24 170.194 L2226.88 170.194 L2226.88 174.13 L2206.97 174.13 L2206.97 170.194 Z" fill="#000000" fill-rule="evenodd" fill-opacity="1" /></svg>
