<?xml version="1.0" encoding="utf-8"?>
<svg xmlns="http://www.w3.org/2000/svg" xmlns:xlink="http://www.w3.org/1999/xlink" width="600" height="400" viewBox="0 0 2400 1600">
<defs>
  <clipPath id="clip390">
    <rect x="0" y="0" width="2400" height="1600"/>
  </clipPath>
</defs>
<path clip-path="url(#clip390)" d="
M0 1600 L2400 1600 L2400 0 L0 0  Z
  " fill="#ffffff" fill-rule="evenodd" fill-opacity="1"/>
<defs>
  <clipPath id="clip391">
    <rect x="480" y="0" width="1681" height="1600"/>
  </clipPath>
</defs>
<path clip-path="url(#clip390)" d="
M86.9921 1521.01 L2352.76 1521.01 L2352.76 47.2441 L86.9921 47.2441  Z
  " fill="#ffffff" fill-rule="evenodd" fill-opacity="1"/>
<defs>
  <clipPath id="clip392">
    <rect x="86" y="47" width="2267" height="1475"/>
  </clipPath>
</defs>
<polyline clip-path="url(#clip392)" style="stroke:#000000; stroke-width:2; stroke-opacity:0.1; fill:none" points="
  129.081,1521.01 129.081,47.2441 
  "/>
<polyline clip-path="url(#clip392)" style="stroke:#000000; stroke-width:2; stroke-opacity:0.1; fill:none" points="
  679.987,1521.01 679.987,47.2441 
  "/>
<polyline clip-path="url(#clip392)" style="stroke:#000000; stroke-width:2; stroke-opacity:0.1; fill:none" points="
  1230.89,1521.01 1230.89,47.2441 
  "/>
<polyline clip-path="url(#clip392)" style="stroke:#000000; stroke-width:2; stroke-opacity:0.1; fill:none" points="
  1781.8,1521.01 1781.8,47.2441 
  "/>
<polyline clip-path="url(#clip392)" style="stroke:#000000; stroke-width:2; stroke-opacity:0.1; fill:none" points="
  2332.7,1521.01 2332.7,47.2441 
  "/>
<polyline clip-path="url(#clip390)" style="stroke:#000000; stroke-width:4; stroke-opacity:1; fill:none" points="
  86.9921,1521.01 2352.76,1521.01 
  "/>
<polyline clip-path="url(#clip390)" style="stroke:#000000; stroke-width:4; stroke-opacity:1; fill:none" points="
  129.081,1521.01 129.081,1503.32 
  "/>
<polyline clip-path="url(#clip390)" style="stroke:#000000; stroke-width:4; stroke-opacity:1; fill:none" points="
  679.987,1521.01 679.987,1503.32 
  "/>
<polyline clip-path="url(#clip390)" style="stroke:#000000; stroke-width:4; stroke-opacity:1; fill:none" points="
  1230.89,1521.01 1230.89,1503.32 
  "/>
<polyline clip-path="url(#clip390)" style="stroke:#000000; stroke-width:4; stroke-opacity:1; fill:none" points="
  1781.8,1521.01 1781.8,1503.32 
  "/>
<polyline clip-path="url(#clip390)" style="stroke:#000000; stroke-width:4; stroke-opacity:1; fill:none" points="
  2332.7,1521.01 2332.7,1503.32 
  "/>
<path clip-path="url(#clip390)" d="M 0 0 M129.081 1550.2 Q125.47 1550.2 123.642 1553.76 Q121.836 1557.31 121.836 1564.43 Q121.836 1571.54 123.642 1575.11 Q125.47 1578.65 129.081 1578.65 Q132.716 1578.65 134.521 1575.11 Q136.35 1571.54 136.35 1564.43 Q136.35 1557.31 134.521 1553.76 Q132.716 1550.2 129.081 1550.2 M129.081 1546.49 Q134.891 1546.49 137.947 1551.1 Q141.026 1555.68 141.026 1564.43 Q141.026 1573.16 137.947 1577.77 Q134.891 1582.35 129.081 1582.35 Q123.271 1582.35 120.192 1577.77 Q117.137 1573.16 117.137 1564.43 Q117.137 1555.68 120.192 1551.1 Q123.271 1546.49 129.081 1546.49 Z" fill="#000000" fill-rule="evenodd" fill-opacity="1" /><path clip-path="url(#clip390)" d="M 0 0 M661.63 1577.74 L677.95 1577.74 L677.95 1581.68 L656.005 1581.68 L656.005 1577.74 Q658.667 1574.99 663.251 1570.36 Q667.857 1565.71 669.038 1564.37 Q671.283 1561.84 672.163 1560.11 Q673.065 1558.35 673.065 1556.66 Q673.065 1553.9 671.121 1552.17 Q669.2 1550.43 666.098 1550.43 Q663.899 1550.43 661.445 1551.19 Q659.015 1551.96 656.237 1553.51 L656.237 1548.79 Q659.061 1547.65 661.515 1547.07 Q663.968 1546.49 666.005 1546.49 Q671.376 1546.49 674.57 1549.18 Q677.765 1551.87 677.765 1556.36 Q677.765 1558.49 676.954 1560.41 Q676.167 1562.3 674.061 1564.9 Q673.482 1565.57 670.38 1568.79 Q667.278 1571.98 661.63 1577.74 Z" fill="#000000" fill-rule="evenodd" fill-opacity="1" /><path clip-path="url(#clip390)" d="M 0 0 M683.065 1547.12 L701.422 1547.12 L701.422 1551.06 L687.348 1551.06 L687.348 1559.53 Q688.366 1559.18 689.385 1559.02 Q690.403 1558.83 691.422 1558.83 Q697.209 1558.83 700.588 1562 Q703.968 1565.18 703.968 1570.59 Q703.968 1576.17 700.496 1579.27 Q697.024 1582.35 690.704 1582.35 Q688.528 1582.35 686.26 1581.98 Q684.014 1581.61 681.607 1580.87 L681.607 1576.17 Q683.69 1577.3 685.913 1577.86 Q688.135 1578.42 690.612 1578.42 Q694.616 1578.42 696.954 1576.31 Q699.292 1574.2 699.292 1570.59 Q699.292 1566.98 696.954 1564.87 Q694.616 1562.77 690.612 1562.77 Q688.737 1562.77 686.862 1563.18 Q685.01 1563.6 683.065 1564.48 L683.065 1547.12 Z" fill="#000000" fill-rule="evenodd" fill-opacity="1" /><path clip-path="url(#clip390)" d="M 0 0 M1207.66 1547.12 L1226.02 1547.12 L1226.02 1551.06 L1211.95 1551.06 L1211.95 1559.53 Q1212.96 1559.18 1213.98 1559.02 Q1215 1558.83 1216.02 1558.83 Q1221.81 1558.83 1225.19 1562 Q1228.57 1565.18 1228.57 1570.59 Q1228.57 1576.17 1225.09 1579.27 Q1221.62 1582.35 1215.3 1582.35 Q1213.13 1582.35 1210.86 1581.98 Q1208.61 1581.61 1206.2 1580.87 L1206.2 1576.17 Q1208.29 1577.3 1210.51 1577.86 Q1212.73 1578.42 1215.21 1578.42 Q1219.21 1578.42 1221.55 1576.31 Q1223.89 1574.2 1223.89 1570.59 Q1223.89 1566.98 1221.55 1564.87 Q1219.21 1562.77 1215.21 1562.77 Q1213.33 1562.77 1211.46 1563.18 Q1209.61 1563.6 1207.66 1564.48 L1207.66 1547.12 Z" fill="#000000" fill-rule="evenodd" fill-opacity="1" /><path clip-path="url(#clip390)" d="M 0 0 M1243.64 1550.2 Q1240.02 1550.2 1238.2 1553.76 Q1236.39 1557.31 1236.39 1564.43 Q1236.39 1571.54 1238.2 1575.11 Q1240.02 1578.65 1243.64 1578.65 Q1247.27 1578.65 1249.07 1575.11 Q1250.9 1571.54 1250.9 1564.43 Q1250.9 1557.31 1249.07 1553.76 Q1247.27 1550.2 1243.64 1550.2 M1243.64 1546.49 Q1249.45 1546.49 1252.5 1551.1 Q1255.58 1555.68 1255.58 1564.43 Q1255.58 1573.16 1252.5 1577.77 Q1249.45 1582.35 1243.64 1582.35 Q1237.82 1582.35 1234.75 1577.77 Q1231.69 1573.16 1231.69 1564.43 Q1231.69 1555.68 1234.75 1551.1 Q1237.82 1546.49 1243.64 1546.49 Z" fill="#000000" fill-rule="evenodd" fill-opacity="1" /><path clip-path="url(#clip390)" d="M 0 0 M1757.68 1547.12 L1779.9 1547.12 L1779.9 1549.11 L1767.35 1581.68 L1762.47 1581.68 L1774.27 1551.06 L1757.68 1551.06 L1757.68 1547.12 Z" fill="#000000" fill-rule="evenodd" fill-opacity="1" /><path clip-path="url(#clip390)" d="M 0 0 M1785.02 1547.12 L1803.37 1547.12 L1803.37 1551.06 L1789.3 1551.06 L1789.3 1559.53 Q1790.32 1559.18 1791.33 1559.02 Q1792.35 1558.83 1793.37 1558.83 Q1799.16 1558.83 1802.54 1562 Q1805.92 1565.18 1805.92 1570.59 Q1805.92 1576.17 1802.45 1579.27 Q1798.97 1582.35 1792.65 1582.35 Q1790.48 1582.35 1788.21 1581.98 Q1785.96 1581.61 1783.56 1580.87 L1783.56 1576.17 Q1785.64 1577.3 1787.86 1577.86 Q1790.08 1578.42 1792.56 1578.42 Q1796.57 1578.42 1798.9 1576.31 Q1801.24 1574.2 1801.24 1570.59 Q1801.24 1566.98 1798.9 1564.87 Q1796.57 1562.77 1792.56 1562.77 Q1790.69 1562.77 1788.81 1563.18 Q1786.96 1563.6 1785.02 1564.48 L1785.02 1547.12 Z" fill="#000000" fill-rule="evenodd" fill-opacity="1" /><path clip-path="url(#clip390)" d="M 0 0 M2296.07 1577.74 L2303.71 1577.74 L2303.71 1551.38 L2295.4 1553.05 L2295.4 1548.79 L2303.66 1547.12 L2308.34 1547.12 L2308.34 1577.74 L2315.98 1577.74 L2315.98 1581.68 L2296.07 1581.68 L2296.07 1577.74 Z" fill="#000000" fill-rule="evenodd" fill-opacity="1" /><path clip-path="url(#clip390)" d="M 0 0 M2331.05 1550.2 Q2327.44 1550.2 2325.61 1553.76 Q2323.8 1557.31 2323.8 1564.43 Q2323.8 1571.54 2325.61 1575.11 Q2327.44 1578.65 2331.05 1578.65 Q2334.68 1578.65 2336.49 1575.11 Q2338.32 1571.54 2338.32 1564.43 Q2338.32 1557.31 2336.49 1553.76 Q2334.68 1550.2 2331.05 1550.2 M2331.05 1546.49 Q2336.86 1546.49 2339.91 1551.1 Q2342.99 1555.68 2342.99 1564.43 Q2342.99 1573.16 2339.91 1577.77 Q2336.86 1582.35 2331.05 1582.35 Q2325.24 1582.35 2322.16 1577.77 Q2319.1 1573.16 2319.1 1564.43 Q2319.1 1555.68 2322.16 1551.1 Q2325.24 1546.49 2331.05 1546.49 Z" fill="#000000" fill-rule="evenodd" fill-opacity="1" /><path clip-path="url(#clip390)" d="M 0 0 M2358.06 1550.2 Q2354.45 1550.2 2352.62 1553.76 Q2350.82 1557.31 2350.82 1564.43 Q2350.82 1571.54 2352.62 1575.11 Q2354.45 1578.65 2358.06 1578.65 Q2361.7 1578.65 2363.5 1575.11 Q2365.33 1571.54 2365.33 1564.43 Q2365.33 1557.31 2363.5 1553.76 Q2361.7 1550.2 2358.06 1550.2 M2358.06 1546.49 Q2363.87 1546.49 2366.93 1551.1 Q2370.01 1555.68 2370.01 1564.43 Q2370.01 1573.16 2366.93 1577.77 Q2363.87 1582.35 2358.06 1582.35 Q2352.25 1582.35 2349.17 1577.77 Q2346.12 1573.16 2346.12 1564.43 Q2346.12 1555.68 2349.17 1551.1 Q2352.25 1546.49 2358.06 1546.49 Z" fill="#000000" fill-rule="evenodd" fill-opacity="1" /><polyline clip-path="url(#clip392)" style="stroke:#000000; stroke-width:2; stroke-opacity:0.1; fill:none" points="
  86.9921,1175.16 2352.76,1175.16 
  "/>
<polyline clip-path="url(#clip392)" style="stroke:#000000; stroke-width:2; stroke-opacity:0.1; fill:none" points="
  86.9921,813.091 2352.76,813.091 
  "/>
<polyline clip-path="url(#clip392)" style="stroke:#000000; stroke-width:2; stroke-opacity:0.1; fill:none" points="
  86.9921,451.023 2352.76,451.023 
  "/>
<polyline clip-path="url(#clip392)" style="stroke:#000000; stroke-width:2; stroke-opacity:0.1; fill:none" points="
  86.9921,88.9544 2352.76,88.9544 
  "/>
<polyline clip-path="url(#clip390)" style="stroke:#000000; stroke-width:4; stroke-opacity:1; fill:none" points="
  86.9921,1521.01 86.9921,47.2441 
  "/>
<polyline clip-path="url(#clip390)" style="stroke:#000000; stroke-width:4; stroke-opacity:1; fill:none" points="
  86.9921,1175.16 114.181,1175.16 
  "/>
<polyline clip-path="url(#clip390)" style="stroke:#000000; stroke-width:4; stroke-opacity:1; fill:none" points="
  86.9921,813.091 114.181,813.091 
  "/>
<polyline clip-path="url(#clip390)" style="stroke:#000000; stroke-width:4; stroke-opacity:1; fill:none" points="
  86.9921,451.023 114.181,451.023 
  "/>
<polyline clip-path="url(#clip390)" style="stroke:#000000; stroke-width:4; stroke-opacity:1; fill:none" points="
  86.9921,88.9544 114.181,88.9544 
  "/>
<path clip-path="url(#clip390)" d="M 0 0 M3.07572 1157.88 L21.4321 1157.88 L21.4321 1161.82 L7.3581 1161.82 L7.3581 1170.29 Q8.37661 1169.94 9.39513 1169.78 Q10.4136 1169.59 11.4322 1169.59 Q17.2192 1169.59 20.5988 1172.76 Q23.9784 1175.94 23.9784 1181.35 Q23.9784 1186.93 20.5062 1190.03 Q17.034 1193.11 10.7146 1193.11 Q8.53865 1193.11 6.27014 1192.74 Q4.02479 1192.37 1.61739 1191.63 L1.61739 1186.93 Q3.70071 1188.07 5.92292 1188.62 Q8.14513 1189.18 10.622 1189.18 Q14.6266 1189.18 16.9645 1187.07 Q19.3025 1184.96 19.3025 1181.35 Q19.3025 1177.74 16.9645 1175.63 Q14.6266 1173.53 10.622 1173.53 Q8.74698 1173.53 6.87199 1173.94 Q5.02015 1174.36 3.07572 1175.24 L3.07572 1157.88 Z" fill="#000000" fill-rule="evenodd" fill-opacity="1" /><path clip-path="url(#clip390)" d="M 0 0 M39.0477 1160.96 Q35.4367 1160.96 33.608 1164.52 Q31.8024 1168.07 31.8024 1175.19 Q31.8024 1182.3 33.608 1185.87 Q35.4367 1189.41 39.0477 1189.41 Q42.682 1189.41 44.4875 1185.87 Q46.3162 1182.3 46.3162 1175.19 Q46.3162 1168.07 44.4875 1164.52 Q42.682 1160.96 39.0477 1160.96 M39.0477 1157.26 Q44.8579 1157.26 47.9134 1161.86 Q50.9921 1166.44 50.9921 1175.19 Q50.9921 1183.92 47.9134 1188.53 Q44.8579 1193.11 39.0477 1193.11 Q33.2376 1193.11 30.1589 1188.53 Q27.1034 1183.92 27.1034 1175.19 Q27.1034 1166.44 30.1589 1161.86 Q33.2376 1157.26 39.0477 1157.26 Z" fill="#000000" fill-rule="evenodd" fill-opacity="1" /><path clip-path="url(#clip390)" d="M 0 0 M-22.9427 826.436 L-15.3038 826.436 L-15.3038 800.071 L-23.614 801.737 L-23.614 797.478 L-15.3501 795.811 L-10.6742 795.811 L-10.6742 826.436 L-3.03536 826.436 L-3.03536 830.371 L-22.9427 830.371 L-22.9427 826.436 Z" fill="#000000" fill-rule="evenodd" fill-opacity="1" /><path clip-path="url(#clip390)" d="M 0 0 M12.034 798.89 Q8.42291 798.89 6.59422 802.455 Q4.78867 805.997 4.78867 813.126 Q4.78867 820.233 6.59422 823.797 Q8.42291 827.339 12.034 827.339 Q15.6682 827.339 17.4738 823.797 Q19.3025 820.233 19.3025 813.126 Q19.3025 805.997 17.4738 802.455 Q15.6682 798.89 12.034 798.89 M12.034 795.186 Q17.8442 795.186 20.8997 799.793 Q23.9784 804.376 23.9784 813.126 Q23.9784 821.853 20.8997 826.459 Q17.8442 831.043 12.034 831.043 Q6.22385 831.043 3.14516 826.459 Q0.089621 821.853 0.089621 813.126 Q0.089621 804.376 3.14516 799.793 Q6.22385 795.186 12.034 795.186 Z" fill="#000000" fill-rule="evenodd" fill-opacity="1" /><path clip-path="url(#clip390)" d="M 0 0 M39.0477 798.89 Q35.4367 798.89 33.608 802.455 Q31.8024 805.997 31.8024 813.126 Q31.8024 820.233 33.608 823.797 Q35.4367 827.339 39.0477 827.339 Q42.682 827.339 44.4875 823.797 Q46.3162 820.233 46.3162 813.126 Q46.3162 805.997 44.4875 802.455 Q42.682 798.89 39.0477 798.89 M39.0477 795.186 Q44.8579 795.186 47.9134 799.793 Q50.9921 804.376 50.9921 813.126 Q50.9921 821.853 47.9134 826.459 Q44.8579 831.043 39.0477 831.043 Q33.2376 831.043 30.1589 826.459 Q27.1034 821.853 27.1034 813.126 Q27.1034 804.376 30.1589 799.793 Q33.2376 795.186 39.0477 795.186 Z" fill="#000000" fill-rule="evenodd" fill-opacity="1" /><path clip-path="url(#clip390)" d="M 0 0 M-21.9473 464.368 L-14.3085 464.368 L-14.3085 438.002 L-22.6186 439.669 L-22.6186 435.41 L-14.3547 433.743 L-9.67885 433.743 L-9.67885 464.368 L-2.04 464.368 L-2.04 468.303 L-21.9473 468.303 L-21.9473 464.368 Z" fill="#000000" fill-rule="evenodd" fill-opacity="1" /><path clip-path="url(#clip390)" d="M 0 0 M3.07572 433.743 L21.4321 433.743 L21.4321 437.678 L7.3581 437.678 L7.3581 446.15 Q8.37661 445.803 9.39513 445.641 Q10.4136 445.456 11.4322 445.456 Q17.2192 445.456 20.5988 448.627 Q23.9784 451.798 23.9784 457.215 Q23.9784 462.794 20.5062 465.896 Q17.034 468.974 10.7146 468.974 Q8.53865 468.974 6.27014 468.604 Q4.02479 468.233 1.61739 467.493 L1.61739 462.794 Q3.70071 463.928 5.92292 464.484 Q8.14513 465.039 10.622 465.039 Q14.6266 465.039 16.9645 462.933 Q19.3025 460.826 19.3025 457.215 Q19.3025 453.604 16.9645 451.497 Q14.6266 449.391 10.622 449.391 Q8.74698 449.391 6.87199 449.808 Q5.02015 450.224 3.07572 451.104 L3.07572 433.743 Z" fill="#000000" fill-rule="evenodd" fill-opacity="1" /><path clip-path="url(#clip390)" d="M 0 0 M39.0477 436.822 Q35.4367 436.822 33.608 440.386 Q31.8024 443.928 31.8024 451.058 Q31.8024 458.164 33.608 461.729 Q35.4367 465.271 39.0477 465.271 Q42.682 465.271 44.4875 461.729 Q46.3162 458.164 46.3162 451.058 Q46.3162 443.928 44.4875 440.386 Q42.682 436.822 39.0477 436.822 M39.0477 433.118 Q44.8579 433.118 47.9134 437.724 Q50.9921 442.308 50.9921 451.058 Q50.9921 459.784 47.9134 464.391 Q44.8579 468.974 39.0477 468.974 Q33.2376 468.974 30.1589 464.391 Q27.1034 459.784 27.1034 451.058 Q27.1034 442.308 30.1589 437.724 Q33.2376 433.118 39.0477 433.118 Z" fill="#000000" fill-rule="evenodd" fill-opacity="1" /><path clip-path="url(#clip390)" d="M 0 0 M-19.3547 102.299 L-3.03536 102.299 L-3.03536 106.234 L-24.9797 106.234 L-24.9797 102.299 Q-22.3177 99.5446 -17.7344 94.915 Q-13.1279 90.2623 -11.9474 88.9197 Q-9.70199 86.3965 -8.82237 84.6604 Q-7.9196 82.9012 -7.9196 81.2114 Q-7.9196 78.4568 -9.86403 76.7207 Q-11.7853 74.9846 -14.8872 74.9846 Q-17.0862 74.9846 -19.5399 75.7484 Q-21.9704 76.5123 -24.7482 78.0632 L-24.7482 73.341 Q-21.9241 72.2068 -19.4705 71.6281 Q-17.0168 71.0494 -14.9797 71.0494 Q-9.6094 71.0494 -6.41497 73.7346 Q-3.22055 76.4197 -3.22055 80.9105 Q-3.22055 83.0401 -4.03073 84.9614 Q-4.81776 86.8595 -6.92423 89.4521 Q-7.50293 90.1234 -10.6048 93.3409 Q-13.7066 96.5354 -19.3547 102.299 Z" fill="#000000" fill-rule="evenodd" fill-opacity="1" /><path clip-path="url(#clip390)" d="M 0 0 M12.034 74.7531 Q8.42291 74.7531 6.59422 78.3179 Q4.78867 81.8595 4.78867 88.9891 Q4.78867 96.0956 6.59422 99.6604 Q8.42291 103.202 12.034 103.202 Q15.6682 103.202 17.4738 99.6604 Q19.3025 96.0956 19.3025 88.9891 Q19.3025 81.8595 17.4738 78.3179 Q15.6682 74.7531 12.034 74.7531 M12.034 71.0494 Q17.8442 71.0494 20.8997 75.6559 Q23.9784 80.2392 23.9784 88.9891 Q23.9784 97.7159 20.8997 102.322 Q17.8442 106.906 12.034 106.906 Q6.22385 106.906 3.14516 102.322 Q0.089621 97.7159 0.089621 88.9891 Q0.089621 80.2392 3.14516 75.6559 Q6.22385 71.0494 12.034 71.0494 Z" fill="#000000" fill-rule="evenodd" fill-opacity="1" /><path clip-path="url(#clip390)" d="M 0 0 M39.0477 74.7531 Q35.4367 74.7531 33.608 78.3179 Q31.8024 81.8595 31.8024 88.9891 Q31.8024 96.0956 33.608 99.6604 Q35.4367 103.202 39.0477 103.202 Q42.682 103.202 44.4875 99.6604 Q46.3162 96.0956 46.3162 88.9891 Q46.3162 81.8595 44.4875 78.3179 Q42.682 74.7531 39.0477 74.7531 M39.0477 71.0494 Q44.8579 71.0494 47.9134 75.6559 Q50.9921 80.2392 50.9921 88.9891 Q50.9921 97.7159 47.9134 102.322 Q44.8579 106.906 39.0477 106.906 Q33.2376 106.906 30.1589 102.322 Q27.1034 97.7159 27.1034 88.9891 Q27.1034 80.2392 30.1589 75.6559 Q33.2376 71.0494 39.0477 71.0494 Z" fill="#000000" fill-rule="evenodd" fill-opacity="1" /><polyline clip-path="url(#clip392)" style="stroke:#009af9; stroke-width:4; stroke-opacity:1; fill:none" points="
  151.118,1399.64 173.154,1334.47 195.19,1457.57 217.226,1406.88 239.262,1081.02 261.299,1348.95 283.335,1428.61 305.371,1414.13 327.407,1435.85 349.443,1457.57 
  371.48,1450.33 393.516,1348.95 415.552,1341.71 437.588,1341.71 459.625,1421.37 481.661,1370.68 503.697,1450.33 525.733,1428.61 547.769,1254.82 569.806,1479.3 
  591.842,1356.19 613.878,1472.06 635.914,1399.64 657.95,1319.99 679.987,1377.92 702.023,1399.64 724.059,1435.85 746.095,1283.78 768.132,1392.4 790.168,1450.33 
  812.204,1406.88 834.24,1377.92 856.276,1327.23 878.313,1435.85 900.349,1348.95 922.385,1421.37 944.421,1189.64 966.458,1421.37 988.494,1377.92 1010.53,1327.23 
  1032.57,1334.47 1054.6,1385.16 1076.64,1269.3 1098.67,1356.19 1120.71,1334.47 1142.75,762.402 1164.78,371.368 1186.82,1030.33 1208.86,1081.02 1230.89,1160.68 
  1252.93,1081.02 1274.96,284.471 1297,624.816 1319.04,755.161 1341.07,936.195 1363.11,414.816 1385.15,820.333 1407.18,986.884 1429.22,617.574 1451.25,907.229 
  1473.29,1348.95 1495.33,183.092 1517.36,88.9544 1539.4,88.9544 1561.44,603.092 1583.47,88.9544 1605.51,204.816 1627.54,190.334 1649.58,88.9544 1671.62,88.9544 
  1693.65,88.9544 1715.69,88.9544 1737.73,88.9544 1759.76,88.9544 1781.8,88.9544 1803.83,175.851 1825.87,88.9544 1847.91,88.9544 1869.94,88.9544 1891.98,88.9544 
  1914.01,88.9544 1936.05,88.9544 1958.09,88.9544 1980.12,88.9544 2002.16,88.9544 2024.2,88.9544 2046.23,88.9544 2068.27,88.9544 2090.3,88.9544 2112.34,88.9544 
  2134.38,88.9544 2156.41,88.9544 2178.45,1088.26 2200.49,88.9544 2222.52,88.9544 2244.56,88.9544 2266.59,88.9544 2288.63,88.9544 
  "/>
<path clip-path="url(#clip390)" d="
M1974.46 217.33 L2277.23 217.33 L2277.23 96.3696 L1974.46 96.3696  Z
  " fill="#ffffff" fill-rule="evenodd" fill-opacity="1"/>
<polyline clip-path="url(#clip390)" style="stroke:#000000; stroke-width:4; stroke-opacity:1; fill:none" points="
  1974.46,217.33 2277.23,217.33 2277.23,96.3696 1974.46,96.3696 1974.46,217.33 
  "/>
<polyline clip-path="url(#clip390)" style="stroke:#009af9; stroke-width:4; stroke-opacity:1; fill:none" points="
  1999.64,156.85 2150.69,156.85 
  "/>
<path clip-path="url(#clip390)" d="M 0 0 M2189.7 176.537 Q2187.9 181.167 2186.19 182.579 Q2184.47 183.991 2181.6 183.991 L2178.2 183.991 L2178.2 180.426 L2180.7 180.426 Q2182.46 180.426 2183.43 179.592 Q2184.4 178.759 2185.58 175.657 L2186.35 173.713 L2175.86 148.204 L2180.38 148.204 L2188.48 168.481 L2196.58 148.204 L2201.09 148.204 L2189.7 176.537 Z" fill="#000000" fill-rule="evenodd" fill-opacity="1" /><path clip-path="url(#clip390)" d="M 0 0 M2206.97 170.194 L2214.61 170.194 L2214.61 143.829 L2206.3 145.495 L2206.3 141.236 L2214.57 139.57 L2219.24 139.57 L2219.24 170.194 L2226.88 170.194 L2226.88 174.13 L2206.97 174.13 L2206.97 170.194 Z" fill="#000000" fill-rule="evenodd" fill-opacity="1" /></svg>
