<?xml version="1.0" encoding="utf-8"?>
<svg xmlns="http://www.w3.org/2000/svg" xmlns:xlink="http://www.w3.org/1999/xlink" width="600" height="400" viewBox="0 0 2400 1600">
<defs>
  <clipPath id="clip790">
    <rect x="0" y="0" width="2400" height="1600"/>
  </clipPath>
</defs>
<path clip-path="url(#clip790)" d="
M0 1600 L2400 1600 L2400 0 L0 0  Z
  " fill="#ffffff" fill-rule="evenodd" fill-opacity="1"/>
<defs>
  <clipPath id="clip791">
    <rect x="480" y="0" width="1681" height="1600"/>
  </clipPath>
</defs>
<path clip-path="url(#clip790)" d="
M86.9921 1521.01 L2352.76 1521.01 L2352.76 47.2441 L86.9921 47.2441  Z
  " fill="#ffffff" fill-rule="evenodd" fill-opacity="1"/>
<defs>
  <clipPath id="clip792">
    <rect x="86" y="47" width="2267" height="1475"/>
  </clipPath>
</defs>
<polyline clip-path="url(#clip792)" style="stroke:#000000; stroke-width:2; stroke-opacity:0.1; fill:none" points="
  127.101,1521.01 127.101,47.2441 
  "/>
<polyline clip-path="url(#clip792)" style="stroke:#000000; stroke-width:2; stroke-opacity:0.1; fill:none" points="
  607.441,1521.01 607.441,47.2441 
  "/>
<polyline clip-path="url(#clip792)" style="stroke:#000000; stroke-width:2; stroke-opacity:0.1; fill:none" points="
  1087.78,1521.01 1087.78,47.2441 
  "/>
<polyline clip-path="url(#clip792)" style="stroke:#000000; stroke-width:2; stroke-opacity:0.1; fill:none" points="
  1568.12,1521.01 1568.12,47.2441 
  "/>
<polyline clip-path="url(#clip792)" style="stroke:#000000; stroke-width:2; stroke-opacity:0.1; fill:none" points="
  2048.46,1521.01 2048.46,47.2441 
  "/>
<polyline clip-path="url(#clip792)" style="stroke:#000000; stroke-width:2; stroke-opacity:0.1; fill:none" points="
  86.9921,1175.16 2352.76,1175.16 
  "/>
<polyline clip-path="url(#clip792)" style="stroke:#000000; stroke-width:2; stroke-opacity:0.1; fill:none" points="
  86.9921,813.091 2352.76,813.091 
  "/>
<polyline clip-path="url(#clip792)" style="stroke:#000000; stroke-width:2; stroke-opacity:0.1; fill:none" points="
  86.9921,451.023 2352.76,451.023 
  "/>
<polyline clip-path="url(#clip792)" style="stroke:#000000; stroke-width:2; stroke-opacity:0.1; fill:none" points="
  86.9921,88.9544 2352.76,88.9544 
  "/>
<polyline clip-path="url(#clip790)" style="stroke:#000000; stroke-width:4; stroke-opacity:1; fill:none" points="
  86.9921,1521.01 2352.76,1521.01 
  "/>
<polyline clip-path="url(#clip790)" style="stroke:#000000; stroke-width:4; stroke-opacity:1; fill:none" points="
  86.9921,1521.01 86.9921,47.2441 
  "/>
<polyline clip-path="url(#clip790)" style="stroke:#000000; stroke-width:4; stroke-opacity:1; fill:none" points="
  127.101,1521.01 127.101,1503.32 
  "/>
<polyline clip-path="url(#clip790)" style="stroke:#000000; stroke-width:4; stroke-opacity:1; fill:none" points="
  607.441,1521.01 607.441,1503.32 
  "/>
<polyline clip-path="url(#clip790)" style="stroke:#000000; stroke-width:4; stroke-opacity:1; fill:none" points="
  1087.78,1521.01 1087.78,1503.32 
  "/>
<polyline clip-path="url(#clip790)" style="stroke:#000000; stroke-width:4; stroke-opacity:1; fill:none" points="
  1568.12,1521.01 1568.12,1503.32 
  "/>
<polyline clip-path="url(#clip790)" style="stroke:#000000; stroke-width:4; stroke-opacity:1; fill:none" points="
  2048.46,1521.01 2048.46,1503.32 
  "/>
<polyline clip-path="url(#clip790)" style="stroke:#000000; stroke-width:4; stroke-opacity:1; fill:none" points="
  86.9921,1175.16 114.181,1175.16 
  "/>
<polyline clip-path="url(#clip790)" style="stroke:#000000; stroke-width:4; stroke-opacity:1; fill:none" points="
  86.9921,813.091 114.181,813.091 
  "/>
<polyline clip-path="url(#clip790)" style="stroke:#000000; stroke-width:4; stroke-opacity:1; fill:none" points="
  86.9921,451.023 114.181,451.023 
  "/>
<polyline clip-path="url(#clip790)" style="stroke:#000000; stroke-width:4; stroke-opacity:1; fill:none" points="
  86.9921,88.9544 114.181,88.9544 
  "/>
<path clip-path="url(#clip790)" d="M 0 0 M127.101 1543 Q123.489 1543 121.661 1546.56 Q119.855 1550.11 119.855 1557.23 Q119.855 1564.34 121.661 1567.91 Q123.489 1571.45 127.101 1571.45 Q130.735 1571.45 132.54 1567.91 Q134.369 1564.34 134.369 1557.23 Q134.369 1550.11 132.54 1546.56 Q130.735 1543 127.101 1543 M127.101 1539.29 Q132.911 1539.29 135.966 1543.9 Q139.045 1548.48 139.045 1557.23 Q139.045 1565.96 135.966 1570.57 Q132.911 1575.15 127.101 1575.15 Q121.29 1575.15 118.212 1570.57 Q115.156 1565.96 115.156 1557.23 Q115.156 1548.48 118.212 1543.9 Q121.29 1539.29 127.101 1539.29 Z" fill="#000000" fill-rule="evenodd" fill-opacity="1" /><path clip-path="url(#clip790)" d="M 0 0 M588.586 1570.54 L604.906 1570.54 L604.906 1574.48 L582.961 1574.48 L582.961 1570.54 Q585.624 1567.79 590.207 1563.16 Q594.813 1558.51 595.994 1557.17 Q598.239 1554.64 599.119 1552.91 Q600.022 1551.15 600.022 1549.46 Q600.022 1546.7 598.077 1544.97 Q596.156 1543.23 593.054 1543.23 Q590.855 1543.23 588.401 1543.99 Q585.971 1544.76 583.193 1546.31 L583.193 1541.59 Q586.017 1540.45 588.471 1539.87 Q590.924 1539.29 592.961 1539.29 Q598.332 1539.29 601.526 1541.98 Q604.721 1544.67 604.721 1549.16 Q604.721 1551.29 603.91 1553.21 Q603.123 1555.1 601.017 1557.7 Q600.438 1558.37 597.336 1561.59 Q594.235 1564.78 588.586 1570.54 Z" fill="#000000" fill-rule="evenodd" fill-opacity="1" /><path clip-path="url(#clip790)" d="M 0 0 M619.975 1543 Q616.364 1543 614.535 1546.56 Q612.73 1550.11 612.73 1557.23 Q612.73 1564.34 614.535 1567.91 Q616.364 1571.45 619.975 1571.45 Q623.609 1571.45 625.415 1567.91 Q627.244 1564.34 627.244 1557.23 Q627.244 1550.11 625.415 1546.56 Q623.609 1543 619.975 1543 M619.975 1539.29 Q625.785 1539.29 628.841 1543.9 Q631.92 1548.48 631.92 1557.23 Q631.92 1565.96 628.841 1570.57 Q625.785 1575.15 619.975 1575.15 Q614.165 1575.15 611.086 1570.57 Q608.031 1565.96 608.031 1557.23 Q608.031 1548.48 611.086 1543.9 Q614.165 1539.29 619.975 1539.29 Z" fill="#000000" fill-rule="evenodd" fill-opacity="1" /><path clip-path="url(#clip790)" d="M 0 0 M1077.28 1543.99 L1065.48 1562.44 L1077.28 1562.44 L1077.28 1543.99 M1076.06 1539.92 L1081.94 1539.92 L1081.94 1562.44 L1086.87 1562.44 L1086.87 1566.33 L1081.94 1566.33 L1081.94 1574.48 L1077.28 1574.48 L1077.28 1566.33 L1061.68 1566.33 L1061.68 1561.82 L1076.06 1539.92 Z" fill="#000000" fill-rule="evenodd" fill-opacity="1" /><path clip-path="url(#clip790)" d="M 0 0 M1101.94 1543 Q1098.32 1543 1096.5 1546.56 Q1094.69 1550.11 1094.69 1557.23 Q1094.69 1564.34 1096.5 1567.91 Q1098.32 1571.45 1101.94 1571.45 Q1105.57 1571.45 1107.38 1567.91 Q1109.2 1564.34 1109.2 1557.23 Q1109.2 1550.11 1107.38 1546.56 Q1105.57 1543 1101.94 1543 M1101.94 1539.29 Q1107.75 1539.29 1110.8 1543.9 Q1113.88 1548.48 1113.88 1557.23 Q1113.88 1565.96 1110.8 1570.57 Q1107.75 1575.15 1101.94 1575.15 Q1096.13 1575.15 1093.05 1570.57 Q1089.99 1565.96 1089.99 1557.23 Q1089.99 1548.48 1093.05 1543.9 Q1096.13 1539.29 1101.94 1539.29 Z" fill="#000000" fill-rule="evenodd" fill-opacity="1" /><path clip-path="url(#clip790)" d="M 0 0 M1555.02 1555.34 Q1551.87 1555.34 1550.02 1557.49 Q1548.19 1559.64 1548.19 1563.39 Q1548.19 1567.12 1550.02 1569.29 Q1551.87 1571.45 1555.02 1571.45 Q1558.17 1571.45 1560 1569.29 Q1561.85 1567.12 1561.85 1563.39 Q1561.85 1559.64 1560 1557.49 Q1558.17 1555.34 1555.02 1555.34 M1564.3 1540.68 L1564.3 1544.94 Q1562.54 1544.11 1560.74 1543.67 Q1558.95 1543.23 1557.19 1543.23 Q1552.57 1543.23 1550.11 1546.36 Q1547.68 1549.48 1547.33 1555.8 Q1548.7 1553.79 1550.76 1552.72 Q1552.82 1551.63 1555.3 1551.63 Q1560.5 1551.63 1563.51 1554.8 Q1566.55 1557.95 1566.55 1563.39 Q1566.55 1568.72 1563.4 1571.93 Q1560.25 1575.15 1555.02 1575.15 Q1549.02 1575.15 1545.85 1570.57 Q1542.68 1565.96 1542.68 1557.23 Q1542.68 1549.04 1546.57 1544.18 Q1550.46 1539.29 1557.01 1539.29 Q1558.77 1539.29 1560.55 1539.64 Q1562.36 1539.99 1564.3 1540.68 Z" fill="#000000" fill-rule="evenodd" fill-opacity="1" /><path clip-path="url(#clip790)" d="M 0 0 M1581.62 1543 Q1578 1543 1576.18 1546.56 Q1574.37 1550.11 1574.37 1557.23 Q1574.37 1564.34 1576.18 1567.91 Q1578 1571.45 1581.62 1571.45 Q1585.25 1571.45 1587.06 1567.91 Q1588.88 1564.34 1588.88 1557.23 Q1588.88 1550.11 1587.06 1546.56 Q1585.25 1543 1581.62 1543 M1581.62 1539.29 Q1587.43 1539.29 1590.48 1543.9 Q1593.56 1548.48 1593.56 1557.23 Q1593.56 1565.96 1590.48 1570.57 Q1587.43 1575.15 1581.62 1575.15 Q1575.81 1575.15 1572.73 1570.57 Q1569.67 1565.96 1569.67 1557.23 Q1569.67 1548.48 1572.73 1543.9 Q1575.81 1539.29 1581.62 1539.29 Z" fill="#000000" fill-rule="evenodd" fill-opacity="1" /><path clip-path="url(#clip790)" d="M 0 0 M2034.95 1558.07 Q2031.62 1558.07 2029.7 1559.85 Q2027.8 1561.63 2027.8 1564.76 Q2027.8 1567.88 2029.7 1569.67 Q2031.62 1571.45 2034.95 1571.45 Q2038.29 1571.45 2040.21 1569.67 Q2042.13 1567.86 2042.13 1564.76 Q2042.13 1561.63 2040.21 1559.85 Q2038.31 1558.07 2034.95 1558.07 M2030.28 1556.08 Q2027.27 1555.34 2025.58 1553.28 Q2023.91 1551.22 2023.91 1548.25 Q2023.91 1544.11 2026.85 1541.7 Q2029.81 1539.29 2034.95 1539.29 Q2040.12 1539.29 2043.06 1541.7 Q2046 1544.11 2046 1548.25 Q2046 1551.22 2044.31 1553.28 Q2042.64 1555.34 2039.65 1556.08 Q2043.03 1556.86 2044.91 1559.16 Q2046.81 1561.45 2046.81 1564.76 Q2046.81 1569.78 2043.73 1572.47 Q2040.67 1575.15 2034.95 1575.15 Q2029.24 1575.15 2026.16 1572.47 Q2023.1 1569.78 2023.1 1564.76 Q2023.1 1561.45 2025 1559.16 Q2026.9 1556.86 2030.28 1556.08 M2028.56 1548.69 Q2028.56 1551.38 2030.23 1552.88 Q2031.92 1554.39 2034.95 1554.39 Q2037.96 1554.39 2039.65 1552.88 Q2041.37 1551.38 2041.37 1548.69 Q2041.37 1546.01 2039.65 1544.5 Q2037.96 1543 2034.95 1543 Q2031.92 1543 2030.23 1544.5 Q2028.56 1546.01 2028.56 1548.69 Z" fill="#000000" fill-rule="evenodd" fill-opacity="1" /><path clip-path="url(#clip790)" d="M 0 0 M2061.87 1543 Q2058.26 1543 2056.44 1546.56 Q2054.63 1550.11 2054.63 1557.23 Q2054.63 1564.34 2056.44 1567.91 Q2058.26 1571.45 2061.87 1571.45 Q2065.51 1571.45 2067.31 1567.91 Q2069.14 1564.34 2069.14 1557.23 Q2069.14 1550.11 2067.31 1546.56 Q2065.51 1543 2061.87 1543 M2061.87 1539.29 Q2067.68 1539.29 2070.74 1543.9 Q2073.82 1548.48 2073.82 1557.23 Q2073.82 1565.96 2070.74 1570.57 Q2067.68 1575.15 2061.87 1575.15 Q2056.06 1575.15 2052.99 1570.57 Q2049.93 1565.96 2049.93 1557.23 Q2049.93 1548.48 2052.99 1543.9 Q2056.06 1539.29 2061.87 1539.29 Z" fill="#000000" fill-rule="evenodd" fill-opacity="1" /><path clip-path="url(#clip790)" d="M 0 0 M15.0757 1157.88 L33.4321 1157.88 L33.4321 1161.82 L19.3581 1161.82 L19.3581 1170.29 Q20.3766 1169.94 21.3951 1169.78 Q22.4136 1169.59 23.4322 1169.59 Q29.2192 1169.59 32.5988 1172.76 Q35.9784 1175.94 35.9784 1181.35 Q35.9784 1186.93 32.5062 1190.03 Q29.034 1193.11 22.7146 1193.11 Q20.5386 1193.11 18.2701 1192.74 Q16.0248 1192.37 13.6174 1191.63 L13.6174 1186.93 Q15.7007 1188.07 17.9229 1188.62 Q20.1451 1189.18 22.622 1189.18 Q26.6266 1189.18 28.9645 1187.07 Q31.3025 1184.96 31.3025 1181.35 Q31.3025 1177.74 28.9645 1175.63 Q26.6266 1173.53 22.622 1173.53 Q20.747 1173.53 18.872 1173.94 Q17.0202 1174.36 15.0757 1175.24 L15.0757 1157.88 Z" fill="#000000" fill-rule="evenodd" fill-opacity="1" /><path clip-path="url(#clip790)" d="M 0 0 M51.0477 1160.96 Q47.4367 1160.96 45.608 1164.52 Q43.8024 1168.07 43.8024 1175.19 Q43.8024 1182.3 45.608 1185.87 Q47.4367 1189.41 51.0477 1189.41 Q54.682 1189.41 56.4875 1185.87 Q58.3162 1182.3 58.3162 1175.19 Q58.3162 1168.07 56.4875 1164.52 Q54.682 1160.96 51.0477 1160.96 M51.0477 1157.26 Q56.8579 1157.26 59.9134 1161.86 Q62.9921 1166.44 62.9921 1175.19 Q62.9921 1183.92 59.9134 1188.53 Q56.8579 1193.11 51.0477 1193.11 Q45.2376 1193.11 42.1589 1188.53 Q39.1034 1183.92 39.1034 1175.19 Q39.1034 1166.44 42.1589 1161.86 Q45.2376 1157.26 51.0477 1157.26 Z" fill="#000000" fill-rule="evenodd" fill-opacity="1" /><path clip-path="url(#clip790)" d="M 0 0 M-10.9427 826.436 L-3.30382 826.436 L-3.30382 800.071 L-11.614 801.737 L-11.614 797.478 L-3.35011 795.811 L1.32579 795.811 L1.32579 826.436 L8.96464 826.436 L8.96464 830.371 L-10.9427 830.371 L-10.9427 826.436 Z" fill="#000000" fill-rule="evenodd" fill-opacity="1" /><path clip-path="url(#clip790)" d="M 0 0 M24.034 798.89 Q20.4229 798.89 18.5942 802.455 Q16.7887 805.997 16.7887 813.126 Q16.7887 820.233 18.5942 823.797 Q20.4229 827.339 24.034 827.339 Q27.6682 827.339 29.4738 823.797 Q31.3025 820.233 31.3025 813.126 Q31.3025 805.997 29.4738 802.455 Q27.6682 798.89 24.034 798.89 M24.034 795.186 Q29.8442 795.186 32.8997 799.793 Q35.9784 804.376 35.9784 813.126 Q35.9784 821.853 32.8997 826.459 Q29.8442 831.043 24.034 831.043 Q18.2238 831.043 15.1452 826.459 Q12.0896 821.853 12.0896 813.126 Q12.0896 804.376 15.1452 799.793 Q18.2238 795.186 24.034 795.186 Z" fill="#000000" fill-rule="evenodd" fill-opacity="1" /><path clip-path="url(#clip790)" d="M 0 0 M51.0477 798.89 Q47.4367 798.89 45.608 802.455 Q43.8024 805.997 43.8024 813.126 Q43.8024 820.233 45.608 823.797 Q47.4367 827.339 51.0477 827.339 Q54.682 827.339 56.4875 823.797 Q58.3162 820.233 58.3162 813.126 Q58.3162 805.997 56.4875 802.455 Q54.682 798.89 51.0477 798.89 M51.0477 795.186 Q56.8579 795.186 59.9134 799.793 Q62.9921 804.376 62.9921 813.126 Q62.9921 821.853 59.9134 826.459 Q56.8579 831.043 51.0477 831.043 Q45.2376 831.043 42.1589 826.459 Q39.1034 821.853 39.1034 813.126 Q39.1034 804.376 42.1589 799.793 Q45.2376 795.186 51.0477 795.186 Z" fill="#000000" fill-rule="evenodd" fill-opacity="1" /><path clip-path="url(#clip790)" d="M 0 0 M-9.9473 464.368 L-2.30845 464.368 L-2.30845 438.002 L-10.6186 439.669 L-10.6186 435.41 L-2.35475 433.743 L2.32115 433.743 L2.32115 464.368 L9.96 464.368 L9.96 468.303 L-9.9473 468.303 L-9.9473 464.368 Z" fill="#000000" fill-rule="evenodd" fill-opacity="1" /><path clip-path="url(#clip790)" d="M 0 0 M15.0757 433.743 L33.4321 433.743 L33.4321 437.678 L19.3581 437.678 L19.3581 446.15 Q20.3766 445.803 21.3951 445.641 Q22.4136 445.456 23.4322 445.456 Q29.2192 445.456 32.5988 448.627 Q35.9784 451.798 35.9784 457.215 Q35.9784 462.794 32.5062 465.896 Q29.034 468.974 22.7146 468.974 Q20.5386 468.974 18.2701 468.604 Q16.0248 468.233 13.6174 467.493 L13.6174 462.794 Q15.7007 463.928 17.9229 464.484 Q20.1451 465.039 22.622 465.039 Q26.6266 465.039 28.9645 462.933 Q31.3025 460.826 31.3025 457.215 Q31.3025 453.604 28.9645 451.497 Q26.6266 449.391 22.622 449.391 Q20.747 449.391 18.872 449.808 Q17.0202 450.224 15.0757 451.104 L15.0757 433.743 Z" fill="#000000" fill-rule="evenodd" fill-opacity="1" /><path clip-path="url(#clip790)" d="M 0 0 M51.0477 436.822 Q47.4367 436.822 45.608 440.386 Q43.8024 443.928 43.8024 451.058 Q43.8024 458.164 45.608 461.729 Q47.4367 465.271 51.0477 465.271 Q54.682 465.271 56.4875 461.729 Q58.3162 458.164 58.3162 451.058 Q58.3162 443.928 56.4875 440.386 Q54.682 436.822 51.0477 436.822 M51.0477 433.118 Q56.8579 433.118 59.9134 437.724 Q62.9921 442.308 62.9921 451.058 Q62.9921 459.784 59.9134 464.391 Q56.8579 468.974 51.0477 468.974 Q45.2376 468.974 42.1589 464.391 Q39.1034 459.784 39.1034 451.058 Q39.1034 442.308 42.1589 437.724 Q45.2376 433.118 51.0477 433.118 Z" fill="#000000" fill-rule="evenodd" fill-opacity="1" /><path clip-path="url(#clip790)" d="M 0 0 M-7.35472 102.299 L8.96464 102.299 L8.96464 106.234 L-12.9797 106.234 L-12.9797 102.299 Q-10.3177 99.5446 -5.73436 94.915 Q-1.1279 90.2623 0.0526484 88.9197 Q2.29801 86.3965 3.17763 84.6604 Q4.0804 82.9012 4.0804 81.2114 Q4.0804 78.4568 2.13597 76.7207 Q0.214685 74.9846 -2.88715 74.9846 Q-5.08621 74.9846 -7.5399 75.7484 Q-9.97045 76.5123 -12.7482 78.0632 L-12.7482 73.341 Q-9.92415 72.2068 -7.47046 71.6281 Q-5.01677 71.0494 -2.97974 71.0494 Q2.3906 71.0494 5.58503 73.7346 Q8.77945 76.4197 8.77945 80.9105 Q8.77945 83.0401 7.96927 84.9614 Q7.18224 86.8595 5.07577 89.4521 Q4.49707 90.1234 1.39523 93.3409 Q-1.7066 96.5354 -7.35472 102.299 Z" fill="#000000" fill-rule="evenodd" fill-opacity="1" /><path clip-path="url(#clip790)" d="M 0 0 M24.034 74.7531 Q20.4229 74.7531 18.5942 78.3179 Q16.7887 81.8595 16.7887 88.9891 Q16.7887 96.0956 18.5942 99.6604 Q20.4229 103.202 24.034 103.202 Q27.6682 103.202 29.4738 99.6604 Q31.3025 96.0956 31.3025 88.9891 Q31.3025 81.8595 29.4738 78.3179 Q27.6682 74.7531 24.034 74.7531 M24.034 71.0494 Q29.8442 71.0494 32.8997 75.6559 Q35.9784 80.2392 35.9784 88.9891 Q35.9784 97.7159 32.8997 102.322 Q29.8442 106.906 24.034 106.906 Q18.2238 106.906 15.1452 102.322 Q12.0896 97.7159 12.0896 88.9891 Q12.0896 80.2392 15.1452 75.6559 Q18.2238 71.0494 24.034 71.0494 Z" fill="#000000" fill-rule="evenodd" fill-opacity="1" /><path clip-path="url(#clip790)" d="M 0 0 M51.0477 74.7531 Q47.4367 74.7531 45.608 78.3179 Q43.8024 81.8595 43.8024 88.9891 Q43.8024 96.0956 45.608 99.6604 Q47.4367 103.202 51.0477 103.202 Q54.682 103.202 56.4875 99.6604 Q58.3162 96.0956 58.3162 88.9891 Q58.3162 81.8595 56.4875 78.3179 Q54.682 74.7531 51.0477 74.7531 M51.0477 71.0494 Q56.8579 71.0494 59.9134 75.6559 Q62.9921 80.2392 62.9921 88.9891 Q62.9921 97.7159 59.9134 102.322 Q56.8579 106.906 51.0477 106.906 Q45.2376 106.906 42.1589 102.322 Q39.1034 97.7159 39.1034 88.9891 Q39.1034 80.2392 42.1589 75.6559 Q45.2376 71.0494 51.0477 71.0494 Z" fill="#000000" fill-rule="evenodd" fill-opacity="1" /><polyline clip-path="url(#clip792)" style="stroke:#009af9; stroke-width:4; stroke-opacity:1; fill:none" points="
  151.118,1254.82 175.135,1247.57 199.152,1479.3 223.169,1399.64 247.186,1479.3 271.203,1392.4 295.22,1167.92 319.237,1399.64 343.254,1392.4 367.271,1472.06 
  391.288,1377.92 415.305,1472.06 439.322,1479.3 463.339,1392.4 487.356,1146.19 511.373,1247.57 535.39,1262.06 559.407,1479.3 583.424,1370.68 607.441,1472.06 
  631.458,1406.88 655.475,1356.19 679.492,1377.92 703.509,1327.23 727.526,1327.23 751.543,1377.92 775.56,1341.71 799.577,1377.92 823.594,1167.92 847.611,1298.26 
  871.628,1298.26 895.645,1341.71 919.662,1457.57 943.679,1262.06 967.696,1117.23 991.713,1001.37 1015.73,1196.88 1039.75,1015.85 1063.76,646.54 1087.78,1088.26 
  1111.8,957.919 1135.81,957.919 1159.83,1240.33 1183.85,1001.37 1207.87,878.264 1231.88,776.885 1255.9,805.85 1279.92,863.781 1303.93,878.264 1327.95,494.471 
  1351.97,921.712 1375.98,639.299 1400,769.643 1424.02,255.506 1448.04,291.713 1472.05,88.9544 1496.07,204.816 1520.09,161.368 1544.1,88.9544 1568.12,88.9544 
  1592.14,88.9544 1616.15,88.9544 1640.17,88.9544 1664.19,88.9544 1688.21,88.9544 1712.22,88.9544 1736.24,88.9544 1760.26,88.9544 1784.27,88.9544 1808.29,88.9544 
  1832.31,88.9544 1856.32,88.9544 1880.34,88.9544 1904.36,88.9544 1928.38,88.9544 1952.39,88.9544 1976.41,88.9544 2000.43,88.9544 2024.44,88.9544 2048.46,88.9544 
  2072.48,88.9544 2096.49,88.9544 2120.51,88.9544 2144.53,88.9544 2168.55,88.9544 2192.56,88.9544 2216.58,88.9544 2240.6,88.9544 2264.61,88.9544 2288.63,88.9544 
  
  "/>
<path clip-path="url(#clip790)" d="
M1974.46 217.33 L2277.23 217.33 L2277.23 96.3696 L1974.46 96.3696  Z
  " fill="#ffffff" fill-rule="evenodd" fill-opacity="1"/>
<polyline clip-path="url(#clip790)" style="stroke:#000000; stroke-width:4; stroke-opacity:1; fill:none" points="
  1974.46,217.33 2277.23,217.33 2277.23,96.3696 1974.46,96.3696 1974.46,217.33 
  "/>
<polyline clip-path="url(#clip790)" style="stroke:#009af9; stroke-width:4; stroke-opacity:1; fill:none" points="
  1999.64,156.85 2150.69,156.85 
  "/>
<path clip-path="url(#clip790)" d="M 0 0 M2189.7 176.537 Q2187.9 181.167 2186.19 182.579 Q2184.47 183.991 2181.6 183.991 L2178.2 183.991 L2178.2 180.426 L2180.7 180.426 Q2182.46 180.426 2183.43 179.592 Q2184.4 178.759 2185.58 175.657 L2186.35 173.713 L2175.86 148.204 L2180.38 148.204 L2188.48 168.481 L2196.58 148.204 L2201.09 148.204 L2189.7 176.537 Z" fill="#000000" fill-rule="evenodd" fill-opacity="1" /><path clip-path="url(#clip790)" d="M 0 0 M2206.97 170.194 L2214.61 170.194 L2214.61 143.829 L2206.3 145.495 L2206.3 141.236 L2214.57 139.57 L2219.24 139.57 L2219.24 170.194 L2226.88 170.194 L2226.88 174.13 L2206.97 174.13 L2206.97 170.194 Z" fill="#000000" fill-rule="evenodd" fill-opacity="1" /></svg>
