<?xml version="1.0" encoding="utf-8"?>
<svg xmlns="http://www.w3.org/2000/svg" xmlns:xlink="http://www.w3.org/1999/xlink" width="600" height="400" viewBox="0 0 2400 1600">
<defs>
  <clipPath id="clip210">
    <rect x="0" y="0" width="2400" height="1600"/>
  </clipPath>
</defs>
<path clip-path="url(#clip210)" d="
M0 1600 L2400 1600 L2400 0 L0 0  Z
  " fill="#ffffff" fill-rule="evenodd" fill-opacity="1"/>
<defs>
  <clipPath id="clip211">
    <rect x="480" y="0" width="1681" height="1600"/>
  </clipPath>
</defs>
<path clip-path="url(#clip210)" d="
M86.9921 1521.01 L2352.76 1521.01 L2352.76 47.2441 L86.9921 47.2441  Z
  " fill="#ffffff" fill-rule="evenodd" fill-opacity="1"/>
<defs>
  <clipPath id="clip212">
    <rect x="86" y="47" width="2267" height="1475"/>
  </clipPath>
</defs>
<polyline clip-path="url(#clip212)" style="stroke:#000000; stroke-width:2; stroke-opacity:0.1; fill:none" points="
  124.06,1521.01 124.06,47.2441 
  "/>
<polyline clip-path="url(#clip212)" style="stroke:#000000; stroke-width:2; stroke-opacity:0.1; fill:none" points="
  665.203,1521.01 665.203,47.2441 
  "/>
<polyline clip-path="url(#clip212)" style="stroke:#000000; stroke-width:2; stroke-opacity:0.1; fill:none" points="
  1206.35,1521.01 1206.35,47.2441 
  "/>
<polyline clip-path="url(#clip212)" style="stroke:#000000; stroke-width:2; stroke-opacity:0.1; fill:none" points="
  1747.49,1521.01 1747.49,47.2441 
  "/>
<polyline clip-path="url(#clip212)" style="stroke:#000000; stroke-width:2; stroke-opacity:0.1; fill:none" points="
  2288.63,1521.01 2288.63,47.2441 
  "/>
<polyline clip-path="url(#clip210)" style="stroke:#000000; stroke-width:4; stroke-opacity:1; fill:none" points="
  86.9921,1521.01 2352.76,1521.01 
  "/>
<polyline clip-path="url(#clip210)" style="stroke:#000000; stroke-width:4; stroke-opacity:1; fill:none" points="
  124.06,1521.01 124.06,1503.32 
  "/>
<polyline clip-path="url(#clip210)" style="stroke:#000000; stroke-width:4; stroke-opacity:1; fill:none" points="
  665.203,1521.01 665.203,1503.32 
  "/>
<polyline clip-path="url(#clip210)" style="stroke:#000000; stroke-width:4; stroke-opacity:1; fill:none" points="
  1206.35,1521.01 1206.35,1503.32 
  "/>
<polyline clip-path="url(#clip210)" style="stroke:#000000; stroke-width:4; stroke-opacity:1; fill:none" points="
  1747.49,1521.01 1747.49,1503.32 
  "/>
<polyline clip-path="url(#clip210)" style="stroke:#000000; stroke-width:4; stroke-opacity:1; fill:none" points="
  2288.63,1521.01 2288.63,1503.32 
  "/>
<path clip-path="url(#clip210)" d="M 0 0 M124.06 1550.2 Q120.449 1550.2 118.621 1553.76 Q116.815 1557.31 116.815 1564.43 Q116.815 1571.54 118.621 1575.11 Q120.449 1578.65 124.06 1578.65 Q127.695 1578.65 129.5 1575.11 Q131.329 1571.54 131.329 1564.43 Q131.329 1557.31 129.5 1553.76 Q127.695 1550.2 124.06 1550.2 M124.06 1546.49 Q129.871 1546.49 132.926 1551.1 Q136.005 1555.68 136.005 1564.43 Q136.005 1573.16 132.926 1577.77 Q129.871 1582.35 124.06 1582.35 Q118.25 1582.35 115.172 1577.77 Q112.116 1573.16 112.116 1564.43 Q112.116 1555.68 115.172 1551.1 Q118.25 1546.49 124.06 1546.49 Z" fill="#000000" fill-rule="evenodd" fill-opacity="1" /><path clip-path="url(#clip210)" d="M 0 0 M646.349 1577.74 L662.668 1577.74 L662.668 1581.68 L640.724 1581.68 L640.724 1577.74 Q643.386 1574.99 647.969 1570.36 Q652.576 1565.71 653.756 1564.37 Q656.002 1561.84 656.881 1560.11 Q657.784 1558.35 657.784 1556.66 Q657.784 1553.9 655.84 1552.17 Q653.918 1550.43 650.816 1550.43 Q648.617 1550.43 646.164 1551.19 Q643.733 1551.96 640.955 1553.51 L640.955 1548.79 Q643.779 1547.65 646.233 1547.07 Q648.687 1546.49 650.724 1546.49 Q656.094 1546.49 659.289 1549.18 Q662.483 1551.87 662.483 1556.36 Q662.483 1558.49 661.673 1560.41 Q660.886 1562.3 658.779 1564.9 Q658.201 1565.57 655.099 1568.79 Q651.997 1571.98 646.349 1577.74 Z" fill="#000000" fill-rule="evenodd" fill-opacity="1" /><path clip-path="url(#clip210)" d="M 0 0 M677.738 1550.2 Q674.126 1550.2 672.298 1553.76 Q670.492 1557.31 670.492 1564.43 Q670.492 1571.54 672.298 1575.11 Q674.126 1578.65 677.738 1578.65 Q681.372 1578.65 683.177 1575.11 Q685.006 1571.54 685.006 1564.43 Q685.006 1557.31 683.177 1553.76 Q681.372 1550.2 677.738 1550.2 M677.738 1546.49 Q683.548 1546.49 686.603 1551.1 Q689.682 1555.68 689.682 1564.43 Q689.682 1573.16 686.603 1577.77 Q683.548 1582.35 677.738 1582.35 Q671.927 1582.35 668.849 1577.77 Q665.793 1573.16 665.793 1564.43 Q665.793 1555.68 668.849 1551.1 Q671.927 1546.49 677.738 1546.49 Z" fill="#000000" fill-rule="evenodd" fill-opacity="1" /><path clip-path="url(#clip210)" d="M 0 0 M1195.85 1551.19 L1184.04 1569.64 L1195.85 1569.64 L1195.85 1551.19 M1194.62 1547.12 L1200.5 1547.12 L1200.5 1569.64 L1205.43 1569.64 L1205.43 1573.53 L1200.5 1573.53 L1200.5 1581.68 L1195.85 1581.68 L1195.85 1573.53 L1180.25 1573.53 L1180.25 1569.02 L1194.62 1547.12 Z" fill="#000000" fill-rule="evenodd" fill-opacity="1" /><path clip-path="url(#clip210)" d="M 0 0 M1220.5 1550.2 Q1216.89 1550.2 1215.06 1553.76 Q1213.26 1557.31 1213.26 1564.43 Q1213.26 1571.54 1215.06 1575.11 Q1216.89 1578.65 1220.5 1578.65 Q1224.13 1578.65 1225.94 1575.11 Q1227.77 1571.54 1227.77 1564.43 Q1227.77 1557.31 1225.94 1553.76 Q1224.13 1550.2 1220.5 1550.2 M1220.5 1546.49 Q1226.31 1546.49 1229.37 1551.1 Q1232.44 1555.68 1232.44 1564.43 Q1232.44 1573.16 1229.37 1577.77 Q1226.31 1582.35 1220.5 1582.35 Q1214.69 1582.35 1211.61 1577.77 Q1208.56 1573.16 1208.56 1564.43 Q1208.56 1555.68 1211.61 1551.1 Q1214.69 1546.49 1220.5 1546.49 Z" fill="#000000" fill-rule="evenodd" fill-opacity="1" /><path clip-path="url(#clip210)" d="M 0 0 M1734.39 1562.54 Q1731.24 1562.54 1729.39 1564.69 Q1727.56 1566.84 1727.56 1570.59 Q1727.56 1574.32 1729.39 1576.49 Q1731.24 1578.65 1734.39 1578.65 Q1737.53 1578.65 1739.36 1576.49 Q1741.21 1574.32 1741.21 1570.59 Q1741.21 1566.84 1739.36 1564.69 Q1737.53 1562.54 1734.39 1562.54 M1743.67 1547.88 L1743.67 1552.14 Q1741.91 1551.31 1740.1 1550.87 Q1738.32 1550.43 1736.56 1550.43 Q1731.93 1550.43 1729.48 1553.56 Q1727.05 1556.68 1726.7 1563 Q1728.07 1560.99 1730.13 1559.92 Q1732.19 1558.83 1734.66 1558.83 Q1739.87 1558.83 1742.88 1562 Q1745.91 1565.15 1745.91 1570.59 Q1745.91 1575.92 1742.77 1579.13 Q1739.62 1582.35 1734.39 1582.35 Q1728.39 1582.35 1725.22 1577.77 Q1722.05 1573.16 1722.05 1564.43 Q1722.05 1556.24 1725.94 1551.38 Q1729.83 1546.49 1736.38 1546.49 Q1738.14 1546.49 1739.92 1546.84 Q1741.72 1547.19 1743.67 1547.88 Z" fill="#000000" fill-rule="evenodd" fill-opacity="1" /><path clip-path="url(#clip210)" d="M 0 0 M1760.98 1550.2 Q1757.37 1550.2 1755.54 1553.76 Q1753.74 1557.31 1753.74 1564.43 Q1753.74 1571.54 1755.54 1575.11 Q1757.37 1578.65 1760.98 1578.65 Q1764.62 1578.65 1766.42 1575.11 Q1768.25 1571.54 1768.25 1564.43 Q1768.25 1557.31 1766.42 1553.76 Q1764.62 1550.2 1760.98 1550.2 M1760.98 1546.49 Q1766.79 1546.49 1769.85 1551.1 Q1772.93 1555.68 1772.93 1564.43 Q1772.93 1573.16 1769.85 1577.77 Q1766.79 1582.35 1760.98 1582.35 Q1755.17 1582.35 1752.09 1577.77 Q1749.04 1573.16 1749.04 1564.43 Q1749.04 1555.68 1752.09 1551.1 Q1755.17 1546.49 1760.98 1546.49 Z" fill="#000000" fill-rule="evenodd" fill-opacity="1" /><path clip-path="url(#clip210)" d="M 0 0 M2275.12 1565.27 Q2271.79 1565.27 2269.87 1567.05 Q2267.97 1568.83 2267.97 1571.96 Q2267.97 1575.08 2269.87 1576.87 Q2271.79 1578.65 2275.12 1578.65 Q2278.46 1578.65 2280.38 1576.87 Q2282.3 1575.06 2282.3 1571.96 Q2282.3 1568.83 2280.38 1567.05 Q2278.48 1565.27 2275.12 1565.27 M2270.45 1563.28 Q2267.44 1562.54 2265.75 1560.48 Q2264.08 1558.42 2264.08 1555.45 Q2264.08 1551.31 2267.02 1548.9 Q2269.98 1546.49 2275.12 1546.49 Q2280.29 1546.49 2283.23 1548.9 Q2286.17 1551.31 2286.17 1555.45 Q2286.17 1558.42 2284.48 1560.48 Q2282.81 1562.54 2279.82 1563.28 Q2283.2 1564.06 2285.08 1566.36 Q2286.98 1568.65 2286.98 1571.96 Q2286.98 1576.98 2283.9 1579.67 Q2280.84 1582.35 2275.12 1582.35 Q2269.41 1582.35 2266.33 1579.67 Q2263.27 1576.98 2263.27 1571.96 Q2263.27 1568.65 2265.17 1566.36 Q2267.07 1564.06 2270.45 1563.28 M2268.73 1555.89 Q2268.73 1558.58 2270.4 1560.08 Q2272.09 1561.59 2275.12 1561.59 Q2278.13 1561.59 2279.82 1560.08 Q2281.54 1558.58 2281.54 1555.89 Q2281.54 1553.21 2279.82 1551.7 Q2278.13 1550.2 2275.12 1550.2 Q2272.09 1550.2 2270.4 1551.7 Q2268.73 1553.21 2268.73 1555.89 Z" fill="#000000" fill-rule="evenodd" fill-opacity="1" /><path clip-path="url(#clip210)" d="M 0 0 M2302.04 1550.2 Q2298.43 1550.2 2296.61 1553.76 Q2294.8 1557.31 2294.8 1564.43 Q2294.8 1571.54 2296.61 1575.11 Q2298.43 1578.65 2302.04 1578.65 Q2305.68 1578.65 2307.48 1575.11 Q2309.31 1571.54 2309.31 1564.43 Q2309.31 1557.31 2307.48 1553.76 Q2305.68 1550.2 2302.04 1550.2 M2302.04 1546.49 Q2307.85 1546.49 2310.91 1551.1 Q2313.99 1555.68 2313.99 1564.43 Q2313.99 1573.16 2310.91 1577.77 Q2307.85 1582.35 2302.04 1582.35 Q2296.23 1582.35 2293.16 1577.77 Q2290.1 1573.16 2290.1 1564.43 Q2290.1 1555.68 2293.16 1551.1 Q2296.23 1546.49 2302.04 1546.49 Z" fill="#000000" fill-rule="evenodd" fill-opacity="1" /><polyline clip-path="url(#clip212)" style="stroke:#000000; stroke-width:2; stroke-opacity:0.1; fill:none" points="
  86.9921,1175.16 2352.76,1175.16 
  "/>
<polyline clip-path="url(#clip212)" style="stroke:#000000; stroke-width:2; stroke-opacity:0.1; fill:none" points="
  86.9921,813.091 2352.76,813.091 
  "/>
<polyline clip-path="url(#clip212)" style="stroke:#000000; stroke-width:2; stroke-opacity:0.1; fill:none" points="
  86.9921,451.023 2352.76,451.023 
  "/>
<polyline clip-path="url(#clip212)" style="stroke:#000000; stroke-width:2; stroke-opacity:0.1; fill:none" points="
  86.9921,88.9544 2352.76,88.9544 
  "/>
<polyline clip-path="url(#clip210)" style="stroke:#000000; stroke-width:4; stroke-opacity:1; fill:none" points="
  86.9921,1521.01 86.9921,47.2441 
  "/>
<polyline clip-path="url(#clip210)" style="stroke:#000000; stroke-width:4; stroke-opacity:1; fill:none" points="
  86.9921,1175.16 114.181,1175.16 
  "/>
<polyline clip-path="url(#clip210)" style="stroke:#000000; stroke-width:4; stroke-opacity:1; fill:none" points="
  86.9921,813.091 114.181,813.091 
  "/>
<polyline clip-path="url(#clip210)" style="stroke:#000000; stroke-width:4; stroke-opacity:1; fill:none" points="
  86.9921,451.023 114.181,451.023 
  "/>
<polyline clip-path="url(#clip210)" style="stroke:#000000; stroke-width:4; stroke-opacity:1; fill:none" points="
  86.9921,88.9544 114.181,88.9544 
  "/>
<path clip-path="url(#clip210)" d="M 0 0 M3.07572 1157.88 L21.4321 1157.88 L21.4321 1161.82 L7.3581 1161.82 L7.3581 1170.29 Q8.37661 1169.94 9.39513 1169.78 Q10.4136 1169.59 11.4322 1169.59 Q17.2192 1169.59 20.5988 1172.76 Q23.9784 1175.94 23.9784 1181.35 Q23.9784 1186.93 20.5062 1190.03 Q17.034 1193.11 10.7146 1193.11 Q8.53865 1193.11 6.27014 1192.74 Q4.02479 1192.37 1.61739 1191.63 L1.61739 1186.93 Q3.70071 1188.07 5.92292 1188.62 Q8.14513 1189.18 10.622 1189.18 Q14.6266 1189.18 16.9645 1187.07 Q19.3025 1184.96 19.3025 1181.35 Q19.3025 1177.74 16.9645 1175.63 Q14.6266 1173.53 10.622 1173.53 Q8.74698 1173.53 6.87199 1173.94 Q5.02015 1174.36 3.07572 1175.24 L3.07572 1157.88 Z" fill="#000000" fill-rule="evenodd" fill-opacity="1" /><path clip-path="url(#clip210)" d="M 0 0 M39.0477 1160.96 Q35.4367 1160.96 33.608 1164.52 Q31.8024 1168.07 31.8024 1175.19 Q31.8024 1182.3 33.608 1185.87 Q35.4367 1189.41 39.0477 1189.41 Q42.682 1189.41 44.4875 1185.87 Q46.3162 1182.3 46.3162 1175.19 Q46.3162 1168.07 44.4875 1164.52 Q42.682 1160.96 39.0477 1160.96 M39.0477 1157.26 Q44.8579 1157.26 47.9134 1161.86 Q50.9921 1166.44 50.9921 1175.19 Q50.9921 1183.92 47.9134 1188.53 Q44.8579 1193.11 39.0477 1193.11 Q33.2376 1193.11 30.1589 1188.53 Q27.1034 1183.92 27.1034 1175.19 Q27.1034 1166.44 30.1589 1161.86 Q33.2376 1157.26 39.0477 1157.26 Z" fill="#000000" fill-rule="evenodd" fill-opacity="1" /><path clip-path="url(#clip210)" d="M 0 0 M-22.9427 826.436 L-15.3038 826.436 L-15.3038 800.071 L-23.614 801.737 L-23.614 797.478 L-15.3501 795.811 L-10.6742 795.811 L-10.6742 826.436 L-3.03536 826.436 L-3.03536 830.371 L-22.9427 830.371 L-22.9427 826.436 Z" fill="#000000" fill-rule="evenodd" fill-opacity="1" /><path clip-path="url(#clip210)" d="M 0 0 M12.034 798.89 Q8.42291 798.89 6.59422 802.455 Q4.78867 805.997 4.78867 813.126 Q4.78867 820.233 6.59422 823.797 Q8.42291 827.339 12.034 827.339 Q15.6682 827.339 17.4738 823.797 Q19.3025 820.233 19.3025 813.126 Q19.3025 805.997 17.4738 802.455 Q15.6682 798.89 12.034 798.89 M12.034 795.186 Q17.8442 795.186 20.8997 799.793 Q23.9784 804.376 23.9784 813.126 Q23.9784 821.853 20.8997 826.459 Q17.8442 831.043 12.034 831.043 Q6.22385 831.043 3.14516 826.459 Q0.089621 821.853 0.089621 813.126 Q0.089621 804.376 3.14516 799.793 Q6.22385 795.186 12.034 795.186 Z" fill="#000000" fill-rule="evenodd" fill-opacity="1" /><path clip-path="url(#clip210)" d="M 0 0 M39.0477 798.89 Q35.4367 798.89 33.608 802.455 Q31.8024 805.997 31.8024 813.126 Q31.8024 820.233 33.608 823.797 Q35.4367 827.339 39.0477 827.339 Q42.682 827.339 44.4875 823.797 Q46.3162 820.233 46.3162 813.126 Q46.3162 805.997 44.4875 802.455 Q42.682 798.89 39.0477 798.89 M39.0477 795.186 Q44.8579 795.186 47.9134 799.793 Q50.9921 804.376 50.9921 813.126 Q50.9921 821.853 47.9134 826.459 Q44.8579 831.043 39.0477 831.043 Q33.2376 831.043 30.1589 826.459 Q27.1034 821.853 27.1034 813.126 Q27.1034 804.376 30.1589 799.793 Q33.2376 795.186 39.0477 795.186 Z" fill="#000000" fill-rule="evenodd" fill-opacity="1" /><path clip-path="url(#clip210)" d="M 0 0 M-21.9473 464.368 L-14.3085 464.368 L-14.3085 438.002 L-22.6186 439.669 L-22.6186 435.41 L-14.3547 433.743 L-9.67885 433.743 L-9.67885 464.368 L-2.04 464.368 L-2.04 468.303 L-21.9473 468.303 L-21.9473 464.368 Z" fill="#000000" fill-rule="evenodd" fill-opacity="1" /><path clip-path="url(#clip210)" d="M 0 0 M3.07572 433.743 L21.4321 433.743 L21.4321 437.678 L7.3581 437.678 L7.3581 446.15 Q8.37661 445.803 9.39513 445.641 Q10.4136 445.456 11.4322 445.456 Q17.2192 445.456 20.5988 448.627 Q23.9784 451.798 23.9784 457.215 Q23.9784 462.794 20.5062 465.896 Q17.034 468.974 10.7146 468.974 Q8.53865 468.974 6.27014 468.604 Q4.02479 468.233 1.61739 467.493 L1.61739 462.794 Q3.70071 463.928 5.92292 464.484 Q8.14513 465.039 10.622 465.039 Q14.6266 465.039 16.9645 462.933 Q19.3025 460.826 19.3025 457.215 Q19.3025 453.604 16.9645 451.497 Q14.6266 449.391 10.622 449.391 Q8.74698 449.391 6.87199 449.808 Q5.02015 450.224 3.07572 451.104 L3.07572 433.743 Z" fill="#000000" fill-rule="evenodd" fill-opacity="1" /><path clip-path="url(#clip210)" d="M 0 0 M39.0477 436.822 Q35.4367 436.822 33.608 440.386 Q31.8024 443.928 31.8024 451.058 Q31.8024 458.164 33.608 461.729 Q35.4367 465.271 39.0477 465.271 Q42.682 465.271 44.4875 461.729 Q46.3162 458.164 46.3162 451.058 Q46.3162 443.928 44.4875 440.386 Q42.682 436.822 39.0477 436.822 M39.0477 433.118 Q44.8579 433.118 47.9134 437.724 Q50.9921 442.308 50.9921 451.058 Q50.9921 459.784 47.9134 464.391 Q44.8579 468.974 39.0477 468.974 Q33.2376 468.974 30.1589 464.391 Q27.1034 459.784 27.1034 451.058 Q27.1034 442.308 30.1589 437.724 Q33.2376 433.118 39.0477 433.118 Z" fill="#000000" fill-rule="evenodd" fill-opacity="1" /><path clip-path="url(#clip210)" d="M 0 0 M-19.3547 102.299 L-3.03536 102.299 L-3.03536 106.234 L-24.9797 106.234 L-24.9797 102.299 Q-22.3177 99.5446 -17.7344 94.915 Q-13.1279 90.2623 -11.9474 88.9197 Q-9.70199 86.3965 -8.82237 84.6604 Q-7.9196 82.9012 -7.9196 81.2114 Q-7.9196 78.4568 -9.86403 76.7207 Q-11.7853 74.9846 -14.8872 74.9846 Q-17.0862 74.9846 -19.5399 75.7484 Q-21.9704 76.5123 -24.7482 78.0632 L-24.7482 73.341 Q-21.9241 72.2068 -19.4705 71.6281 Q-17.0168 71.0494 -14.9797 71.0494 Q-9.6094 71.0494 -6.41497 73.7346 Q-3.22055 76.4197 -3.22055 80.9105 Q-3.22055 83.0401 -4.03073 84.9614 Q-4.81776 86.8595 -6.92423 89.4521 Q-7.50293 90.1234 -10.6048 93.3409 Q-13.7066 96.5354 -19.3547 102.299 Z" fill="#000000" fill-rule="evenodd" fill-opacity="1" /><path clip-path="url(#clip210)" d="M 0 0 M12.034 74.7531 Q8.42291 74.7531 6.59422 78.3179 Q4.78867 81.8595 4.78867 88.9891 Q4.78867 96.0956 6.59422 99.6604 Q8.42291 103.202 12.034 103.202 Q15.6682 103.202 17.4738 99.6604 Q19.3025 96.0956 19.3025 88.9891 Q19.3025 81.8595 17.4738 78.3179 Q15.6682 74.7531 12.034 74.7531 M12.034 71.0494 Q17.8442 71.0494 20.8997 75.6559 Q23.9784 80.2392 23.9784 88.9891 Q23.9784 97.7159 20.8997 102.322 Q17.8442 106.906 12.034 106.906 Q6.22385 106.906 3.14516 102.322 Q0.089621 97.7159 0.089621 88.9891 Q0.089621 80.2392 3.14516 75.6559 Q6.22385 71.0494 12.034 71.0494 Z" fill="#000000" fill-rule="evenodd" fill-opacity="1" /><path clip-path="url(#clip210)" d="M 0 0 M39.0477 74.7531 Q35.4367 74.7531 33.608 78.3179 Q31.8024 81.8595 31.8024 88.9891 Q31.8024 96.0956 33.608 99.6604 Q35.4367 103.202 39.0477 103.202 Q42.682 103.202 44.4875 99.6604 Q46.3162 96.0956 46.3162 88.9891 Q46.3162 81.8595 44.4875 78.3179 Q42.682 74.7531 39.0477 74.7531 M39.0477 71.0494 Q44.8579 71.0494 47.9134 75.6559 Q50.9921 80.2392 50.9921 88.9891 Q50.9921 97.7159 47.9134 102.322 Q44.8579 106.906 39.0477 106.906 Q33.2376 106.906 30.1589 102.322 Q27.1034 97.7159 27.1034 88.9891 Q27.1034 80.2392 30.1589 75.6559 Q33.2376 71.0494 39.0477 71.0494 Z" fill="#000000" fill-rule="evenodd" fill-opacity="1" /><polyline clip-path="url(#clip212)" style="stroke:#009af9; stroke-width:4; stroke-opacity:1; fill:none" points="
  151.118,1254.82 178.175,1247.57 205.232,1479.3 232.289,1399.64 259.346,1479.3 286.403,1392.4 313.46,1167.92 340.517,1399.64 367.575,1392.4 394.632,1472.06 
  421.689,1377.92 448.746,1472.06 475.803,1479.3 502.86,1392.4 529.917,1146.19 556.974,1247.57 584.032,1262.06 611.089,1479.3 638.146,1370.68 665.203,1472.06 
  692.26,1406.88 719.317,1356.19 746.374,1377.92 773.431,1327.23 800.489,1327.23 827.546,1428.61 854.603,1204.13 881.66,617.574 908.717,1464.81 935.774,928.953 
  962.831,646.54 989.888,1421.37 1016.95,197.575 1044,88.9544 1071.06,646.54 1098.12,574.126 1125.17,88.9544 1152.23,914.471 1179.29,88.9544 1206.35,1037.57 
  1233.4,88.9544 1260.46,523.437 1287.52,798.609 1314.57,639.299 1341.63,88.9544 1368.69,632.057 1395.75,320.678 1422.8,88.9544 1449.86,88.9544 1476.92,88.9544 
  1503.97,88.9544 1531.03,139.644 1558.09,88.9544 1585.15,88.9544 1612.2,88.9544 1639.26,88.9544 1666.32,88.9544 1693.37,88.9544 1720.43,88.9544 1747.49,88.9544 
  1774.55,88.9544 1801.6,88.9544 1828.66,110.679 1855.72,88.9544 1882.77,88.9544 1909.83,88.9544 1936.89,88.9544 1963.94,88.9544 1991,88.9544 2018.06,88.9544 
  2045.12,88.9544 2072.17,88.9544 2099.23,88.9544 2126.29,88.9544 2153.34,88.9544 2180.4,88.9544 2207.46,88.9544 2234.52,88.9544 2261.57,88.9544 2288.63,88.9544 
  
  "/>
<path clip-path="url(#clip210)" d="
M1974.46 217.33 L2277.23 217.33 L2277.23 96.3696 L1974.46 96.3696  Z
  " fill="#ffffff" fill-rule="evenodd" fill-opacity="1"/>
<polyline clip-path="url(#clip210)" style="stroke:#000000; stroke-width:4; stroke-opacity:1; fill:none" points="
  1974.46,217.33 2277.23,217.33 2277.23,96.3696 1974.46,96.3696 1974.46,217.33 
  "/>
<polyline clip-path="url(#clip210)" style="stroke:#009af9; stroke-width:4; stroke-opacity:1; fill:none" points="
  1999.64,156.85 2150.69,156.85 
  "/>
<path clip-path="url(#clip210)" d="M 0 0 M2189.7 176.537 Q2187.9 181.167 2186.19 182.579 Q2184.47 183.991 2181.6 183.991 L2178.2 183.991 L2178.2 180.426 L2180.7 180.426 Q2182.46 180.426 2183.43 179.592 Q2184.4 178.759 2185.58 175.657 L2186.35 173.713 L2175.86 148.204 L2180.38 148.204 L2188.48 168.481 L2196.58 148.204 L2201.09 148.204 L2189.7 176.537 Z" fill="#000000" fill-rule="evenodd" fill-opacity="1" /><path clip-path="url(#clip210)" d="M 0 0 M2206.97 170.194 L2214.61 170.194 L2214.61 143.829 L2206.3 145.495 L2206.3 141.236 L2214.57 139.57 L2219.24 139.57 L2219.24 170.194 L2226.88 170.194 L2226.88 174.13 L2206.97 174.13 L2206.97 170.194 Z" fill="#000000" fill-rule="evenodd" fill-opacity="1" /></svg>
