<?xml version="1.0" encoding="utf-8"?>
<svg xmlns="http://www.w3.org/2000/svg" xmlns:xlink="http://www.w3.org/1999/xlink" width="600" height="400" viewBox="0 0 2400 1600">
<defs>
  <clipPath id="clip180">
    <rect x="0" y="0" width="2400" height="1600"/>
  </clipPath>
</defs>
<path clip-path="url(#clip180)" d="
M0 1600 L2400 1600 L2400 0 L0 0  Z
  " fill="#ffffff" fill-rule="evenodd" fill-opacity="1"/>
<defs>
  <clipPath id="clip181">
    <rect x="480" y="0" width="1681" height="1600"/>
  </clipPath>
</defs>
<path clip-path="url(#clip180)" d="
M86.9921 1521.01 L2352.76 1521.01 L2352.76 47.2441 L86.9921 47.2441  Z
  " fill="#ffffff" fill-rule="evenodd" fill-opacity="1"/>
<defs>
  <clipPath id="clip182">
    <rect x="86" y="47" width="2267" height="1475"/>
  </clipPath>
</defs>
<polyline clip-path="url(#clip182)" style="stroke:#000000; stroke-width:2; stroke-opacity:0.1; fill:none" points="
  126.263,1521.01 126.263,47.2441 
  "/>
<polyline clip-path="url(#clip182)" style="stroke:#000000; stroke-width:2; stroke-opacity:0.1; fill:none" points="
  623.359,1521.01 623.359,47.2441 
  "/>
<polyline clip-path="url(#clip182)" style="stroke:#000000; stroke-width:2; stroke-opacity:0.1; fill:none" points="
  1120.45,1521.01 1120.45,47.2441 
  "/>
<polyline clip-path="url(#clip182)" style="stroke:#000000; stroke-width:2; stroke-opacity:0.1; fill:none" points="
  1617.55,1521.01 1617.55,47.2441 
  "/>
<polyline clip-path="url(#clip182)" style="stroke:#000000; stroke-width:2; stroke-opacity:0.1; fill:none" points="
  2114.65,1521.01 2114.65,47.2441 
  "/>
<polyline clip-path="url(#clip180)" style="stroke:#000000; stroke-width:4; stroke-opacity:1; fill:none" points="
  86.9921,1521.01 2352.76,1521.01 
  "/>
<polyline clip-path="url(#clip180)" style="stroke:#000000; stroke-width:4; stroke-opacity:1; fill:none" points="
  126.263,1521.01 126.263,1503.32 
  "/>
<polyline clip-path="url(#clip180)" style="stroke:#000000; stroke-width:4; stroke-opacity:1; fill:none" points="
  623.359,1521.01 623.359,1503.32 
  "/>
<polyline clip-path="url(#clip180)" style="stroke:#000000; stroke-width:4; stroke-opacity:1; fill:none" points="
  1120.45,1521.01 1120.45,1503.32 
  "/>
<polyline clip-path="url(#clip180)" style="stroke:#000000; stroke-width:4; stroke-opacity:1; fill:none" points="
  1617.55,1521.01 1617.55,1503.32 
  "/>
<polyline clip-path="url(#clip180)" style="stroke:#000000; stroke-width:4; stroke-opacity:1; fill:none" points="
  2114.65,1521.01 2114.65,1503.32 
  "/>
<path clip-path="url(#clip180)" d="M 0 0 M126.263 1550.2 Q122.652 1550.2 120.823 1553.76 Q119.017 1557.31 119.017 1564.43 Q119.017 1571.54 120.823 1575.11 Q122.652 1578.65 126.263 1578.65 Q129.897 1578.65 131.702 1575.11 Q133.531 1571.54 133.531 1564.43 Q133.531 1557.31 131.702 1553.76 Q129.897 1550.2 126.263 1550.2 M126.263 1546.49 Q132.073 1546.49 135.128 1551.1 Q138.207 1555.68 138.207 1564.43 Q138.207 1573.16 135.128 1577.77 Q132.073 1582.35 126.263 1582.35 Q120.453 1582.35 117.374 1577.77 Q114.318 1573.16 114.318 1564.43 Q114.318 1555.68 117.374 1551.1 Q120.453 1546.49 126.263 1546.49 Z" fill="#000000" fill-rule="evenodd" fill-opacity="1" /><path clip-path="url(#clip180)" d="M 0 0 M604.505 1577.74 L620.824 1577.74 L620.824 1581.68 L598.88 1581.68 L598.88 1577.74 Q601.542 1574.99 606.125 1570.36 Q610.732 1565.71 611.912 1564.37 Q614.157 1561.84 615.037 1560.11 Q615.94 1558.35 615.94 1556.66 Q615.94 1553.9 613.995 1552.17 Q612.074 1550.43 608.972 1550.43 Q606.773 1550.43 604.32 1551.19 Q601.889 1551.96 599.111 1553.51 L599.111 1548.79 Q601.935 1547.65 604.389 1547.07 Q606.843 1546.49 608.88 1546.49 Q614.25 1546.49 617.444 1549.18 Q620.639 1551.87 620.639 1556.36 Q620.639 1558.49 619.829 1560.41 Q619.042 1562.3 616.935 1564.9 Q616.356 1565.57 613.255 1568.79 Q610.153 1571.98 604.505 1577.74 Z" fill="#000000" fill-rule="evenodd" fill-opacity="1" /><path clip-path="url(#clip180)" d="M 0 0 M635.893 1550.2 Q632.282 1550.2 630.454 1553.76 Q628.648 1557.31 628.648 1564.43 Q628.648 1571.54 630.454 1575.11 Q632.282 1578.65 635.893 1578.65 Q639.528 1578.65 641.333 1575.11 Q643.162 1571.54 643.162 1564.43 Q643.162 1557.31 641.333 1553.76 Q639.528 1550.2 635.893 1550.2 M635.893 1546.49 Q641.704 1546.49 644.759 1551.1 Q647.838 1555.68 647.838 1564.43 Q647.838 1573.16 644.759 1577.77 Q641.704 1582.35 635.893 1582.35 Q630.083 1582.35 627.005 1577.77 Q623.949 1573.16 623.949 1564.43 Q623.949 1555.68 627.005 1551.1 Q630.083 1546.49 635.893 1546.49 Z" fill="#000000" fill-rule="evenodd" fill-opacity="1" /><path clip-path="url(#clip180)" d="M 0 0 M1109.96 1551.19 L1098.15 1569.64 L1109.96 1569.64 L1109.96 1551.19 M1108.73 1547.12 L1114.61 1547.12 L1114.61 1569.64 L1119.54 1569.64 L1119.54 1573.53 L1114.61 1573.53 L1114.61 1581.68 L1109.96 1581.68 L1109.96 1573.53 L1094.36 1573.53 L1094.36 1569.02 L1108.73 1547.12 Z" fill="#000000" fill-rule="evenodd" fill-opacity="1" /><path clip-path="url(#clip180)" d="M 0 0 M1134.61 1550.2 Q1131 1550.2 1129.17 1553.76 Q1127.36 1557.31 1127.36 1564.43 Q1127.36 1571.54 1129.17 1575.11 Q1131 1578.65 1134.61 1578.65 Q1138.24 1578.65 1140.05 1575.11 Q1141.88 1571.54 1141.88 1564.43 Q1141.88 1557.31 1140.05 1553.76 Q1138.24 1550.2 1134.61 1550.2 M1134.61 1546.49 Q1140.42 1546.49 1143.48 1551.1 Q1146.55 1555.68 1146.55 1564.43 Q1146.55 1573.16 1143.48 1577.77 Q1140.42 1582.35 1134.61 1582.35 Q1128.8 1582.35 1125.72 1577.77 Q1122.67 1573.16 1122.67 1564.43 Q1122.67 1555.68 1125.72 1551.1 Q1128.8 1546.49 1134.61 1546.49 Z" fill="#000000" fill-rule="evenodd" fill-opacity="1" /><path clip-path="url(#clip180)" d="M 0 0 M1604.45 1562.54 Q1601.3 1562.54 1599.45 1564.69 Q1597.62 1566.84 1597.62 1570.59 Q1597.62 1574.32 1599.45 1576.49 Q1601.3 1578.65 1604.45 1578.65 Q1607.6 1578.65 1609.43 1576.49 Q1611.28 1574.32 1611.28 1570.59 Q1611.28 1566.84 1609.43 1564.69 Q1607.6 1562.54 1604.45 1562.54 M1613.73 1547.88 L1613.73 1552.14 Q1611.97 1551.31 1610.17 1550.87 Q1608.38 1550.43 1606.62 1550.43 Q1602 1550.43 1599.54 1553.56 Q1597.11 1556.68 1596.76 1563 Q1598.13 1560.99 1600.19 1559.92 Q1602.25 1558.83 1604.73 1558.83 Q1609.94 1558.83 1612.94 1562 Q1615.98 1565.15 1615.98 1570.59 Q1615.98 1575.92 1612.83 1579.13 Q1609.68 1582.35 1604.45 1582.35 Q1598.45 1582.35 1595.28 1577.77 Q1592.11 1573.16 1592.11 1564.43 Q1592.11 1556.24 1596 1551.38 Q1599.89 1546.49 1606.44 1546.49 Q1608.2 1546.49 1609.98 1546.84 Q1611.79 1547.19 1613.73 1547.88 Z" fill="#000000" fill-rule="evenodd" fill-opacity="1" /><path clip-path="url(#clip180)" d="M 0 0 M1631.05 1550.2 Q1627.44 1550.2 1625.61 1553.76 Q1623.8 1557.31 1623.8 1564.43 Q1623.8 1571.54 1625.61 1575.11 Q1627.44 1578.65 1631.05 1578.65 Q1634.68 1578.65 1636.49 1575.11 Q1638.31 1571.54 1638.31 1564.43 Q1638.31 1557.31 1636.49 1553.76 Q1634.68 1550.2 1631.05 1550.2 M1631.05 1546.49 Q1636.86 1546.49 1639.91 1551.1 Q1642.99 1555.68 1642.99 1564.43 Q1642.99 1573.16 1639.91 1577.77 Q1636.86 1582.35 1631.05 1582.35 Q1625.24 1582.35 1622.16 1577.77 Q1619.1 1573.16 1619.1 1564.43 Q1619.1 1555.68 1622.16 1551.1 Q1625.24 1546.49 1631.05 1546.49 Z" fill="#000000" fill-rule="evenodd" fill-opacity="1" /><path clip-path="url(#clip180)" d="M 0 0 M2101.14 1565.27 Q2097.81 1565.27 2095.89 1567.05 Q2093.99 1568.83 2093.99 1571.96 Q2093.99 1575.08 2095.89 1576.87 Q2097.81 1578.65 2101.14 1578.65 Q2104.47 1578.65 2106.39 1576.87 Q2108.32 1575.06 2108.32 1571.96 Q2108.32 1568.83 2106.39 1567.05 Q2104.5 1565.27 2101.14 1565.27 M2096.46 1563.28 Q2093.45 1562.54 2091.77 1560.48 Q2090.1 1558.42 2090.1 1555.45 Q2090.1 1551.31 2093.04 1548.9 Q2096 1546.49 2101.14 1546.49 Q2106.3 1546.49 2109.24 1548.9 Q2112.18 1551.31 2112.18 1555.45 Q2112.18 1558.42 2110.49 1560.48 Q2108.83 1562.54 2105.84 1563.28 Q2109.22 1564.06 2111.09 1566.36 Q2112.99 1568.65 2112.99 1571.96 Q2112.99 1576.98 2109.91 1579.67 Q2106.86 1582.35 2101.14 1582.35 Q2095.42 1582.35 2092.34 1579.67 Q2089.29 1576.98 2089.29 1571.96 Q2089.29 1568.65 2091.19 1566.36 Q2093.08 1564.06 2096.46 1563.28 M2094.75 1555.89 Q2094.75 1558.58 2096.42 1560.08 Q2098.11 1561.59 2101.14 1561.59 Q2104.15 1561.59 2105.84 1560.08 Q2107.55 1558.58 2107.55 1555.89 Q2107.55 1553.21 2105.84 1551.7 Q2104.15 1550.2 2101.14 1550.2 Q2098.11 1550.2 2096.42 1551.7 Q2094.75 1553.21 2094.75 1555.89 Z" fill="#000000" fill-rule="evenodd" fill-opacity="1" /><path clip-path="url(#clip180)" d="M 0 0 M2128.06 1550.2 Q2124.45 1550.2 2122.62 1553.76 Q2120.82 1557.31 2120.82 1564.43 Q2120.82 1571.54 2122.62 1575.11 Q2124.45 1578.65 2128.06 1578.65 Q2131.7 1578.65 2133.5 1575.11 Q2135.33 1571.54 2135.33 1564.43 Q2135.33 1557.31 2133.5 1553.76 Q2131.7 1550.2 2128.06 1550.2 M2128.06 1546.49 Q2133.87 1546.49 2136.93 1551.1 Q2140.01 1555.68 2140.01 1564.43 Q2140.01 1573.16 2136.93 1577.77 Q2133.87 1582.35 2128.06 1582.35 Q2122.25 1582.35 2119.17 1577.77 Q2116.12 1573.16 2116.12 1564.43 Q2116.12 1555.68 2119.17 1551.1 Q2122.25 1546.49 2128.06 1546.49 Z" fill="#000000" fill-rule="evenodd" fill-opacity="1" /><polyline clip-path="url(#clip182)" style="stroke:#000000; stroke-width:2; stroke-opacity:0.1; fill:none" points="
  86.9921,1175.16 2352.76,1175.16 
  "/>
<polyline clip-path="url(#clip182)" style="stroke:#000000; stroke-width:2; stroke-opacity:0.1; fill:none" points="
  86.9921,813.091 2352.76,813.091 
  "/>
<polyline clip-path="url(#clip182)" style="stroke:#000000; stroke-width:2; stroke-opacity:0.1; fill:none" points="
  86.9921,451.023 2352.76,451.023 
  "/>
<polyline clip-path="url(#clip182)" style="stroke:#000000; stroke-width:2; stroke-opacity:0.1; fill:none" points="
  86.9921,88.9544 2352.76,88.9544 
  "/>
<polyline clip-path="url(#clip180)" style="stroke:#000000; stroke-width:4; stroke-opacity:1; fill:none" points="
  86.9921,1521.01 86.9921,47.2441 
  "/>
<polyline clip-path="url(#clip180)" style="stroke:#000000; stroke-width:4; stroke-opacity:1; fill:none" points="
  86.9921,1175.16 114.181,1175.16 
  "/>
<polyline clip-path="url(#clip180)" style="stroke:#000000; stroke-width:4; stroke-opacity:1; fill:none" points="
  86.9921,813.091 114.181,813.091 
  "/>
<polyline clip-path="url(#clip180)" style="stroke:#000000; stroke-width:4; stroke-opacity:1; fill:none" points="
  86.9921,451.023 114.181,451.023 
  "/>
<polyline clip-path="url(#clip180)" style="stroke:#000000; stroke-width:4; stroke-opacity:1; fill:none" points="
  86.9921,88.9544 114.181,88.9544 
  "/>
<path clip-path="url(#clip180)" d="M 0 0 M3.07572 1157.88 L21.4321 1157.88 L21.4321 1161.82 L7.3581 1161.82 L7.3581 1170.29 Q8.37661 1169.94 9.39513 1169.78 Q10.4136 1169.59 11.4322 1169.59 Q17.2192 1169.59 20.5988 1172.76 Q23.9784 1175.94 23.9784 1181.35 Q23.9784 1186.93 20.5062 1190.03 Q17.034 1193.11 10.7146 1193.11 Q8.53865 1193.11 6.27014 1192.74 Q4.02479 1192.37 1.61739 1191.63 L1.61739 1186.93 Q3.70071 1188.07 5.92292 1188.62 Q8.14513 1189.18 10.622 1189.18 Q14.6266 1189.18 16.9645 1187.07 Q19.3025 1184.96 19.3025 1181.35 Q19.3025 1177.74 16.9645 1175.63 Q14.6266 1173.53 10.622 1173.53 Q8.74698 1173.53 6.87199 1173.94 Q5.02015 1174.36 3.07572 1175.24 L3.07572 1157.88 Z" fill="#000000" fill-rule="evenodd" fill-opacity="1" /><path clip-path="url(#clip180)" d="M 0 0 M39.0477 1160.96 Q35.4367 1160.96 33.608 1164.52 Q31.8024 1168.07 31.8024 1175.19 Q31.8024 1182.3 33.608 1185.87 Q35.4367 1189.41 39.0477 1189.41 Q42.682 1189.41 44.4875 1185.87 Q46.3162 1182.3 46.3162 1175.19 Q46.3162 1168.07 44.4875 1164.52 Q42.682 1160.96 39.0477 1160.96 M39.0477 1157.26 Q44.8579 1157.26 47.9134 1161.86 Q50.9921 1166.44 50.9921 1175.19 Q50.9921 1183.92 47.9134 1188.53 Q44.8579 1193.11 39.0477 1193.11 Q33.2376 1193.11 30.1589 1188.53 Q27.1034 1183.92 27.1034 1175.19 Q27.1034 1166.44 30.1589 1161.86 Q33.2376 1157.26 39.0477 1157.26 Z" fill="#000000" fill-rule="evenodd" fill-opacity="1" /><path clip-path="url(#clip180)" d="M 0 0 M-22.9427 826.436 L-15.3038 826.436 L-15.3038 800.071 L-23.614 801.737 L-23.614 797.478 L-15.3501 795.811 L-10.6742 795.811 L-10.6742 826.436 L-3.03536 826.436 L-3.03536 830.371 L-22.9427 830.371 L-22.9427 826.436 Z" fill="#000000" fill-rule="evenodd" fill-opacity="1" /><path clip-path="url(#clip180)" d="M 0 0 M12.034 798.89 Q8.42291 798.89 6.59422 802.455 Q4.78867 805.997 4.78867 813.126 Q4.78867 820.233 6.59422 823.797 Q8.42291 827.339 12.034 827.339 Q15.6682 827.339 17.4738 823.797 Q19.3025 820.233 19.3025 813.126 Q19.3025 805.997 17.4738 802.455 Q15.6682 798.89 12.034 798.89 M12.034 795.186 Q17.8442 795.186 20.8997 799.793 Q23.9784 804.376 23.9784 813.126 Q23.9784 821.853 20.8997 826.459 Q17.8442 831.043 12.034 831.043 Q6.22385 831.043 3.14516 826.459 Q0.089621 821.853 0.089621 813.126 Q0.089621 804.376 3.14516 799.793 Q6.22385 795.186 12.034 795.186 Z" fill="#000000" fill-rule="evenodd" fill-opacity="1" /><path clip-path="url(#clip180)" d="M 0 0 M39.0477 798.89 Q35.4367 798.89 33.608 802.455 Q31.8024 805.997 31.8024 813.126 Q31.8024 820.233 33.608 823.797 Q35.4367 827.339 39.0477 827.339 Q42.682 827.339 44.4875 823.797 Q46.3162 820.233 46.3162 813.126 Q46.3162 805.997 44.4875 802.455 Q42.682 798.89 39.0477 798.89 M39.0477 795.186 Q44.8579 795.186 47.9134 799.793 Q50.9921 804.376 50.9921 813.126 Q50.9921 821.853 47.9134 826.459 Q44.8579 831.043 39.0477 831.043 Q33.2376 831.043 30.1589 826.459 Q27.1034 821.853 27.1034 813.126 Q27.1034 804.376 30.1589 799.793 Q33.2376 795.186 39.0477 795.186 Z" fill="#000000" fill-rule="evenodd" fill-opacity="1" /><path clip-path="url(#clip180)" d="M 0 0 M-21.9473 464.368 L-14.3085 464.368 L-14.3085 438.002 L-22.6186 439.669 L-22.6186 435.41 L-14.3547 433.743 L-9.67885 433.743 L-9.67885 464.368 L-2.04 464.368 L-2.04 468.303 L-21.9473 468.303 L-21.9473 464.368 Z" fill="#000000" fill-rule="evenodd" fill-opacity="1" /><path clip-path="url(#clip180)" d="M 0 0 M3.07572 433.743 L21.4321 433.743 L21.4321 437.678 L7.3581 437.678 L7.3581 446.15 Q8.37661 445.803 9.39513 445.641 Q10.4136 445.456 11.4322 445.456 Q17.2192 445.456 20.5988 448.627 Q23.9784 451.798 23.9784 457.215 Q23.9784 462.794 20.5062 465.896 Q17.034 468.974 10.7146 468.974 Q8.53865 468.974 6.27014 468.604 Q4.02479 468.233 1.61739 467.493 L1.61739 462.794 Q3.70071 463.928 5.92292 464.484 Q8.14513 465.039 10.622 465.039 Q14.6266 465.039 16.9645 462.933 Q19.3025 460.826 19.3025 457.215 Q19.3025 453.604 16.9645 451.497 Q14.6266 449.391 10.622 449.391 Q8.74698 449.391 6.87199 449.808 Q5.02015 450.224 3.07572 451.104 L3.07572 433.743 Z" fill="#000000" fill-rule="evenodd" fill-opacity="1" /><path clip-path="url(#clip180)" d="M 0 0 M39.0477 436.822 Q35.4367 436.822 33.608 440.386 Q31.8024 443.928 31.8024 451.058 Q31.8024 458.164 33.608 461.729 Q35.4367 465.271 39.0477 465.271 Q42.682 465.271 44.4875 461.729 Q46.3162 458.164 46.3162 451.058 Q46.3162 443.928 44.4875 440.386 Q42.682 436.822 39.0477 436.822 M39.0477 433.118 Q44.8579 433.118 47.9134 437.724 Q50.9921 442.308 50.9921 451.058 Q50.9921 459.784 47.9134 464.391 Q44.8579 468.974 39.0477 468.974 Q33.2376 468.974 30.1589 464.391 Q27.1034 459.784 27.1034 451.058 Q27.1034 442.308 30.1589 437.724 Q33.2376 433.118 39.0477 433.118 Z" fill="#000000" fill-rule="evenodd" fill-opacity="1" /><path clip-path="url(#clip180)" d="M 0 0 M-19.3547 102.299 L-3.03536 102.299 L-3.03536 106.234 L-24.9797 106.234 L-24.9797 102.299 Q-22.3177 99.5446 -17.7344 94.915 Q-13.1279 90.2623 -11.9474 88.9197 Q-9.70199 86.3965 -8.82237 84.6604 Q-7.9196 82.9012 -7.9196 81.2114 Q-7.9196 78.4568 -9.86403 76.7207 Q-11.7853 74.9846 -14.8872 74.9846 Q-17.0862 74.9846 -19.5399 75.7484 Q-21.9704 76.5123 -24.7482 78.0632 L-24.7482 73.341 Q-21.9241 72.2068 -19.4705 71.6281 Q-17.0168 71.0494 -14.9797 71.0494 Q-9.6094 71.0494 -6.41497 73.7346 Q-3.22055 76.4197 -3.22055 80.9105 Q-3.22055 83.0401 -4.03073 84.9614 Q-4.81776 86.8595 -6.92423 89.4521 Q-7.50293 90.1234 -10.6048 93.3409 Q-13.7066 96.5354 -19.3547 102.299 Z" fill="#000000" fill-rule="evenodd" fill-opacity="1" /><path clip-path="url(#clip180)" d="M 0 0 M12.034 74.7531 Q8.42291 74.7531 6.59422 78.3179 Q4.78867 81.8595 4.78867 88.9891 Q4.78867 96.0956 6.59422 99.6604 Q8.42291 103.202 12.034 103.202 Q15.6682 103.202 17.4738 99.6604 Q19.3025 96.0956 19.3025 88.9891 Q19.3025 81.8595 17.4738 78.3179 Q15.6682 74.7531 12.034 74.7531 M12.034 71.0494 Q17.8442 71.0494 20.8997 75.6559 Q23.9784 80.2392 23.9784 88.9891 Q23.9784 97.7159 20.8997 102.322 Q17.8442 106.906 12.034 106.906 Q6.22385 106.906 3.14516 102.322 Q0.089621 97.7159 0.089621 88.9891 Q0.089621 80.2392 3.14516 75.6559 Q6.22385 71.0494 12.034 71.0494 Z" fill="#000000" fill-rule="evenodd" fill-opacity="1" /><path clip-path="url(#clip180)" d="M 0 0 M39.0477 74.7531 Q35.4367 74.7531 33.608 78.3179 Q31.8024 81.8595 31.8024 88.9891 Q31.8024 96.0956 33.608 99.6604 Q35.4367 103.202 39.0477 103.202 Q42.682 103.202 44.4875 99.6604 Q46.3162 96.0956 46.3162 88.9891 Q46.3162 81.8595 44.4875 78.3179 Q42.682 74.7531 39.0477 74.7531 M39.0477 71.0494 Q44.8579 71.0494 47.9134 75.6559 Q50.9921 80.2392 50.9921 88.9891 Q50.9921 97.7159 47.9134 102.322 Q44.8579 106.906 39.0477 106.906 Q33.2376 106.906 30.1589 102.322 Q27.1034 97.7159 27.1034 88.9891 Q27.1034 80.2392 30.1589 75.6559 Q33.2376 71.0494 39.0477 71.0494 Z" fill="#000000" fill-rule="evenodd" fill-opacity="1" /><polyline clip-path="url(#clip182)" style="stroke:#009af9; stroke-width:4; stroke-opacity:1; fill:none" points="
  151.118,1254.82 175.972,1247.57 200.827,1479.3 225.682,1399.64 250.537,1479.3 275.392,1392.4 300.246,1385.16 325.101,1457.57 349.956,1457.57 374.811,1457.57 
  399.666,1450.33 424.52,1464.81 449.375,1312.75 474.23,1392.4 499.085,1421.37 523.94,1298.26 548.794,1450.33 573.649,1421.37 598.504,1464.81 623.359,1450.33 
  648.214,1363.44 673.068,1457.57 697.923,1399.64 722.778,1443.09 747.633,1443.09 772.488,1399.64 797.342,1363.44 822.197,1421.37 847.052,1385.16 871.907,1399.64 
  896.762,1428.61 921.616,1457.57 946.471,1377.92 971.326,1189.64 996.181,1305.5 1021.04,1088.26 1045.89,1153.44 1070.75,1182.4 1095.6,798.609 1120.45,653.781 
  1145.31,501.713 1170.16,88.9544 1195.02,646.54 1219.87,371.368 1244.73,834.816 1269.58,813.091 1294.44,88.9544 1319.29,393.092 1344.15,255.506 1369,88.9544 
  1393.86,88.9544 1418.71,545.161 1443.57,96.1958 1468.42,88.9544 1493.28,291.713 1518.13,88.9544 1542.99,197.575 1567.84,88.9544 1592.7,88.9544 1617.55,88.9544 
  1642.41,88.9544 1667.26,88.9544 1692.12,88.9544 1716.97,88.9544 1741.82,88.9544 1766.68,88.9544 1791.53,277.23 1816.39,168.609 1841.24,88.9544 1866.1,88.9544 
  1890.95,88.9544 1915.81,88.9544 1940.66,88.9544 1965.52,88.9544 1990.37,88.9544 2015.23,88.9544 2040.08,88.9544 2064.94,88.9544 2089.79,88.9544 2114.65,88.9544 
  2139.5,88.9544 2164.36,88.9544 2189.21,88.9544 2214.07,88.9544 2238.92,88.9544 2263.78,88.9544 2288.63,88.9544 
  "/>
<path clip-path="url(#clip180)" d="
M1974.46 217.33 L2277.23 217.33 L2277.23 96.3696 L1974.46 96.3696  Z
  " fill="#ffffff" fill-rule="evenodd" fill-opacity="1"/>
<polyline clip-path="url(#clip180)" style="stroke:#000000; stroke-width:4; stroke-opacity:1; fill:none" points="
  1974.46,217.33 2277.23,217.33 2277.23,96.3696 1974.46,96.3696 1974.46,217.33 
  "/>
<polyline clip-path="url(#clip180)" style="stroke:#009af9; stroke-width:4; stroke-opacity:1; fill:none" points="
  1999.64,156.85 2150.69,156.85 
  "/>
<path clip-path="url(#clip180)" d="M 0 0 M2189.7 176.537 Q2187.9 181.167 2186.19 182.579 Q2184.47 183.991 2181.6 183.991 L2178.2 183.991 L2178.2 180.426 L2180.7 180.426 Q2182.46 180.426 2183.43 179.592 Q2184.4 178.759 2185.58 175.657 L2186.35 173.713 L2175.86 148.204 L2180.38 148.204 L2188.48 168.481 L2196.58 148.204 L2201.09 148.204 L2189.7 176.537 Z" fill="#000000" fill-rule="evenodd" fill-opacity="1" /><path clip-path="url(#clip180)" d="M 0 0 M2206.97 170.194 L2214.61 170.194 L2214.61 143.829 L2206.3 145.495 L2206.3 141.236 L2214.57 139.57 L2219.24 139.57 L2219.24 170.194 L2226.88 170.194 L2226.88 174.13 L2206.97 174.13 L2206.97 170.194 Z" fill="#000000" fill-rule="evenodd" fill-opacity="1" /></svg>
