<?xml version="1.0" encoding="utf-8"?>
<svg xmlns="http://www.w3.org/2000/svg" xmlns:xlink="http://www.w3.org/1999/xlink" width="600" height="400" viewBox="0 0 2400 1600">
<defs>
  <clipPath id="clip270">
    <rect x="0" y="0" width="2400" height="1600"/>
  </clipPath>
</defs>
<path clip-path="url(#clip270)" d="
M0 1600 L2400 1600 L2400 0 L0 0  Z
  " fill="#ffffff" fill-rule="evenodd" fill-opacity="1"/>
<defs>
  <clipPath id="clip271">
    <rect x="480" y="0" width="1681" height="1600"/>
  </clipPath>
</defs>
<path clip-path="url(#clip270)" d="
M86.9921 1521.01 L2352.76 1521.01 L2352.76 47.2441 L86.9921 47.2441  Z
  " fill="#ffffff" fill-rule="evenodd" fill-opacity="1"/>
<defs>
  <clipPath id="clip272">
    <rect x="86" y="47" width="2267" height="1475"/>
  </clipPath>
</defs>
<polyline clip-path="url(#clip272)" style="stroke:#000000; stroke-width:2; stroke-opacity:0.1; fill:none" points="
  122.992,1521.01 122.992,47.2441 
  "/>
<polyline clip-path="url(#clip272)" style="stroke:#000000; stroke-width:2; stroke-opacity:0.1; fill:none" points="
  685.496,1521.01 685.496,47.2441 
  "/>
<polyline clip-path="url(#clip272)" style="stroke:#000000; stroke-width:2; stroke-opacity:0.1; fill:none" points="
  1248,1521.01 1248,47.2441 
  "/>
<polyline clip-path="url(#clip272)" style="stroke:#000000; stroke-width:2; stroke-opacity:0.1; fill:none" points="
  1810.5,1521.01 1810.5,47.2441 
  "/>
<polyline clip-path="url(#clip272)" style="stroke:#000000; stroke-width:2; stroke-opacity:0.1; fill:none" points="
  86.9921,1175.16 2352.76,1175.16 
  "/>
<polyline clip-path="url(#clip272)" style="stroke:#000000; stroke-width:2; stroke-opacity:0.1; fill:none" points="
  86.9921,813.091 2352.76,813.091 
  "/>
<polyline clip-path="url(#clip272)" style="stroke:#000000; stroke-width:2; stroke-opacity:0.1; fill:none" points="
  86.9921,451.023 2352.76,451.023 
  "/>
<polyline clip-path="url(#clip272)" style="stroke:#000000; stroke-width:2; stroke-opacity:0.1; fill:none" points="
  86.9921,88.9544 2352.76,88.9544 
  "/>
<polyline clip-path="url(#clip270)" style="stroke:#000000; stroke-width:4; stroke-opacity:1; fill:none" points="
  86.9921,1521.01 2352.76,1521.01 
  "/>
<polyline clip-path="url(#clip270)" style="stroke:#000000; stroke-width:4; stroke-opacity:1; fill:none" points="
  86.9921,1521.01 86.9921,47.2441 
  "/>
<polyline clip-path="url(#clip270)" style="stroke:#000000; stroke-width:4; stroke-opacity:1; fill:none" points="
  122.992,1521.01 122.992,1503.32 
  "/>
<polyline clip-path="url(#clip270)" style="stroke:#000000; stroke-width:4; stroke-opacity:1; fill:none" points="
  685.496,1521.01 685.496,1503.32 
  "/>
<polyline clip-path="url(#clip270)" style="stroke:#000000; stroke-width:4; stroke-opacity:1; fill:none" points="
  1248,1521.01 1248,1503.32 
  "/>
<polyline clip-path="url(#clip270)" style="stroke:#000000; stroke-width:4; stroke-opacity:1; fill:none" points="
  1810.5,1521.01 1810.5,1503.32 
  "/>
<polyline clip-path="url(#clip270)" style="stroke:#000000; stroke-width:4; stroke-opacity:1; fill:none" points="
  86.9921,1175.16 114.181,1175.16 
  "/>
<polyline clip-path="url(#clip270)" style="stroke:#000000; stroke-width:4; stroke-opacity:1; fill:none" points="
  86.9921,813.091 114.181,813.091 
  "/>
<polyline clip-path="url(#clip270)" style="stroke:#000000; stroke-width:4; stroke-opacity:1; fill:none" points="
  86.9921,451.023 114.181,451.023 
  "/>
<polyline clip-path="url(#clip270)" style="stroke:#000000; stroke-width:4; stroke-opacity:1; fill:none" points="
  86.9921,88.9544 114.181,88.9544 
  "/>
<path clip-path="url(#clip270)" d="M 0 0 M122.992 1543 Q119.381 1543 117.553 1546.56 Q115.747 1550.11 115.747 1557.23 Q115.747 1564.34 117.553 1567.91 Q119.381 1571.45 122.992 1571.45 Q126.627 1571.45 128.432 1567.91 Q130.261 1564.34 130.261 1557.23 Q130.261 1550.11 128.432 1546.56 Q126.627 1543 122.992 1543 M122.992 1539.29 Q128.802 1539.29 131.858 1543.9 Q134.937 1548.48 134.937 1557.23 Q134.937 1565.96 131.858 1570.57 Q128.802 1575.15 122.992 1575.15 Q117.182 1575.15 114.104 1570.57 Q111.048 1565.96 111.048 1557.23 Q111.048 1548.48 114.104 1543.9 Q117.182 1539.29 122.992 1539.29 Z" fill="#000000" fill-rule="evenodd" fill-opacity="1" /><path clip-path="url(#clip270)" d="M 0 0 M666.642 1570.54 L682.961 1570.54 L682.961 1574.48 L661.017 1574.48 L661.017 1570.54 Q663.679 1567.79 668.262 1563.16 Q672.869 1558.51 674.049 1557.17 Q676.294 1554.64 677.174 1552.91 Q678.077 1551.15 678.077 1549.46 Q678.077 1546.7 676.132 1544.97 Q674.211 1543.23 671.109 1543.23 Q668.91 1543.23 666.457 1543.99 Q664.026 1544.76 661.248 1546.31 L661.248 1541.59 Q664.072 1540.45 666.526 1539.87 Q668.98 1539.29 671.017 1539.29 Q676.387 1539.29 679.581 1541.98 Q682.776 1544.67 682.776 1549.16 Q682.776 1551.29 681.966 1553.21 Q681.179 1555.1 679.072 1557.7 Q678.493 1558.37 675.392 1561.59 Q672.29 1564.78 666.642 1570.54 Z" fill="#000000" fill-rule="evenodd" fill-opacity="1" /><path clip-path="url(#clip270)" d="M 0 0 M698.03 1543 Q694.419 1543 692.591 1546.56 Q690.785 1550.11 690.785 1557.23 Q690.785 1564.34 692.591 1567.91 Q694.419 1571.45 698.03 1571.45 Q701.665 1571.45 703.47 1567.91 Q705.299 1564.34 705.299 1557.23 Q705.299 1550.11 703.47 1546.56 Q701.665 1543 698.03 1543 M698.03 1539.29 Q703.841 1539.29 706.896 1543.9 Q709.975 1548.48 709.975 1557.23 Q709.975 1565.96 706.896 1570.57 Q703.841 1575.15 698.03 1575.15 Q692.22 1575.15 689.142 1570.57 Q686.086 1565.96 686.086 1557.23 Q686.086 1548.48 689.142 1543.9 Q692.22 1539.29 698.03 1539.29 Z" fill="#000000" fill-rule="evenodd" fill-opacity="1" /><path clip-path="url(#clip270)" d="M 0 0 M1237.5 1543.99 L1225.7 1562.44 L1237.5 1562.44 L1237.5 1543.99 M1236.27 1539.92 L1242.15 1539.92 L1242.15 1562.44 L1247.08 1562.44 L1247.08 1566.33 L1242.15 1566.33 L1242.15 1574.48 L1237.5 1574.48 L1237.5 1566.33 L1221.9 1566.33 L1221.9 1561.82 L1236.27 1539.92 Z" fill="#000000" fill-rule="evenodd" fill-opacity="1" /><path clip-path="url(#clip270)" d="M 0 0 M1262.15 1543 Q1258.54 1543 1256.71 1546.56 Q1254.91 1550.11 1254.91 1557.23 Q1254.91 1564.34 1256.71 1567.91 Q1258.54 1571.45 1262.15 1571.45 Q1265.79 1571.45 1267.59 1567.91 Q1269.42 1564.34 1269.42 1557.23 Q1269.42 1550.11 1267.59 1546.56 Q1265.79 1543 1262.15 1543 M1262.15 1539.29 Q1267.96 1539.29 1271.02 1543.9 Q1274.1 1548.48 1274.1 1557.23 Q1274.1 1565.96 1271.02 1570.57 Q1267.96 1575.15 1262.15 1575.15 Q1256.34 1575.15 1253.27 1570.57 Q1250.21 1565.96 1250.21 1557.23 Q1250.21 1548.48 1253.27 1543.9 Q1256.34 1539.29 1262.15 1539.29 Z" fill="#000000" fill-rule="evenodd" fill-opacity="1" /><path clip-path="url(#clip270)" d="M 0 0 M1797.4 1555.34 Q1794.25 1555.34 1792.4 1557.49 Q1790.57 1559.64 1790.57 1563.39 Q1790.57 1567.12 1792.4 1569.29 Q1794.25 1571.45 1797.4 1571.45 Q1800.55 1571.45 1802.38 1569.29 Q1804.23 1567.12 1804.23 1563.39 Q1804.23 1559.64 1802.38 1557.49 Q1800.55 1555.34 1797.4 1555.34 M1806.68 1540.68 L1806.68 1544.94 Q1804.92 1544.11 1803.12 1543.67 Q1801.34 1543.23 1799.58 1543.23 Q1794.95 1543.23 1792.49 1546.36 Q1790.06 1549.48 1789.72 1555.8 Q1791.08 1553.79 1793.14 1552.72 Q1795.2 1551.63 1797.68 1551.63 Q1802.89 1551.63 1805.9 1554.8 Q1808.93 1557.95 1808.93 1563.39 Q1808.93 1568.72 1805.78 1571.93 Q1802.63 1575.15 1797.4 1575.15 Q1791.41 1575.15 1788.23 1570.57 Q1785.06 1565.96 1785.06 1557.23 Q1785.06 1549.04 1788.95 1544.18 Q1792.84 1539.29 1799.39 1539.29 Q1801.15 1539.29 1802.93 1539.64 Q1804.74 1539.99 1806.68 1540.68 Z" fill="#000000" fill-rule="evenodd" fill-opacity="1" /><path clip-path="url(#clip270)" d="M 0 0 M1824 1543 Q1820.39 1543 1818.56 1546.56 Q1816.75 1550.11 1816.75 1557.23 Q1816.75 1564.34 1818.56 1567.91 Q1820.39 1571.45 1824 1571.45 Q1827.63 1571.45 1829.44 1567.91 Q1831.27 1564.34 1831.27 1557.23 Q1831.27 1550.11 1829.44 1546.56 Q1827.63 1543 1824 1543 M1824 1539.29 Q1829.81 1539.29 1832.86 1543.9 Q1835.94 1548.48 1835.94 1557.23 Q1835.94 1565.96 1832.86 1570.57 Q1829.81 1575.15 1824 1575.15 Q1818.19 1575.15 1815.11 1570.57 Q1812.05 1565.96 1812.05 1557.23 Q1812.05 1548.48 1815.11 1543.9 Q1818.19 1539.29 1824 1539.29 Z" fill="#000000" fill-rule="evenodd" fill-opacity="1" /><path clip-path="url(#clip270)" d="M 0 0 M15.0757 1157.88 L33.4321 1157.88 L33.4321 1161.82 L19.3581 1161.82 L19.3581 1170.29 Q20.3766 1169.94 21.3951 1169.78 Q22.4136 1169.59 23.4322 1169.59 Q29.2192 1169.59 32.5988 1172.76 Q35.9784 1175.94 35.9784 1181.35 Q35.9784 1186.93 32.5062 1190.03 Q29.034 1193.11 22.7146 1193.11 Q20.5386 1193.11 18.2701 1192.74 Q16.0248 1192.37 13.6174 1191.63 L13.6174 1186.93 Q15.7007 1188.07 17.9229 1188.62 Q20.1451 1189.18 22.622 1189.18 Q26.6266 1189.18 28.9645 1187.07 Q31.3025 1184.96 31.3025 1181.35 Q31.3025 1177.74 28.9645 1175.63 Q26.6266 1173.53 22.622 1173.53 Q20.747 1173.53 18.872 1173.94 Q17.0202 1174.36 15.0757 1175.24 L15.0757 1157.88 Z" fill="#000000" fill-rule="evenodd" fill-opacity="1" /><path clip-path="url(#clip270)" d="M 0 0 M51.0477 1160.96 Q47.4367 1160.96 45.608 1164.52 Q43.8024 1168.07 43.8024 1175.19 Q43.8024 1182.3 45.608 1185.87 Q47.4367 1189.41 51.0477 1189.41 Q54.682 1189.41 56.4875 1185.87 Q58.3162 1182.3 58.3162 1175.19 Q58.3162 1168.07 56.4875 1164.52 Q54.682 1160.96 51.0477 1160.96 M51.0477 1157.26 Q56.8579 1157.26 59.9134 1161.86 Q62.9921 1166.44 62.9921 1175.19 Q62.9921 1183.92 59.9134 1188.53 Q56.8579 1193.11 51.0477 1193.11 Q45.2376 1193.11 42.1589 1188.53 Q39.1034 1183.92 39.1034 1175.19 Q39.1034 1166.44 42.1589 1161.86 Q45.2376 1157.26 51.0477 1157.26 Z" fill="#000000" fill-rule="evenodd" fill-opacity="1" /><path clip-path="url(#clip270)" d="M 0 0 M-10.9427 826.436 L-3.30382 826.436 L-3.30382 800.071 L-11.614 801.737 L-11.614 797.478 L-3.35011 795.811 L1.32579 795.811 L1.32579 826.436 L8.96464 826.436 L8.96464 830.371 L-10.9427 830.371 L-10.9427 826.436 Z" fill="#000000" fill-rule="evenodd" fill-opacity="1" /><path clip-path="url(#clip270)" d="M 0 0 M24.034 798.89 Q20.4229 798.89 18.5942 802.455 Q16.7887 805.997 16.7887 813.126 Q16.7887 820.233 18.5942 823.797 Q20.4229 827.339 24.034 827.339 Q27.6682 827.339 29.4738 823.797 Q31.3025 820.233 31.3025 813.126 Q31.3025 805.997 29.4738 802.455 Q27.6682 798.89 24.034 798.89 M24.034 795.186 Q29.8442 795.186 32.8997 799.793 Q35.9784 804.376 35.9784 813.126 Q35.9784 821.853 32.8997 826.459 Q29.8442 831.043 24.034 831.043 Q18.2238 831.043 15.1452 826.459 Q12.0896 821.853 12.0896 813.126 Q12.0896 804.376 15.1452 799.793 Q18.2238 795.186 24.034 795.186 Z" fill="#000000" fill-rule="evenodd" fill-opacity="1" /><path clip-path="url(#clip270)" d="M 0 0 M51.0477 798.89 Q47.4367 798.89 45.608 802.455 Q43.8024 805.997 43.8024 813.126 Q43.8024 820.233 45.608 823.797 Q47.4367 827.339 51.0477 827.339 Q54.682 827.339 56.4875 823.797 Q58.3162 820.233 58.3162 813.126 Q58.3162 805.997 56.4875 802.455 Q54.682 798.89 51.0477 798.89 M51.0477 795.186 Q56.8579 795.186 59.9134 799.793 Q62.9921 804.376 62.9921 813.126 Q62.9921 821.853 59.9134 826.459 Q56.8579 831.043 51.0477 831.043 Q45.2376 831.043 42.1589 826.459 Q39.1034 821.853 39.1034 813.126 Q39.1034 804.376 42.1589 799.793 Q45.2376 795.186 51.0477 795.186 Z" fill="#000000" fill-rule="evenodd" fill-opacity="1" /><path clip-path="url(#clip270)" d="M 0 0 M-9.9473 464.368 L-2.30845 464.368 L-2.30845 438.002 L-10.6186 439.669 L-10.6186 435.41 L-2.35475 433.743 L2.32115 433.743 L2.32115 464.368 L9.96 464.368 L9.96 468.303 L-9.9473 468.303 L-9.9473 464.368 Z" fill="#000000" fill-rule="evenodd" fill-opacity="1" /><path clip-path="url(#clip270)" d="M 0 0 M15.0757 433.743 L33.4321 433.743 L33.4321 437.678 L19.3581 437.678 L19.3581 446.15 Q20.3766 445.803 21.3951 445.641 Q22.4136 445.456 23.4322 445.456 Q29.2192 445.456 32.5988 448.627 Q35.9784 451.798 35.9784 457.215 Q35.9784 462.794 32.5062 465.896 Q29.034 468.974 22.7146 468.974 Q20.5386 468.974 18.2701 468.604 Q16.0248 468.233 13.6174 467.493 L13.6174 462.794 Q15.7007 463.928 17.9229 464.484 Q20.1451 465.039 22.622 465.039 Q26.6266 465.039 28.9645 462.933 Q31.3025 460.826 31.3025 457.215 Q31.3025 453.604 28.9645 451.497 Q26.6266 449.391 22.622 449.391 Q20.747 449.391 18.872 449.808 Q17.0202 450.224 15.0757 451.104 L15.0757 433.743 Z" fill="#000000" fill-rule="evenodd" fill-opacity="1" /><path clip-path="url(#clip270)" d="M 0 0 M51.0477 436.822 Q47.4367 436.822 45.608 440.386 Q43.8024 443.928 43.8024 451.058 Q43.8024 458.164 45.608 461.729 Q47.4367 465.271 51.0477 465.271 Q54.682 465.271 56.4875 461.729 Q58.3162 458.164 58.3162 451.058 Q58.3162 443.928 56.4875 440.386 Q54.682 436.822 51.0477 436.822 M51.0477 433.118 Q56.8579 433.118 59.9134 437.724 Q62.9921 442.308 62.9921 451.058 Q62.9921 459.784 59.9134 464.391 Q56.8579 468.974 51.0477 468.974 Q45.2376 468.974 42.1589 464.391 Q39.1034 459.784 39.1034 451.058 Q39.1034 442.308 42.1589 437.724 Q45.2376 433.118 51.0477 433.118 Z" fill="#000000" fill-rule="evenodd" fill-opacity="1" /><path clip-path="url(#clip270)" d="M 0 0 M-7.35472 102.299 L8.96464 102.299 L8.96464 106.234 L-12.9797 106.234 L-12.9797 102.299 Q-10.3177 99.5446 -5.73436 94.915 Q-1.1279 90.2623 0.0526484 88.9197 Q2.29801 86.3965 3.17763 84.6604 Q4.0804 82.9012 4.0804 81.2114 Q4.0804 78.4568 2.13597 76.7207 Q0.214685 74.9846 -2.88715 74.9846 Q-5.08621 74.9846 -7.5399 75.7484 Q-9.97045 76.5123 -12.7482 78.0632 L-12.7482 73.341 Q-9.92415 72.2068 -7.47046 71.6281 Q-5.01677 71.0494 -2.97974 71.0494 Q2.3906 71.0494 5.58503 73.7346 Q8.77945 76.4197 8.77945 80.9105 Q8.77945 83.0401 7.96927 84.9614 Q7.18224 86.8595 5.07577 89.4521 Q4.49707 90.1234 1.39523 93.3409 Q-1.7066 96.5354 -7.35472 102.299 Z" fill="#000000" fill-rule="evenodd" fill-opacity="1" /><path clip-path="url(#clip270)" d="M 0 0 M24.034 74.7531 Q20.4229 74.7531 18.5942 78.3179 Q16.7887 81.8595 16.7887 88.9891 Q16.7887 96.0956 18.5942 99.6604 Q20.4229 103.202 24.034 103.202 Q27.6682 103.202 29.4738 99.6604 Q31.3025 96.0956 31.3025 88.9891 Q31.3025 81.8595 29.4738 78.3179 Q27.6682 74.7531 24.034 74.7531 M24.034 71.0494 Q29.8442 71.0494 32.8997 75.6559 Q35.9784 80.2392 35.9784 88.9891 Q35.9784 97.7159 32.8997 102.322 Q29.8442 106.906 24.034 106.906 Q18.2238 106.906 15.1452 102.322 Q12.0896 97.7159 12.0896 88.9891 Q12.0896 80.2392 15.1452 75.6559 Q18.2238 71.0494 24.034 71.0494 Z" fill="#000000" fill-rule="evenodd" fill-opacity="1" /><path clip-path="url(#clip270)" d="M 0 0 M51.0477 74.7531 Q47.4367 74.7531 45.608 78.3179 Q43.8024 81.8595 43.8024 88.9891 Q43.8024 96.0956 45.608 99.6604 Q47.4367 103.202 51.0477 103.202 Q54.682 103.202 56.4875 99.6604 Q58.3162 96.0956 58.3162 88.9891 Q58.3162 81.8595 56.4875 78.3179 Q54.682 74.7531 51.0477 74.7531 M51.0477 71.0494 Q56.8579 71.0494 59.9134 75.6559 Q62.9921 80.2392 62.9921 88.9891 Q62.9921 97.7159 59.9134 102.322 Q56.8579 106.906 51.0477 106.906 Q45.2376 106.906 42.1589 102.322 Q39.1034 97.7159 39.1034 88.9891 Q39.1034 80.2392 42.1589 75.6559 Q45.2376 71.0494 51.0477 71.0494 Z" fill="#000000" fill-rule="evenodd" fill-opacity="1" /><polyline clip-path="url(#clip272)" style="stroke:#009af9; stroke-width:4; stroke-opacity:1; fill:none" points="
  151.118,1443.09 179.243,1472.06 207.368,1406.88 235.493,1254.82 263.618,1457.57 291.743,1464.81 319.869,1001.37 347.994,1457.57 376.119,1464.81 404.244,1088.26 
  432.369,1341.71 460.494,1283.78 488.62,1146.19 516.745,1479.3 544.87,1399.64 572.995,1189.64 601.12,1421.37 629.245,1262.06 657.371,1153.44 685.496,1377.92 
  713.621,1269.3 741.746,1428.61 769.871,1443.09 797.996,1160.68 826.122,1059.3 854.247,1124.47 882.372,1319.99 910.497,639.299 938.622,88.9544 966.747,878.264 
  994.873,1008.61 1023,530.678 1051.12,718.954 1079.25,914.471 1107.37,878.264 1135.5,899.988 1163.62,88.9544 1191.75,545.161 1219.87,668.264 1248,233.782 
  1276.12,277.23 1304.25,385.851 1332.37,175.851 1360.5,88.9544 1388.63,88.9544 1416.75,88.9544 1444.88,88.9544 1473,306.196 1501.13,88.9544 1529.25,103.437 
  1557.38,88.9544 1585.5,88.9544 1613.63,88.9544 1641.75,88.9544 1669.88,190.334 1698,88.9544 1726.13,88.9544 1754.25,88.9544 1782.38,88.9544 1810.5,88.9544 
  1838.63,88.9544 1866.75,88.9544 1894.88,88.9544 1923,88.9544 1951.13,88.9544 1979.25,88.9544 2007.38,88.9544 2035.5,88.9544 2063.63,88.9544 2091.75,88.9544 
  2119.88,88.9544 2148,88.9544 2176.13,88.9544 2204.26,88.9544 2232.38,88.9544 2260.51,88.9544 2288.63,88.9544 
  "/>
<path clip-path="url(#clip270)" d="
M1989.74 251.724 L2280.76 251.724 L2280.76 130.764 L1989.74 130.764  Z
  " fill="#ffffff" fill-rule="evenodd" fill-opacity="1"/>
<polyline clip-path="url(#clip270)" style="stroke:#000000; stroke-width:4; stroke-opacity:1; fill:none" points="
  1989.74,251.724 2280.76,251.724 2280.76,130.764 1989.74,130.764 1989.74,251.724 
  "/>
<polyline clip-path="url(#clip270)" style="stroke:#009af9; stroke-width:4; stroke-opacity:1; fill:none" points="
  2013.74,191.244 2157.74,191.244 
  "/>
<path clip-path="url(#clip270)" d="M 0 0 M2195.58 210.931 Q2193.77 215.561 2192.06 216.973 Q2190.35 218.385 2187.48 218.385 L2184.08 218.385 L2184.08 214.82 L2186.58 214.82 Q2188.33 214.82 2189.31 213.987 Q2190.28 213.154 2191.46 210.052 L2192.22 208.107 L2181.74 182.598 L2186.25 182.598 L2194.35 202.876 L2202.46 182.598 L2206.97 182.598 L2195.58 210.931 Z" fill="#000000" fill-rule="evenodd" fill-opacity="1" /><path clip-path="url(#clip270)" d="M 0 0 M2212.85 204.589 L2220.49 204.589 L2220.49 178.223 L2212.18 179.89 L2212.18 175.631 L2220.44 173.964 L2225.12 173.964 L2225.12 204.589 L2232.76 204.589 L2232.76 208.524 L2212.85 208.524 L2212.85 204.589 Z" fill="#000000" fill-rule="evenodd" fill-opacity="1" /></svg>
