<?xml version="1.0" encoding="utf-8"?>
<svg xmlns="http://www.w3.org/2000/svg" xmlns:xlink="http://www.w3.org/1999/xlink" width="600" height="400" viewBox="0 0 2400 1600">
<defs>
  <clipPath id="clip760">
    <rect x="0" y="0" width="2400" height="1600"/>
  </clipPath>
</defs>
<path clip-path="url(#clip760)" d="
M0 1600 L2400 1600 L2400 0 L0 0  Z
  " fill="#ffffff" fill-rule="evenodd" fill-opacity="1"/>
<defs>
  <clipPath id="clip761">
    <rect x="480" y="0" width="1681" height="1600"/>
  </clipPath>
</defs>
<path clip-path="url(#clip760)" d="
M86.9921 1521.01 L2352.76 1521.01 L2352.76 47.2441 L86.9921 47.2441  Z
  " fill="#ffffff" fill-rule="evenodd" fill-opacity="1"/>
<defs>
  <clipPath id="clip762">
    <rect x="86" y="47" width="2267" height="1475"/>
  </clipPath>
</defs>
<polyline clip-path="url(#clip762)" style="stroke:#000000; stroke-width:2; stroke-opacity:0.1; fill:none" points="
  127.884,1521.01 127.884,47.2441 
  "/>
<polyline clip-path="url(#clip762)" style="stroke:#000000; stroke-width:2; stroke-opacity:0.1; fill:none" points="
  592.56,1521.01 592.56,47.2441 
  "/>
<polyline clip-path="url(#clip762)" style="stroke:#000000; stroke-width:2; stroke-opacity:0.1; fill:none" points="
  1057.24,1521.01 1057.24,47.2441 
  "/>
<polyline clip-path="url(#clip762)" style="stroke:#000000; stroke-width:2; stroke-opacity:0.1; fill:none" points="
  1521.91,1521.01 1521.91,47.2441 
  "/>
<polyline clip-path="url(#clip762)" style="stroke:#000000; stroke-width:2; stroke-opacity:0.1; fill:none" points="
  1986.59,1521.01 1986.59,47.2441 
  "/>
<polyline clip-path="url(#clip762)" style="stroke:#000000; stroke-width:2; stroke-opacity:0.1; fill:none" points="
  86.9921,1175.16 2352.76,1175.16 
  "/>
<polyline clip-path="url(#clip762)" style="stroke:#000000; stroke-width:2; stroke-opacity:0.1; fill:none" points="
  86.9921,813.091 2352.76,813.091 
  "/>
<polyline clip-path="url(#clip762)" style="stroke:#000000; stroke-width:2; stroke-opacity:0.1; fill:none" points="
  86.9921,451.023 2352.76,451.023 
  "/>
<polyline clip-path="url(#clip762)" style="stroke:#000000; stroke-width:2; stroke-opacity:0.1; fill:none" points="
  86.9921,88.9544 2352.76,88.9544 
  "/>
<polyline clip-path="url(#clip760)" style="stroke:#000000; stroke-width:4; stroke-opacity:1; fill:none" points="
  86.9921,1521.01 2352.76,1521.01 
  "/>
<polyline clip-path="url(#clip760)" style="stroke:#000000; stroke-width:4; stroke-opacity:1; fill:none" points="
  86.9921,1521.01 86.9921,47.2441 
  "/>
<polyline clip-path="url(#clip760)" style="stroke:#000000; stroke-width:4; stroke-opacity:1; fill:none" points="
  127.884,1521.01 127.884,1503.32 
  "/>
<polyline clip-path="url(#clip760)" style="stroke:#000000; stroke-width:4; stroke-opacity:1; fill:none" points="
  592.56,1521.01 592.56,1503.32 
  "/>
<polyline clip-path="url(#clip760)" style="stroke:#000000; stroke-width:4; stroke-opacity:1; fill:none" points="
  1057.24,1521.01 1057.24,1503.32 
  "/>
<polyline clip-path="url(#clip760)" style="stroke:#000000; stroke-width:4; stroke-opacity:1; fill:none" points="
  1521.91,1521.01 1521.91,1503.32 
  "/>
<polyline clip-path="url(#clip760)" style="stroke:#000000; stroke-width:4; stroke-opacity:1; fill:none" points="
  1986.59,1521.01 1986.59,1503.32 
  "/>
<polyline clip-path="url(#clip760)" style="stroke:#000000; stroke-width:4; stroke-opacity:1; fill:none" points="
  86.9921,1175.16 114.181,1175.16 
  "/>
<polyline clip-path="url(#clip760)" style="stroke:#000000; stroke-width:4; stroke-opacity:1; fill:none" points="
  86.9921,813.091 114.181,813.091 
  "/>
<polyline clip-path="url(#clip760)" style="stroke:#000000; stroke-width:4; stroke-opacity:1; fill:none" points="
  86.9921,451.023 114.181,451.023 
  "/>
<polyline clip-path="url(#clip760)" style="stroke:#000000; stroke-width:4; stroke-opacity:1; fill:none" points="
  86.9921,88.9544 114.181,88.9544 
  "/>
<path clip-path="url(#clip760)" d="M 0 0 M127.884 1543 Q124.273 1543 122.444 1546.56 Q120.638 1550.11 120.638 1557.23 Q120.638 1564.34 122.444 1567.91 Q124.273 1571.45 127.884 1571.45 Q131.518 1571.45 133.323 1567.91 Q135.152 1564.34 135.152 1557.23 Q135.152 1550.11 133.323 1546.56 Q131.518 1543 127.884 1543 M127.884 1539.29 Q133.694 1539.29 136.749 1543.9 Q139.828 1548.48 139.828 1557.23 Q139.828 1565.96 136.749 1570.57 Q133.694 1575.15 127.884 1575.15 Q122.074 1575.15 118.995 1570.57 Q115.939 1565.96 115.939 1557.23 Q115.939 1548.48 118.995 1543.9 Q122.074 1539.29 127.884 1539.29 Z" fill="#000000" fill-rule="evenodd" fill-opacity="1" /><path clip-path="url(#clip760)" d="M 0 0 M573.706 1570.54 L590.026 1570.54 L590.026 1574.48 L568.081 1574.48 L568.081 1570.54 Q570.743 1567.79 575.327 1563.16 Q579.933 1558.51 581.114 1557.17 Q583.359 1554.64 584.239 1552.91 Q585.141 1551.15 585.141 1549.46 Q585.141 1546.7 583.197 1544.97 Q581.276 1543.23 578.174 1543.23 Q575.975 1543.23 573.521 1543.99 Q571.091 1544.76 568.313 1546.31 L568.313 1541.59 Q571.137 1540.45 573.591 1539.87 Q576.044 1539.29 578.081 1539.29 Q583.452 1539.29 586.646 1541.98 Q589.841 1544.67 589.841 1549.16 Q589.841 1551.29 589.03 1553.21 Q588.243 1555.1 586.137 1557.7 Q585.558 1558.37 582.456 1561.59 Q579.354 1564.78 573.706 1570.54 Z" fill="#000000" fill-rule="evenodd" fill-opacity="1" /><path clip-path="url(#clip760)" d="M 0 0 M605.095 1543 Q601.484 1543 599.655 1546.56 Q597.85 1550.11 597.85 1557.23 Q597.85 1564.34 599.655 1567.91 Q601.484 1571.45 605.095 1571.45 Q608.729 1571.45 610.535 1567.91 Q612.364 1564.34 612.364 1557.23 Q612.364 1550.11 610.535 1546.56 Q608.729 1543 605.095 1543 M605.095 1539.29 Q610.905 1539.29 613.961 1543.9 Q617.039 1548.48 617.039 1557.23 Q617.039 1565.96 613.961 1570.57 Q610.905 1575.15 605.095 1575.15 Q599.285 1575.15 596.206 1570.57 Q593.151 1565.96 593.151 1557.23 Q593.151 1548.48 596.206 1543.9 Q599.285 1539.29 605.095 1539.29 Z" fill="#000000" fill-rule="evenodd" fill-opacity="1" /><path clip-path="url(#clip760)" d="M 0 0 M1046.74 1543.99 L1034.93 1562.44 L1046.74 1562.44 L1046.74 1543.99 M1045.51 1539.92 L1051.39 1539.92 L1051.39 1562.44 L1056.32 1562.44 L1056.32 1566.33 L1051.39 1566.33 L1051.39 1574.48 L1046.74 1574.48 L1046.74 1566.33 L1031.14 1566.33 L1031.14 1561.82 L1045.51 1539.92 Z" fill="#000000" fill-rule="evenodd" fill-opacity="1" /><path clip-path="url(#clip760)" d="M 0 0 M1071.39 1543 Q1067.78 1543 1065.95 1546.56 Q1064.15 1550.11 1064.15 1557.23 Q1064.15 1564.34 1065.95 1567.91 Q1067.78 1571.45 1071.39 1571.45 Q1075.03 1571.45 1076.83 1567.91 Q1078.66 1564.34 1078.66 1557.23 Q1078.66 1550.11 1076.83 1546.56 Q1075.03 1543 1071.39 1543 M1071.39 1539.29 Q1077.2 1539.29 1080.26 1543.9 Q1083.34 1548.48 1083.34 1557.23 Q1083.34 1565.96 1080.26 1570.57 Q1077.2 1575.15 1071.39 1575.15 Q1065.58 1575.15 1062.5 1570.57 Q1059.45 1565.96 1059.45 1557.23 Q1059.45 1548.48 1062.5 1543.9 Q1065.58 1539.29 1071.39 1539.29 Z" fill="#000000" fill-rule="evenodd" fill-opacity="1" /><path clip-path="url(#clip760)" d="M 0 0 M1508.81 1555.34 Q1505.66 1555.34 1503.81 1557.49 Q1501.98 1559.64 1501.98 1563.39 Q1501.98 1567.12 1503.81 1569.29 Q1505.66 1571.45 1508.81 1571.45 Q1511.96 1571.45 1513.79 1569.29 Q1515.64 1567.12 1515.64 1563.39 Q1515.64 1559.64 1513.79 1557.49 Q1511.96 1555.34 1508.81 1555.34 M1518.09 1540.68 L1518.09 1544.94 Q1516.34 1544.11 1514.53 1543.67 Q1512.75 1543.23 1510.99 1543.23 Q1506.36 1543.23 1503.9 1546.36 Q1501.47 1549.48 1501.13 1555.8 Q1502.49 1553.79 1504.55 1552.72 Q1506.61 1551.63 1509.09 1551.63 Q1514.3 1551.63 1517.31 1554.8 Q1520.34 1557.95 1520.34 1563.39 Q1520.34 1568.72 1517.19 1571.93 Q1514.04 1575.15 1508.81 1575.15 Q1502.82 1575.15 1499.65 1570.57 Q1496.47 1565.96 1496.47 1557.23 Q1496.47 1549.04 1500.36 1544.18 Q1504.25 1539.29 1510.8 1539.29 Q1512.56 1539.29 1514.34 1539.64 Q1516.15 1539.99 1518.09 1540.68 Z" fill="#000000" fill-rule="evenodd" fill-opacity="1" /><path clip-path="url(#clip760)" d="M 0 0 M1535.41 1543 Q1531.8 1543 1529.97 1546.56 Q1528.16 1550.11 1528.16 1557.23 Q1528.16 1564.34 1529.97 1567.91 Q1531.8 1571.45 1535.41 1571.45 Q1539.04 1571.45 1540.85 1567.91 Q1542.68 1564.34 1542.68 1557.23 Q1542.68 1550.11 1540.85 1546.56 Q1539.04 1543 1535.41 1543 M1535.41 1539.29 Q1541.22 1539.29 1544.27 1543.9 Q1547.35 1548.48 1547.35 1557.23 Q1547.35 1565.96 1544.27 1570.57 Q1541.22 1575.15 1535.41 1575.15 Q1529.6 1575.15 1526.52 1570.57 Q1523.46 1565.96 1523.46 1557.23 Q1523.46 1548.48 1526.52 1543.9 Q1529.6 1539.29 1535.41 1539.29 Z" fill="#000000" fill-rule="evenodd" fill-opacity="1" /><path clip-path="url(#clip760)" d="M 0 0 M1973.08 1558.07 Q1969.75 1558.07 1967.83 1559.85 Q1965.93 1561.63 1965.93 1564.76 Q1965.93 1567.88 1967.83 1569.67 Q1969.75 1571.45 1973.08 1571.45 Q1976.42 1571.45 1978.34 1569.67 Q1980.26 1567.86 1980.26 1564.76 Q1980.26 1561.63 1978.34 1559.85 Q1976.44 1558.07 1973.08 1558.07 M1968.41 1556.08 Q1965.4 1555.34 1963.71 1553.28 Q1962.04 1551.22 1962.04 1548.25 Q1962.04 1544.11 1964.98 1541.7 Q1967.94 1539.29 1973.08 1539.29 Q1978.25 1539.29 1981.19 1541.7 Q1984.13 1544.11 1984.13 1548.25 Q1984.13 1551.22 1982.44 1553.28 Q1980.77 1555.34 1977.78 1556.08 Q1981.16 1556.86 1983.04 1559.16 Q1984.94 1561.45 1984.94 1564.76 Q1984.94 1569.78 1981.86 1572.47 Q1978.8 1575.15 1973.08 1575.15 Q1967.37 1575.15 1964.29 1572.47 Q1961.23 1569.78 1961.23 1564.76 Q1961.23 1561.45 1963.13 1559.16 Q1965.03 1556.86 1968.41 1556.08 M1966.69 1548.69 Q1966.69 1551.38 1968.36 1552.88 Q1970.05 1554.39 1973.08 1554.39 Q1976.09 1554.39 1977.78 1552.88 Q1979.5 1551.38 1979.5 1548.69 Q1979.5 1546.01 1977.78 1544.5 Q1976.09 1543 1973.08 1543 Q1970.05 1543 1968.36 1544.5 Q1966.69 1546.01 1966.69 1548.69 Z" fill="#000000" fill-rule="evenodd" fill-opacity="1" /><path clip-path="url(#clip760)" d="M 0 0 M2000 1543 Q1996.39 1543 1994.57 1546.56 Q1992.76 1550.11 1992.76 1557.23 Q1992.76 1564.34 1994.57 1567.91 Q1996.39 1571.45 2000 1571.45 Q2003.64 1571.45 2005.44 1567.91 Q2007.27 1564.34 2007.27 1557.23 Q2007.27 1550.11 2005.44 1546.56 Q2003.64 1543 2000 1543 M2000 1539.29 Q2005.82 1539.29 2008.87 1543.9 Q2011.95 1548.48 2011.95 1557.23 Q2011.95 1565.96 2008.87 1570.57 Q2005.82 1575.15 2000 1575.15 Q1994.19 1575.15 1991.12 1570.57 Q1988.06 1565.96 1988.06 1557.23 Q1988.06 1548.48 1991.12 1543.9 Q1994.19 1539.29 2000 1539.29 Z" fill="#000000" fill-rule="evenodd" fill-opacity="1" /><path clip-path="url(#clip760)" d="M 0 0 M15.0757 1157.88 L33.4321 1157.88 L33.4321 1161.82 L19.3581 1161.82 L19.3581 1170.29 Q20.3766 1169.94 21.3951 1169.78 Q22.4136 1169.59 23.4322 1169.59 Q29.2192 1169.59 32.5988 1172.76 Q35.9784 1175.94 35.9784 1181.35 Q35.9784 1186.93 32.5062 1190.03 Q29.034 1193.11 22.7146 1193.11 Q20.5386 1193.11 18.2701 1192.74 Q16.0248 1192.37 13.6174 1191.63 L13.6174 1186.93 Q15.7007 1188.07 17.9229 1188.62 Q20.1451 1189.18 22.622 1189.18 Q26.6266 1189.18 28.9645 1187.07 Q31.3025 1184.96 31.3025 1181.35 Q31.3025 1177.74 28.9645 1175.63 Q26.6266 1173.53 22.622 1173.53 Q20.747 1173.53 18.872 1173.94 Q17.0202 1174.36 15.0757 1175.24 L15.0757 1157.88 Z" fill="#000000" fill-rule="evenodd" fill-opacity="1" /><path clip-path="url(#clip760)" d="M 0 0 M51.0477 1160.96 Q47.4367 1160.96 45.608 1164.52 Q43.8024 1168.07 43.8024 1175.19 Q43.8024 1182.3 45.608 1185.87 Q47.4367 1189.41 51.0477 1189.41 Q54.682 1189.41 56.4875 1185.87 Q58.3162 1182.3 58.3162 1175.19 Q58.3162 1168.07 56.4875 1164.52 Q54.682 1160.96 51.0477 1160.96 M51.0477 1157.26 Q56.8579 1157.26 59.9134 1161.86 Q62.9921 1166.44 62.9921 1175.19 Q62.9921 1183.92 59.9134 1188.53 Q56.8579 1193.11 51.0477 1193.11 Q45.2376 1193.11 42.1589 1188.53 Q39.1034 1183.92 39.1034 1175.19 Q39.1034 1166.44 42.1589 1161.86 Q45.2376 1157.26 51.0477 1157.26 Z" fill="#000000" fill-rule="evenodd" fill-opacity="1" /><path clip-path="url(#clip760)" d="M 0 0 M-10.9427 826.436 L-3.30382 826.436 L-3.30382 800.071 L-11.614 801.737 L-11.614 797.478 L-3.35011 795.811 L1.32579 795.811 L1.32579 826.436 L8.96464 826.436 L8.96464 830.371 L-10.9427 830.371 L-10.9427 826.436 Z" fill="#000000" fill-rule="evenodd" fill-opacity="1" /><path clip-path="url(#clip760)" d="M 0 0 M24.034 798.89 Q20.4229 798.89 18.5942 802.455 Q16.7887 805.997 16.7887 813.126 Q16.7887 820.233 18.5942 823.797 Q20.4229 827.339 24.034 827.339 Q27.6682 827.339 29.4738 823.797 Q31.3025 820.233 31.3025 813.126 Q31.3025 805.997 29.4738 802.455 Q27.6682 798.89 24.034 798.89 M24.034 795.186 Q29.8442 795.186 32.8997 799.793 Q35.9784 804.376 35.9784 813.126 Q35.9784 821.853 32.8997 826.459 Q29.8442 831.043 24.034 831.043 Q18.2238 831.043 15.1452 826.459 Q12.0896 821.853 12.0896 813.126 Q12.0896 804.376 15.1452 799.793 Q18.2238 795.186 24.034 795.186 Z" fill="#000000" fill-rule="evenodd" fill-opacity="1" /><path clip-path="url(#clip760)" d="M 0 0 M51.0477 798.89 Q47.4367 798.89 45.608 802.455 Q43.8024 805.997 43.8024 813.126 Q43.8024 820.233 45.608 823.797 Q47.4367 827.339 51.0477 827.339 Q54.682 827.339 56.4875 823.797 Q58.3162 820.233 58.3162 813.126 Q58.3162 805.997 56.4875 802.455 Q54.682 798.89 51.0477 798.89 M51.0477 795.186 Q56.8579 795.186 59.9134 799.793 Q62.9921 804.376 62.9921 813.126 Q62.9921 821.853 59.9134 826.459 Q56.8579 831.043 51.0477 831.043 Q45.2376 831.043 42.1589 826.459 Q39.1034 821.853 39.1034 813.126 Q39.1034 804.376 42.1589 799.793 Q45.2376 795.186 51.0477 795.186 Z" fill="#000000" fill-rule="evenodd" fill-opacity="1" /><path clip-path="url(#clip760)" d="M 0 0 M-9.9473 464.368 L-2.30845 464.368 L-2.30845 438.002 L-10.6186 439.669 L-10.6186 435.41 L-2.35475 433.743 L2.32115 433.743 L2.32115 464.368 L9.96 464.368 L9.96 468.303 L-9.9473 468.303 L-9.9473 464.368 Z" fill="#000000" fill-rule="evenodd" fill-opacity="1" /><path clip-path="url(#clip760)" d="M 0 0 M15.0757 433.743 L33.4321 433.743 L33.4321 437.678 L19.3581 437.678 L19.3581 446.15 Q20.3766 445.803 21.3951 445.641 Q22.4136 445.456 23.4322 445.456 Q29.2192 445.456 32.5988 448.627 Q35.9784 451.798 35.9784 457.215 Q35.9784 462.794 32.5062 465.896 Q29.034 468.974 22.7146 468.974 Q20.5386 468.974 18.2701 468.604 Q16.0248 468.233 13.6174 467.493 L13.6174 462.794 Q15.7007 463.928 17.9229 464.484 Q20.1451 465.039 22.622 465.039 Q26.6266 465.039 28.9645 462.933 Q31.3025 460.826 31.3025 457.215 Q31.3025 453.604 28.9645 451.497 Q26.6266 449.391 22.622 449.391 Q20.747 449.391 18.872 449.808 Q17.0202 450.224 15.0757 451.104 L15.0757 433.743 Z" fill="#000000" fill-rule="evenodd" fill-opacity="1" /><path clip-path="url(#clip760)" d="M 0 0 M51.0477 436.822 Q47.4367 436.822 45.608 440.386 Q43.8024 443.928 43.8024 451.058 Q43.8024 458.164 45.608 461.729 Q47.4367 465.271 51.0477 465.271 Q54.682 465.271 56.4875 461.729 Q58.3162 458.164 58.3162 451.058 Q58.3162 443.928 56.4875 440.386 Q54.682 436.822 51.0477 436.822 M51.0477 433.118 Q56.8579 433.118 59.9134 437.724 Q62.9921 442.308 62.9921 451.058 Q62.9921 459.784 59.9134 464.391 Q56.8579 468.974 51.0477 468.974 Q45.2376 468.974 42.1589 464.391 Q39.1034 459.784 39.1034 451.058 Q39.1034 442.308 42.1589 437.724 Q45.2376 433.118 51.0477 433.118 Z" fill="#000000" fill-rule="evenodd" fill-opacity="1" /><path clip-path="url(#clip760)" d="M 0 0 M-7.35472 102.299 L8.96464 102.299 L8.96464 106.234 L-12.9797 106.234 L-12.9797 102.299 Q-10.3177 99.5446 -5.73436 94.915 Q-1.1279 90.2623 0.0526484 88.9197 Q2.29801 86.3965 3.17763 84.6604 Q4.0804 82.9012 4.0804 81.2114 Q4.0804 78.4568 2.13597 76.7207 Q0.214685 74.9846 -2.88715 74.9846 Q-5.08621 74.9846 -7.5399 75.7484 Q-9.97045 76.5123 -12.7482 78.0632 L-12.7482 73.341 Q-9.92415 72.2068 -7.47046 71.6281 Q-5.01677 71.0494 -2.97974 71.0494 Q2.3906 71.0494 5.58503 73.7346 Q8.77945 76.4197 8.77945 80.9105 Q8.77945 83.0401 7.96927 84.9614 Q7.18224 86.8595 5.07577 89.4521 Q4.49707 90.1234 1.39523 93.3409 Q-1.7066 96.5354 -7.35472 102.299 Z" fill="#000000" fill-rule="evenodd" fill-opacity="1" /><path clip-path="url(#clip760)" d="M 0 0 M24.034 74.7531 Q20.4229 74.7531 18.5942 78.3179 Q16.7887 81.8595 16.7887 88.9891 Q16.7887 96.0956 18.5942 99.6604 Q20.4229 103.202 24.034 103.202 Q27.6682 103.202 29.4738 99.6604 Q31.3025 96.0956 31.3025 88.9891 Q31.3025 81.8595 29.4738 78.3179 Q27.6682 74.7531 24.034 74.7531 M24.034 71.0494 Q29.8442 71.0494 32.8997 75.6559 Q35.9784 80.2392 35.9784 88.9891 Q35.9784 97.7159 32.8997 102.322 Q29.8442 106.906 24.034 106.906 Q18.2238 106.906 15.1452 102.322 Q12.0896 97.7159 12.0896 88.9891 Q12.0896 80.2392 15.1452 75.6559 Q18.2238 71.0494 24.034 71.0494 Z" fill="#000000" fill-rule="evenodd" fill-opacity="1" /><path clip-path="url(#clip760)" d="M 0 0 M51.0477 74.7531 Q47.4367 74.7531 45.608 78.3179 Q43.8024 81.8595 43.8024 88.9891 Q43.8024 96.0956 45.608 99.6604 Q47.4367 103.202 51.0477 103.202 Q54.682 103.202 56.4875 99.6604 Q58.3162 96.0956 58.3162 88.9891 Q58.3162 81.8595 56.4875 78.3179 Q54.682 74.7531 51.0477 74.7531 M51.0477 71.0494 Q56.8579 71.0494 59.9134 75.6559 Q62.9921 80.2392 62.9921 88.9891 Q62.9921 97.7159 59.9134 102.322 Q56.8579 106.906 51.0477 106.906 Q45.2376 106.906 42.1589 102.322 Q39.1034 97.7159 39.1034 88.9891 Q39.1034 80.2392 42.1589 75.6559 Q45.2376 71.0494 51.0477 71.0494 Z" fill="#000000" fill-rule="evenodd" fill-opacity="1" /><polyline clip-path="url(#clip762)" style="stroke:#009af9; stroke-width:4; stroke-opacity:1; fill:none" points="
  151.118,1254.82 174.351,1247.57 197.585,1479.3 220.819,1399.64 244.053,1479.3 267.287,1392.4 290.521,1385.16 313.754,1457.57 336.988,1457.57 360.222,1457.57 
  383.456,1450.33 406.69,1464.81 429.924,1312.75 453.157,1392.4 476.391,1421.37 499.625,1298.26 522.859,1450.33 546.093,1421.37 569.327,1464.81 592.56,1450.33 
  615.794,1363.44 639.028,1457.57 662.262,1399.64 685.496,1443.09 708.73,1443.09 731.963,1399.64 755.197,1363.44 778.431,1421.37 801.665,1385.16 824.899,1399.64 
  848.133,1428.61 871.366,1457.57 894.6,1377.92 917.834,1189.64 941.068,1305.5 964.302,1088.26 987.536,1153.44 1010.77,1182.4 1034,798.609 1057.24,653.781 
  1080.47,501.713 1103.7,88.9544 1126.94,653.781 1150.17,407.575 1173.41,320.678 1196.64,537.919 1219.87,646.54 1243.11,226.54 1266.34,88.9544 1289.58,429.299 
  1312.81,248.265 1336.04,88.9544 1359.28,88.9544 1382.51,241.023 1405.74,110.679 1428.98,465.506 1452.21,639.299 1475.45,1233.09 1498.68,88.9544 1521.91,88.9544 
  1545.15,88.9544 1568.38,233.782 1591.62,110.679 1614.85,262.747 1638.08,212.058 1661.32,559.643 1684.55,762.402 1707.78,682.747 1731.02,1298.26 1754.25,610.333 
  1777.49,241.023 1800.72,566.885 1823.95,219.299 1847.19,248.265 1870.42,190.334 1893.66,110.679 1916.89,88.9544 1940.12,132.403 1963.36,88.9544 1986.59,212.058 
  2009.82,291.713 2033.06,356.885 2056.29,342.402 2079.53,291.713 2102.76,88.9544 2125.99,88.9544 2149.23,994.126 2172.46,530.678 2195.7,566.885 2218.93,88.9544 
  2242.16,103.437 2265.4,88.9544 2288.63,88.9544 
  "/>
<path clip-path="url(#clip760)" d="
M1974.46 217.33 L2277.23 217.33 L2277.23 96.3696 L1974.46 96.3696  Z
  " fill="#ffffff" fill-rule="evenodd" fill-opacity="1"/>
<polyline clip-path="url(#clip760)" style="stroke:#000000; stroke-width:4; stroke-opacity:1; fill:none" points="
  1974.46,217.33 2277.23,217.33 2277.23,96.3696 1974.46,96.3696 1974.46,217.33 
  "/>
<polyline clip-path="url(#clip760)" style="stroke:#009af9; stroke-width:4; stroke-opacity:1; fill:none" points="
  1999.64,156.85 2150.69,156.85 
  "/>
<path clip-path="url(#clip760)" d="M 0 0 M2189.7 176.537 Q2187.9 181.167 2186.19 182.579 Q2184.47 183.991 2181.6 183.991 L2178.2 183.991 L2178.2 180.426 L2180.7 180.426 Q2182.46 180.426 2183.43 179.592 Q2184.4 178.759 2185.58 175.657 L2186.35 173.713 L2175.86 148.204 L2180.38 148.204 L2188.48 168.481 L2196.58 148.204 L2201.09 148.204 L2189.7 176.537 Z" fill="#000000" fill-rule="evenodd" fill-opacity="1" /><path clip-path="url(#clip760)" d="M 0 0 M2206.97 170.194 L2214.61 170.194 L2214.61 143.829 L2206.3 145.495 L2206.3 141.236 L2214.57 139.57 L2219.24 139.57 L2219.24 170.194 L2226.88 170.194 L2226.88 174.13 L2206.97 174.13 L2206.97 170.194 Z" fill="#000000" fill-rule="evenodd" fill-opacity="1" /></svg>
