<?xml version="1.0" encoding="utf-8"?>
<svg xmlns="http://www.w3.org/2000/svg" xmlns:xlink="http://www.w3.org/1999/xlink" width="600" height="400" viewBox="0 0 2400 1600">
<defs>
  <clipPath id="clip840">
    <rect x="0" y="0" width="2400" height="1600"/>
  </clipPath>
</defs>
<path clip-path="url(#clip840)" d="
M0 1600 L2400 1600 L2400 0 L0 0  Z
  " fill="#ffffff" fill-rule="evenodd" fill-opacity="1"/>
<defs>
  <clipPath id="clip841">
    <rect x="480" y="0" width="1681" height="1600"/>
  </clipPath>
</defs>
<path clip-path="url(#clip840)" d="
M86.9921 1521.01 L2352.76 1521.01 L2352.76 47.2441 L86.9921 47.2441  Z
  " fill="#ffffff" fill-rule="evenodd" fill-opacity="1"/>
<defs>
  <clipPath id="clip842">
    <rect x="86" y="47" width="2267" height="1475"/>
  </clipPath>
</defs>
<polyline clip-path="url(#clip842)" style="stroke:#000000; stroke-width:2; stroke-opacity:0.1; fill:none" points="
  122.232,1521.01 122.232,47.2441 
  "/>
<polyline clip-path="url(#clip842)" style="stroke:#000000; stroke-width:2; stroke-opacity:0.1; fill:none" points="
  699.938,1521.01 699.938,47.2441 
  "/>
<polyline clip-path="url(#clip842)" style="stroke:#000000; stroke-width:2; stroke-opacity:0.1; fill:none" points="
  1277.64,1521.01 1277.64,47.2441 
  "/>
<polyline clip-path="url(#clip842)" style="stroke:#000000; stroke-width:2; stroke-opacity:0.1; fill:none" points="
  1855.35,1521.01 1855.35,47.2441 
  "/>
<polyline clip-path="url(#clip840)" style="stroke:#000000; stroke-width:4; stroke-opacity:1; fill:none" points="
  86.9921,1521.01 2352.76,1521.01 
  "/>
<polyline clip-path="url(#clip840)" style="stroke:#000000; stroke-width:4; stroke-opacity:1; fill:none" points="
  122.232,1521.01 122.232,1503.32 
  "/>
<polyline clip-path="url(#clip840)" style="stroke:#000000; stroke-width:4; stroke-opacity:1; fill:none" points="
  699.938,1521.01 699.938,1503.32 
  "/>
<polyline clip-path="url(#clip840)" style="stroke:#000000; stroke-width:4; stroke-opacity:1; fill:none" points="
  1277.64,1521.01 1277.64,1503.32 
  "/>
<polyline clip-path="url(#clip840)" style="stroke:#000000; stroke-width:4; stroke-opacity:1; fill:none" points="
  1855.35,1521.01 1855.35,1503.32 
  "/>
<path clip-path="url(#clip840)" d="M 0 0 M122.232 1550.2 Q118.621 1550.2 116.792 1553.76 Q114.987 1557.31 114.987 1564.43 Q114.987 1571.54 116.792 1575.11 Q118.621 1578.65 122.232 1578.65 Q125.866 1578.65 127.672 1575.11 Q129.501 1571.54 129.501 1564.43 Q129.501 1557.31 127.672 1553.76 Q125.866 1550.2 122.232 1550.2 M122.232 1546.49 Q128.042 1546.49 131.098 1551.1 Q134.177 1555.68 134.177 1564.43 Q134.177 1573.16 131.098 1577.77 Q128.042 1582.35 122.232 1582.35 Q116.422 1582.35 113.343 1577.77 Q110.288 1573.16 110.288 1564.43 Q110.288 1555.68 113.343 1551.1 Q116.422 1546.49 122.232 1546.49 Z" fill="#000000" fill-rule="evenodd" fill-opacity="1" /><path clip-path="url(#clip840)" d="M 0 0 M681.084 1577.74 L697.404 1577.74 L697.404 1581.68 L675.459 1581.68 L675.459 1577.74 Q678.121 1574.99 682.705 1570.36 Q687.311 1565.71 688.492 1564.37 Q690.737 1561.84 691.617 1560.11 Q692.519 1558.35 692.519 1556.66 Q692.519 1553.9 690.575 1552.17 Q688.654 1550.43 685.552 1550.43 Q683.353 1550.43 680.899 1551.19 Q678.469 1551.96 675.691 1553.51 L675.691 1548.79 Q678.515 1547.65 680.969 1547.07 Q683.422 1546.49 685.459 1546.49 Q690.83 1546.49 694.024 1549.18 Q697.219 1551.87 697.219 1556.36 Q697.219 1558.49 696.408 1560.41 Q695.621 1562.3 693.515 1564.9 Q692.936 1565.57 689.834 1568.79 Q686.732 1571.98 681.084 1577.74 Z" fill="#000000" fill-rule="evenodd" fill-opacity="1" /><path clip-path="url(#clip840)" d="M 0 0 M712.473 1550.2 Q708.862 1550.2 707.033 1553.76 Q705.228 1557.31 705.228 1564.43 Q705.228 1571.54 707.033 1575.11 Q708.862 1578.65 712.473 1578.65 Q716.107 1578.65 717.913 1575.11 Q719.742 1571.54 719.742 1564.43 Q719.742 1557.31 717.913 1553.76 Q716.107 1550.2 712.473 1550.2 M712.473 1546.49 Q718.283 1546.49 721.339 1551.1 Q724.417 1555.68 724.417 1564.43 Q724.417 1573.16 721.339 1577.77 Q718.283 1582.35 712.473 1582.35 Q706.663 1582.35 703.584 1577.77 Q700.529 1573.16 700.529 1564.43 Q700.529 1555.68 703.584 1551.1 Q706.663 1546.49 712.473 1546.49 Z" fill="#000000" fill-rule="evenodd" fill-opacity="1" /><path clip-path="url(#clip840)" d="M 0 0 M1267.15 1551.19 L1255.34 1569.64 L1267.15 1569.64 L1267.15 1551.19 M1265.92 1547.12 L1271.8 1547.12 L1271.8 1569.64 L1276.73 1569.64 L1276.73 1573.53 L1271.8 1573.53 L1271.8 1581.68 L1267.15 1581.68 L1267.15 1573.53 L1251.55 1573.53 L1251.55 1569.02 L1265.92 1547.12 Z" fill="#000000" fill-rule="evenodd" fill-opacity="1" /><path clip-path="url(#clip840)" d="M 0 0 M1291.8 1550.2 Q1288.19 1550.2 1286.36 1553.76 Q1284.55 1557.31 1284.55 1564.43 Q1284.55 1571.54 1286.36 1575.11 Q1288.19 1578.65 1291.8 1578.65 Q1295.43 1578.65 1297.24 1575.11 Q1299.07 1571.54 1299.07 1564.43 Q1299.07 1557.31 1297.24 1553.76 Q1295.43 1550.2 1291.8 1550.2 M1291.8 1546.49 Q1297.61 1546.49 1300.67 1551.1 Q1303.74 1555.68 1303.74 1564.43 Q1303.74 1573.16 1300.67 1577.77 Q1297.61 1582.35 1291.8 1582.35 Q1285.99 1582.35 1282.91 1577.77 Q1279.86 1573.16 1279.86 1564.43 Q1279.86 1555.68 1282.91 1551.1 Q1285.99 1546.49 1291.8 1546.49 Z" fill="#000000" fill-rule="evenodd" fill-opacity="1" /><path clip-path="url(#clip840)" d="M 0 0 M1842.25 1562.54 Q1839.1 1562.54 1837.25 1564.69 Q1835.42 1566.84 1835.42 1570.59 Q1835.42 1574.32 1837.25 1576.49 Q1839.1 1578.65 1842.25 1578.65 Q1845.4 1578.65 1847.23 1576.49 Q1849.08 1574.32 1849.08 1570.59 Q1849.08 1566.84 1847.23 1564.69 Q1845.4 1562.54 1842.25 1562.54 M1851.53 1547.88 L1851.53 1552.14 Q1849.77 1551.31 1847.97 1550.87 Q1846.18 1550.43 1844.42 1550.43 Q1839.8 1550.43 1837.34 1553.56 Q1834.91 1556.68 1834.56 1563 Q1835.93 1560.99 1837.99 1559.92 Q1840.05 1558.83 1842.53 1558.83 Q1847.74 1558.83 1850.74 1562 Q1853.78 1565.15 1853.78 1570.59 Q1853.78 1575.92 1850.63 1579.13 Q1847.48 1582.35 1842.25 1582.35 Q1836.25 1582.35 1833.08 1577.77 Q1829.91 1573.16 1829.91 1564.43 Q1829.91 1556.24 1833.8 1551.38 Q1837.69 1546.49 1844.24 1546.49 Q1846 1546.49 1847.78 1546.84 Q1849.59 1547.19 1851.53 1547.88 Z" fill="#000000" fill-rule="evenodd" fill-opacity="1" /><path clip-path="url(#clip840)" d="M 0 0 M1868.85 1550.2 Q1865.24 1550.2 1863.41 1553.76 Q1861.6 1557.31 1861.6 1564.43 Q1861.6 1571.54 1863.41 1575.11 Q1865.24 1578.65 1868.85 1578.65 Q1872.48 1578.65 1874.29 1575.11 Q1876.11 1571.54 1876.11 1564.43 Q1876.11 1557.31 1874.29 1553.76 Q1872.48 1550.2 1868.85 1550.2 M1868.85 1546.49 Q1874.66 1546.49 1877.71 1551.1 Q1880.79 1555.68 1880.79 1564.43 Q1880.79 1573.16 1877.71 1577.77 Q1874.66 1582.35 1868.85 1582.35 Q1863.04 1582.35 1859.96 1577.77 Q1856.9 1573.16 1856.9 1564.43 Q1856.9 1555.68 1859.96 1551.1 Q1863.04 1546.49 1868.85 1546.49 Z" fill="#000000" fill-rule="evenodd" fill-opacity="1" /><polyline clip-path="url(#clip842)" style="stroke:#000000; stroke-width:2; stroke-opacity:0.1; fill:none" points="
  86.9921,1192.4 2352.76,1192.4 
  "/>
<polyline clip-path="url(#clip842)" style="stroke:#000000; stroke-width:2; stroke-opacity:0.1; fill:none" points="
  86.9921,824.586 2352.76,824.586 
  "/>
<polyline clip-path="url(#clip842)" style="stroke:#000000; stroke-width:2; stroke-opacity:0.1; fill:none" points="
  86.9921,456.77 2352.76,456.77 
  "/>
<polyline clip-path="url(#clip842)" style="stroke:#000000; stroke-width:2; stroke-opacity:0.1; fill:none" points="
  86.9921,88.9544 2352.76,88.9544 
  "/>
<polyline clip-path="url(#clip840)" style="stroke:#000000; stroke-width:4; stroke-opacity:1; fill:none" points="
  86.9921,1521.01 86.9921,47.2441 
  "/>
<polyline clip-path="url(#clip840)" style="stroke:#000000; stroke-width:4; stroke-opacity:1; fill:none" points="
  86.9921,1192.4 114.181,1192.4 
  "/>
<polyline clip-path="url(#clip840)" style="stroke:#000000; stroke-width:4; stroke-opacity:1; fill:none" points="
  86.9921,824.586 114.181,824.586 
  "/>
<polyline clip-path="url(#clip840)" style="stroke:#000000; stroke-width:4; stroke-opacity:1; fill:none" points="
  86.9921,456.77 114.181,456.77 
  "/>
<polyline clip-path="url(#clip840)" style="stroke:#000000; stroke-width:4; stroke-opacity:1; fill:none" points="
  86.9921,88.9544 114.181,88.9544 
  "/>
<path clip-path="url(#clip840)" d="M 0 0 M3.07572 1175.12 L21.4321 1175.12 L21.4321 1179.06 L7.3581 1179.06 L7.3581 1187.53 Q8.37661 1187.18 9.39513 1187.02 Q10.4136 1186.83 11.4322 1186.83 Q17.2192 1186.83 20.5988 1190.01 Q23.9784 1193.18 23.9784 1198.59 Q23.9784 1204.17 20.5062 1207.27 Q17.034 1210.35 10.7146 1210.35 Q8.53865 1210.35 6.27014 1209.98 Q4.02479 1209.61 1.61739 1208.87 L1.61739 1204.17 Q3.70071 1205.31 5.92292 1205.86 Q8.14513 1206.42 10.622 1206.42 Q14.6266 1206.42 16.9645 1204.31 Q19.3025 1202.2 19.3025 1198.59 Q19.3025 1194.98 16.9645 1192.88 Q14.6266 1190.77 10.622 1190.77 Q8.74698 1190.77 6.87199 1191.19 Q5.02015 1191.6 3.07572 1192.48 L3.07572 1175.12 Z" fill="#000000" fill-rule="evenodd" fill-opacity="1" /><path clip-path="url(#clip840)" d="M 0 0 M39.0477 1178.2 Q35.4367 1178.2 33.608 1181.76 Q31.8024 1185.31 31.8024 1192.44 Q31.8024 1199.54 33.608 1203.11 Q35.4367 1206.65 39.0477 1206.65 Q42.682 1206.65 44.4875 1203.11 Q46.3162 1199.54 46.3162 1192.44 Q46.3162 1185.31 44.4875 1181.76 Q42.682 1178.2 39.0477 1178.2 M39.0477 1174.5 Q44.8579 1174.5 47.9134 1179.1 Q50.9921 1183.69 50.9921 1192.44 Q50.9921 1201.16 47.9134 1205.77 Q44.8579 1210.35 39.0477 1210.35 Q33.2376 1210.35 30.1589 1205.77 Q27.1034 1201.16 27.1034 1192.44 Q27.1034 1183.69 30.1589 1179.1 Q33.2376 1174.5 39.0477 1174.5 Z" fill="#000000" fill-rule="evenodd" fill-opacity="1" /><path clip-path="url(#clip840)" d="M 0 0 M-22.9427 837.931 L-15.3038 837.931 L-15.3038 811.565 L-23.614 813.232 L-23.614 808.972 L-15.3501 807.306 L-10.6742 807.306 L-10.6742 837.931 L-3.03536 837.931 L-3.03536 841.866 L-22.9427 841.866 L-22.9427 837.931 Z" fill="#000000" fill-rule="evenodd" fill-opacity="1" /><path clip-path="url(#clip840)" d="M 0 0 M12.034 810.384 Q8.42291 810.384 6.59422 813.949 Q4.78867 817.491 4.78867 824.62 Q4.78867 831.727 6.59422 835.292 Q8.42291 838.833 12.034 838.833 Q15.6682 838.833 17.4738 835.292 Q19.3025 831.727 19.3025 824.62 Q19.3025 817.491 17.4738 813.949 Q15.6682 810.384 12.034 810.384 M12.034 806.681 Q17.8442 806.681 20.8997 811.287 Q23.9784 815.87 23.9784 824.62 Q23.9784 833.347 20.8997 837.954 Q17.8442 842.537 12.034 842.537 Q6.22385 842.537 3.14516 837.954 Q0.089621 833.347 0.089621 824.62 Q0.089621 815.87 3.14516 811.287 Q6.22385 806.681 12.034 806.681 Z" fill="#000000" fill-rule="evenodd" fill-opacity="1" /><path clip-path="url(#clip840)" d="M 0 0 M39.0477 810.384 Q35.4367 810.384 33.608 813.949 Q31.8024 817.491 31.8024 824.62 Q31.8024 831.727 33.608 835.292 Q35.4367 838.833 39.0477 838.833 Q42.682 838.833 44.4875 835.292 Q46.3162 831.727 46.3162 824.62 Q46.3162 817.491 44.4875 813.949 Q42.682 810.384 39.0477 810.384 M39.0477 806.681 Q44.8579 806.681 47.9134 811.287 Q50.9921 815.87 50.9921 824.62 Q50.9921 833.347 47.9134 837.954 Q44.8579 842.537 39.0477 842.537 Q33.2376 842.537 30.1589 837.954 Q27.1034 833.347 27.1034 824.62 Q27.1034 815.87 30.1589 811.287 Q33.2376 806.681 39.0477 806.681 Z" fill="#000000" fill-rule="evenodd" fill-opacity="1" /><path clip-path="url(#clip840)" d="M 0 0 M-21.9473 470.115 L-14.3085 470.115 L-14.3085 443.749 L-22.6186 445.416 L-22.6186 441.157 L-14.3547 439.49 L-9.67885 439.49 L-9.67885 470.115 L-2.04 470.115 L-2.04 474.05 L-21.9473 474.05 L-21.9473 470.115 Z" fill="#000000" fill-rule="evenodd" fill-opacity="1" /><path clip-path="url(#clip840)" d="M 0 0 M3.07572 439.49 L21.4321 439.49 L21.4321 443.425 L7.3581 443.425 L7.3581 451.897 Q8.37661 451.55 9.39513 451.388 Q10.4136 451.203 11.4322 451.203 Q17.2192 451.203 20.5988 454.374 Q23.9784 457.546 23.9784 462.962 Q23.9784 468.541 20.5062 471.643 Q17.034 474.721 10.7146 474.721 Q8.53865 474.721 6.27014 474.351 Q4.02479 473.981 1.61739 473.24 L1.61739 468.541 Q3.70071 469.675 5.92292 470.231 Q8.14513 470.786 10.622 470.786 Q14.6266 470.786 16.9645 468.68 Q19.3025 466.573 19.3025 462.962 Q19.3025 459.351 16.9645 457.245 Q14.6266 455.138 10.622 455.138 Q8.74698 455.138 6.87199 455.555 Q5.02015 455.971 3.07572 456.851 L3.07572 439.49 Z" fill="#000000" fill-rule="evenodd" fill-opacity="1" /><path clip-path="url(#clip840)" d="M 0 0 M39.0477 442.569 Q35.4367 442.569 33.608 446.134 Q31.8024 449.675 31.8024 456.805 Q31.8024 463.911 33.608 467.476 Q35.4367 471.018 39.0477 471.018 Q42.682 471.018 44.4875 467.476 Q46.3162 463.911 46.3162 456.805 Q46.3162 449.675 44.4875 446.134 Q42.682 442.569 39.0477 442.569 M39.0477 438.865 Q44.8579 438.865 47.9134 443.472 Q50.9921 448.055 50.9921 456.805 Q50.9921 465.532 47.9134 470.138 Q44.8579 474.721 39.0477 474.721 Q33.2376 474.721 30.1589 470.138 Q27.1034 465.532 27.1034 456.805 Q27.1034 448.055 30.1589 443.472 Q33.2376 438.865 39.0477 438.865 Z" fill="#000000" fill-rule="evenodd" fill-opacity="1" /><path clip-path="url(#clip840)" d="M 0 0 M-19.3547 102.299 L-3.03536 102.299 L-3.03536 106.234 L-24.9797 106.234 L-24.9797 102.299 Q-22.3177 99.5446 -17.7344 94.915 Q-13.1279 90.2623 -11.9474 88.9197 Q-9.70199 86.3965 -8.82237 84.6604 Q-7.9196 82.9012 -7.9196 81.2114 Q-7.9196 78.4568 -9.86403 76.7207 Q-11.7853 74.9846 -14.8872 74.9846 Q-17.0862 74.9846 -19.5399 75.7484 Q-21.9704 76.5123 -24.7482 78.0632 L-24.7482 73.341 Q-21.9241 72.2068 -19.4705 71.6281 Q-17.0168 71.0494 -14.9797 71.0494 Q-9.6094 71.0494 -6.41497 73.7346 Q-3.22055 76.4197 -3.22055 80.9105 Q-3.22055 83.0401 -4.03073 84.9614 Q-4.81776 86.8595 -6.92423 89.4521 Q-7.50293 90.1234 -10.6048 93.3409 Q-13.7066 96.5354 -19.3547 102.299 Z" fill="#000000" fill-rule="evenodd" fill-opacity="1" /><path clip-path="url(#clip840)" d="M 0 0 M12.034 74.7531 Q8.42291 74.7531 6.59422 78.3179 Q4.78867 81.8595 4.78867 88.9891 Q4.78867 96.0956 6.59422 99.6604 Q8.42291 103.202 12.034 103.202 Q15.6682 103.202 17.4738 99.6604 Q19.3025 96.0956 19.3025 88.9891 Q19.3025 81.8595 17.4738 78.3179 Q15.6682 74.7531 12.034 74.7531 M12.034 71.0494 Q17.8442 71.0494 20.8997 75.6559 Q23.9784 80.2392 23.9784 88.9891 Q23.9784 97.7159 20.8997 102.322 Q17.8442 106.906 12.034 106.906 Q6.22385 106.906 3.14516 102.322 Q0.089621 97.7159 0.089621 88.9891 Q0.089621 80.2392 3.14516 75.6559 Q6.22385 71.0494 12.034 71.0494 Z" fill="#000000" fill-rule="evenodd" fill-opacity="1" /><path clip-path="url(#clip840)" d="M 0 0 M39.0477 74.7531 Q35.4367 74.7531 33.608 78.3179 Q31.8024 81.8595 31.8024 88.9891 Q31.8024 96.0956 33.608 99.6604 Q35.4367 103.202 39.0477 103.202 Q42.682 103.202 44.4875 99.6604 Q46.3162 96.0956 46.3162 88.9891 Q46.3162 81.8595 44.4875 78.3179 Q42.682 74.7531 39.0477 74.7531 M39.0477 71.0494 Q44.8579 71.0494 47.9134 75.6559 Q50.9921 80.2392 50.9921 88.9891 Q50.9921 97.7159 47.9134 102.322 Q44.8579 106.906 39.0477 106.906 Q33.2376 106.906 30.1589 102.322 Q27.1034 97.7159 27.1034 88.9891 Q27.1034 80.2392 30.1589 75.6559 Q33.2376 71.0494 39.0477 71.0494 Z" fill="#000000" fill-rule="evenodd" fill-opacity="1" /><polyline clip-path="url(#clip842)" style="stroke:#009af9; stroke-width:4; stroke-opacity:1; fill:none" points="
  151.118,1420.45 180.003,1236.54 208.888,1346.88 237.773,1471.94 266.659,1258.61 295.544,1405.73 324.429,1471.94 353.315,1288.03 382.2,1457.23 411.085,1265.96 
  439.971,1479.3 468.856,1442.52 497.741,1413.09 526.627,1435.16 555.512,1435.16 584.397,1442.52 613.282,1442.52 642.168,1295.39 671.053,1162.98 699.938,1405.73 
  728.824,979.068 757.709,1435.16 786.594,1405.73 815.48,515.621 844.365,1391.02 873.25,1015.85 902.136,802.517 931.021,758.379 959.906,956.999 988.792,942.287 
  1017.68,471.483 1046.56,302.287 1075.45,662.747 1104.33,589.184 1133.22,662.747 1162.1,419.988 1190.99,88.9544 1219.87,353.782 1248.76,88.9544 1277.64,537.689 
  1306.53,88.9544 1335.42,88.9544 1364.3,140.449 1393.19,88.9544 1422.07,88.9544 1450.96,88.9544 1479.84,88.9544 1508.73,243.437 1537.61,191.943 1566.5,88.9544 
  1595.38,88.9544 1624.27,88.9544 1653.15,88.9544 1682.04,88.9544 1710.92,88.9544 1739.81,88.9544 1768.69,88.9544 1797.58,88.9544 1826.47,88.9544 1855.35,88.9544 
  1884.24,88.9544 1913.12,88.9544 1942.01,88.9544 1970.89,88.9544 1999.78,88.9544 2028.66,88.9544 2057.55,88.9544 2086.43,88.9544 2115.32,88.9544 2144.2,88.9544 
  2173.09,88.9544 2201.97,88.9544 2230.86,88.9544 2259.75,88.9544 2288.63,88.9544 
  "/>
<path clip-path="url(#clip840)" d="
M1974.46 217.33 L2277.23 217.33 L2277.23 96.3696 L1974.46 96.3696  Z
  " fill="#ffffff" fill-rule="evenodd" fill-opacity="1"/>
<polyline clip-path="url(#clip840)" style="stroke:#000000; stroke-width:4; stroke-opacity:1; fill:none" points="
  1974.46,217.33 2277.23,217.33 2277.23,96.3696 1974.46,96.3696 1974.46,217.33 
  "/>
<polyline clip-path="url(#clip840)" style="stroke:#009af9; stroke-width:4; stroke-opacity:1; fill:none" points="
  1999.64,156.85 2150.69,156.85 
  "/>
<path clip-path="url(#clip840)" d="M 0 0 M2189.7 176.537 Q2187.9 181.167 2186.19 182.579 Q2184.47 183.991 2181.6 183.991 L2178.2 183.991 L2178.2 180.426 L2180.7 180.426 Q2182.46 180.426 2183.43 179.592 Q2184.4 178.759 2185.58 175.657 L2186.35 173.713 L2175.86 148.204 L2180.38 148.204 L2188.48 168.481 L2196.58 148.204 L2201.09 148.204 L2189.7 176.537 Z" fill="#000000" fill-rule="evenodd" fill-opacity="1" /><path clip-path="url(#clip840)" d="M 0 0 M2206.97 170.194 L2214.61 170.194 L2214.61 143.829 L2206.3 145.495 L2206.3 141.236 L2214.57 139.57 L2219.24 139.57 L2219.24 170.194 L2226.88 170.194 L2226.88 174.13 L2206.97 174.13 L2206.97 170.194 Z" fill="#000000" fill-rule="evenodd" fill-opacity="1" /></svg>
